<svg xmlns="http://www.w3.org/2000/svg" width="400" height="400">
  <g fill-rule="evenodd">
    <path fill="#545cfc"
      d="M120.267 219.467c-.398.398-.322 1.333.108 1.333.206 0 .348-.36.315-.8-.068-.904-.061-.895-.423-.533M29.6 221.178c0 .218-.315.296-.7.172-.571-.184-.593-.149-.119.186.319.226.724.322.9.214.339-.21.461.375.333 1.594-.047.444.095.636.353.476.257-.158.433.068.433.556 0 .482.261.824.627.824.457 0 .554.23.357.85-.149.469-.109.751.088.629s.608.351.914 1.05c.306.699.884 1.506 1.285 1.794.401.287.729.806.729 1.153 0 .346.316.921.703 1.277.386.356.957 1.142 1.267 1.747.311.605.715 1.1.898 1.1.182 0 .332.242.332.538 0 .296.36.864.8 1.262.44.398.8.966.8 1.262 0 .296.18.538.4.538.22 0 .4.255.4.567 0 .311.142.626.316.7.174.073.939 1.029 1.7 2.124 1.667 2.397 1.738 2.492 2.991 4.009.546.66.992 1.385.993 1.612 0 .226.36.671.8.988.44.317.8.807.8 1.088 0 .282.18.512.4.512.22 0 .4.188.4.418 0 .23.405.838.9 1.351s1.96 2.304 3.255 3.982c1.295 1.677 2.497 3.049 2.671 3.049.173 0 .374.256.445.569.071.313.798 1.348 1.616 2.3.817.952 2.984 3.621 4.813 5.931 3.853 4.864 4.798 5.951 8.2 9.429 1.375 1.406 2.5 2.695 2.5 2.864 0 .169.945 1.323 2.1 2.563 1.155 1.24 3.54 3.842 5.3 5.782 4.702 5.182 26.472 26.962 26.951 26.962.225 0 .593.315.817.7.224.385.413.589.42.453.007-.136 1.723 1.439 3.814 3.5s3.967 3.747 4.169 3.747c.202 0 1.641 1.246 3.198 2.77 1.557 1.523 2.836 2.648 2.843 2.5.007-.149.196.045.42.43.224.385.587.7.807.7.219 0 1.299.9 2.399 2s2.157 2 2.349 2c.191 0 .942.63 1.669 1.4.726.77 1.484 1.4 1.685 1.4.2 0 .971.643 1.712 1.428.741.786 1.347 1.299 1.347 1.139 0-.159.336.098.747.572.411.473.951.861 1.2.861s.453.18.453.4c0 .22.225.409.5.42.275.01 1.22.729 2.1 1.597.88.867 1.759 1.579 1.953 1.58.194.002.676.375 1.07.829.394.455.865.86 1.047.9.181.041.285.209.23.374-.055.165.035.264.2.219.67-.181 3.716 1.731 3.449 2.164-.181.292-.057.367.346.213.408-.157.697.029.829.533.14.537.412.694.885.512.543-.208.631-.099.431.532-.175.553-.068.794.354.794.333 0 .606-.15.606-.334 0-.478 1.99-.413 2.05.067.028.22.095.58.15.8.055.22.123.524.15.676.027.153.333-.072.68-.5.346-.427.515-.551.376-.276-.202.399 17.116.5 85.937.5 68.596 0 86.225-.102 86.359-.5.131-.39.314-.379.833.049.574.474.665.457.665-.124 0-.37-.168-.569-.372-.442-.205.126-.486.047-.624-.176-.138-.224-.016-.426.272-.45.288-.023.878-.068 1.31-.1.433-.031.991-.465 1.241-.965.25-.499.924-1.434 1.497-2.078.574-.643 1.101-1.585 1.172-2.092.072-.507.439-1.535.817-2.283.378-.749.687-1.694.687-2.1 0-.407.139-.739.309-.739.17 0 .339-.732.374-1.627.035-.895.238-1.84.45-2.1.48-.59.628-10.126.161-10.415-.188-.116-.387-1.073-.441-2.125-.055-1.053-.261-2.014-.458-2.136-.197-.122-.403-.891-.458-1.709-.055-.818-.244-1.488-.419-1.488s-.318-.272-.318-.605c0-.333-.168-.918-.374-1.3-.205-.382-.609-1.28-.897-1.995-.289-.715-.632-1.3-.764-1.3-.131 0-.656-.81-1.165-1.8s-1.077-1.8-1.263-1.8c-.185 0-.337-.187-.337-.415 0-.756-8.413-8.785-9.205-8.785a.399.399 0 01-.395-.4c0-.22-.27-.4-.6-.4-.33 0-.6-.15-.6-.332 0-.183-.495-.588-1.1-.9-.605-.313-1.449-.883-1.875-1.268-.427-.385-1.012-.7-1.3-.7-.289 0-.525-.158-.525-.351 0-.194-.54-.576-1.2-.849-.66-.273-1.2-.628-1.2-.788 0-.16-.72-.615-1.6-1.012-.88-.397-1.6-.874-1.6-1.061 0-.186-.242-.339-.538-.339-.296 0-.864-.36-1.262-.8-.398-.44-.966-.8-1.262-.8-.296 0-.538-.18-.538-.4 0-.22-.27-.4-.6-.4-.33 0-.6-.18-.6-.4 0-.22-.23-.4-.512-.4-.281 0-.771-.36-1.088-.8-.317-.44-.857-.8-1.2-.8-.343 0-.883-.36-1.2-.8-.317-.44-.897-.8-1.288-.8-.392 0-.712-.15-.712-.332 0-.183-.495-.587-1.1-.898-.605-.31-1.391-.881-1.747-1.267-.356-.387-.901-.703-1.212-.703-.31 0-.824-.36-1.141-.8-.317-.44-.857-.8-1.2-.8-.343 0-.883-.36-1.2-.8-.317-.44-.719-.8-.892-.8-.174 0-1.177-.585-2.23-1.3-1.799-1.222-2.342-1.554-4.574-2.8-.492-.275-1.188-.815-1.547-1.2-.358-.385-.905-.7-1.216-.7-.31 0-.824-.36-1.141-.8-.317-.44-.897-.8-1.288-.8-.392 0-.712-.138-.712-.306 0-.168-.72-.75-1.6-1.294-.88-.544-1.6-1.126-1.6-1.294 0-.168-.27-.306-.6-.306-.33 0-.6-.159-.6-.354 0-.195-.605-.642-1.345-.993s-1.572-.912-1.849-1.246c-.277-.334-.752-.607-1.055-.607-.303 0-.551-.159-.551-.354 0-.195-.605-.642-1.345-.993s-1.572-.912-1.849-1.246c-.277-.334-.752-.607-1.055-.607-.303 0-.551-.141-.551-.313 0-.173-1.755-1.185-3.9-2.251a2592.069 2592.069 0 01-4.595-2.287 3.912 3.912 0 00-1.476-.349c-.43 0-.893-.18-1.029-.4-.136-.22-1.036-.4-2-.4s-1.864-.18-2-.4c-.148-.239-2.737-.4-6.424-.4-3.851 0-6.176.151-6.176.4 0 .22-.81.4-1.8.4s-1.8.18-1.8.4c0 .22-.452.4-1.005.4-.553 0-1.318.159-1.7.353a61.69 61.69 0 01-1.895.9c-.66.3-1.332.726-1.494.946-.162.221-.297.256-.3.078-.006-.306-2.384.852-2.806 1.367-.11.134-.778.541-1.485.902-1.122.576-6.664 5.942-12.615 12.216-1.045 1.102-1.9 1.916-1.9 1.809 0-.107-2.155 1.971-4.788 4.617-4.508 4.53-6.812 6.022-6.812 4.412 0-.22-.452-.4-1.005-.4-.553 0-1.318-.159-1.7-.353a23.892 23.892 0 00-1.695-.748c-2.076-.817-7.919-3.857-11.6-6.034-3.42-2.022-3.786-2.25-4-2.484-.11-.121-.83-.656-1.6-1.189-.77-.534-1.749-1.29-2.175-1.681-.427-.391-.94-.711-1.14-.711-.2 0-.868-.54-1.485-1.2-.617-.66-1.325-1.2-1.574-1.2-.249 0-1.067-.585-1.818-1.3-1.857-1.77-2.608-2.375-2.608-2.102 0 .126-.597-.362-1.327-1.085-.73-.722-2.383-2.213-3.672-3.313-3.91-3.335-19.388-19-18.773-19 .13 0-.458-.675-1.308-1.5-.85-.825-1.967-2.099-2.483-2.831-1.097-1.561-2.832-3.356-2.849-2.951-.007.155-.227-.078-.49-.518-.464-.778-.544-.996-.648-1.773-.027-.205-.41-.487-.85-.627s-.8-.602-.8-1.027c0-.425-.18-.773-.4-.773-.22 0-.4-.27-.4-.6 0-.33-.225-.555-.5-.5-.275.055-.459-.114-.408-.376.05-.261-.252-.584-.672-.718-.425-.135-.88-.766-1.024-1.422-.267-1.219-2.741-4.106-3.16-3.687-.13.13-.236-.325-.236-1.011v-1.247l-46-.029c-30.181-.019-46 .108-46 .368" />
    <path fill="#09a1ee"
      d="M218.63.26c-.942.276-5.03 4.241-5.03 4.879 0 .254-.144.461-.32.461-1.079 0-1.907 9.965-.88 10.6.22.136.4.585.4.997 0 2.12 5.794 6.41 9 6.663.88.07 2.23.256 3 .413.77.157 3.02.309 5 .338 6.937.103 15.8.683 15.8 1.034 0 .195 1.069.355 2.376.355s2.488.18 2.624.4c.136.22 1.036.4 2 .4s1.864.18 2 .4c.136.22 1.047.4 2.024.4.977 0 1.776.18 1.776.4 0 .22.63.4 1.4.4.77 0 1.4.18 1.4.4 0 .22.63.4 1.4.4.77 0 1.4.18 1.4.4 0 .22.619.4 1.376.4.757 0 1.488.18 1.624.4.136.22.687.4 1.224.4.537 0 .976.18.976.4 0 .22.54.4 1.2.4.66 0 1.2.141 1.2.313 0 .172.495.353 1.1.403.605.05 1.16.269 1.233.487.074.219.749.397 1.5.397.752 0 1.367.18 1.367.4 0 .22.36.4.8.4.44 0 .8.18.8.4 0 .22.349.4.776.4.427 0 .888.18 1.024.4.136.22.687.4 1.224.4.537 0 .976.18.976.4 0 .22.461.4 1.024.4.58 0 .916.173.776.4-.136.22 0 .4.301.4.302 0 1.294.36 2.205.8.91.44 1.934.8 2.275.8.34 0 .619.18.619.4 0 .22.345.4.767.4.421 0 .826.135.9.3.21.473 2.589 1.7 3.295 1.7.351 0 .638.18.638.4 0 .22.27.4.6.4.33 0 .6.18.6.4 0 .22.36.4.8.4.44 0 .8.18.8.4 0 .22.36.4.8.4.44 0 .8.159.8.353 0 .195.315.454.7.576 1.042.33 3.009 1.575 3.746 2.371.356.385.942.7 1.301.7s.653.159.653.354c0 .195.585.633 1.3.974.715.34 2.02 1.26 2.9 2.045.88.784 1.78 1.427 2 1.427.22.001.88.406 1.466.9 2.027 1.71 2.539 2.115 3.834 3.033.715.507 1.3.828 1.3.713 0-.114.891.684 1.981 1.773 1.089 1.09 2.132 1.981 2.317 1.981.184 0 1.003.63 1.82 1.4.816.77 1.381 1.4 1.254 1.4-.126 0 .041.27.371.6.33.33.803.6 1.052.6s.341.18.205.4c-.136.22.044.4.4.4.356 0 .536.18.4.4-.136.22.044.4.4.4.356 0 .573.135.482.3-.091.165.618 1.069 1.576 2.009.958.94 1.742 1.603 1.742 1.472s.27.032.6.362c.33.33.6.716.6.857 0 .141.27.527.6.857.33.33.6.484.6.343 0-.141.27.013.6.343.33.33.6.781.6 1.001 0 .221.321.504.713.629.393.124 1.02.745 1.395 1.378.374.634 1.493 2.013 2.486 3.065.993 1.051 1.806 2.109 1.806 2.352 0 .242.407.888.904 1.436 1.711 1.884 3.496 4.312 3.496 4.754 0 .243.18.442.4.442.22 0 .4.169.4.375 0 .207.54.967 1.2 1.689.66.723 1.2 1.499 1.2 1.725.001.226.447.929.992 1.563.545.634.877 1.337.738 1.562-.146.235-.057.288.208.124.254-.157.462-.082.462.167s.272.724.604 1.056c.332.332.501.769.376.971-.125.203-.037.368.196.368s.424.27.424.6c0 .33.18.6.4.6.22 0 .4.27.4.6 0 .33.18.6.4.6.22 0 .4.36.4.8 0 .44.18.8.4.8.22 0 .4.36.4.8 0 .44.18.8.4.8.22 0 .4.27.4.6 0 .33.18.6.4.6.22 0 .4.27.4.6 0 .536 1.897 4.485 2.4 4.997.204.207 1.17 2.69 1.318 3.387.045.212.397.741.782 1.176.631.712.881 1.496.747 2.34-.026.165.133.3.353.3.22 0 .4.349.4.776 0 .427.18.888.4 1.024.22.136.4.597.4 1.024 0 .427.18.776.4.776.22 0 .4.54.4 1.2 0 .66.18 1.2.4 1.2.22 0 .4.362.4.805 0 .443.208 1.208.462 1.7 1.023 1.979 1.138 2.331 1.138 3.49 0 .663.18 1.205.4 1.205.22 0 .4.45.4 1s.18 1 .4 1c.22 0 .403.765.406 1.7.005 1.245.11 1.539.394 1.1.345-.533.666 1.617.437 2.93-.031.181.128.215.353.076.346-.213.641 1.529.457 2.694-.026.165.133.3.353.3.22 0 .4.72.4 1.6 0 .88.141 1.6.313 1.6.298 0 .401.557.647 3.501.06.716.214 1.407.343 1.536.129.128.183-.232.121-.802-.137-1.248.414-1.375.793-.182.182.573.367.697.565.377.219-.355 3.211-.445 11.756-.353 6.305.068 11.462-.012 11.462-.177 0-.165-.225-.305-.5-.312-.277-.007-.188-.194.2-.42.385-.224.697-.624.694-.888-.004-.294-.157-.247-.394.12-.4.619-.561-.668-.425-3.4.046-.935-.031-1.067-.352-.6-.301.44-.412-.072-.417-1.924-.004-1.579-.156-2.431-.406-2.276-.336.208-.656-2.67-.437-3.93.031-.181-.128-.215-.353-.076-.254.157-.41-.356-.41-1.347 0-.88-.18-1.711-.4-1.847-.22-.136-.4-.687-.4-1.224 0-.537-.18-.976-.4-.976-.22 0-.4-.709-.4-1.576 0-.867-.18-1.688-.4-1.824-.22-.136-.4-.687-.4-1.224 0-.537-.18-.976-.4-.976-.22 0-.4-.615-.4-1.367 0-.751-.174-1.426-.387-1.5-.213-.073-.432-.718-.485-1.433-.054-.715-.224-1.3-.378-1.3-.153 0-.232-.315-.175-.7.098-.662-.006-.969-.975-2.895-.22-.437-.4-1.069-.4-1.405 0-.618-.14-.956-1.365-3.3-.374-.715-.535-1.303-.358-1.306.178-.003.134-.138-.096-.3-.487-.341-2.181-4.34-2.181-5.147 0-.301-.135-.548-.3-.55-.359-.004-1.3-1.941-1.3-2.677 0-.286-.18-.52-.4-.52-.22 0-.4-.345-.4-.767 0-.421-.135-.826-.3-.9-.432-.192-2.1-3.505-2.1-4.171 0-.309-.18-.562-.4-.562-.22 0-.4-.27-.4-.6 0-.33-.18-.6-.4-.6-.22 0-.4-.36-.4-.8 0-.44-.18-.8-.4-.8-.22 0-.4-.32-.4-.712 0-.391-.36-.971-.8-1.288-.44-.317-.8-.882-.8-1.255 0-.373-.135-.738-.3-.812-.165-.073-.909-1.331-1.654-2.795-.745-1.465-1.735-3.091-2.2-3.615-.465-.524-.902-1.204-.971-1.512-.068-.307-.428-.79-.8-1.072-.371-.283-.512-.519-.314-.526.199-.007-.026-.349-.5-.76-.473-.411-.861-.969-.861-1.239 0-.271-.54-.997-1.2-1.614-.66-.617-1.2-1.32-1.2-1.564s-.54-1.008-1.2-1.699c-.66-.691-1.2-1.51-1.2-1.82 0-.31-.18-.453-.4-.317-.22.136-.4.033-.4-.229 0-.263-.316-.768-.703-1.124-.386-.356-.953-1.136-1.26-1.733-.307-.598-.71-.992-.897-.877-.187.116-.34.002-.34-.253s-.54-.967-1.2-1.584c-.66-.617-1.2-1.309-1.2-1.538 0-.229-.4-.697-.889-1.039-.489-.343-.758-.623-.598-.623.161 0-3.174-3.481-7.411-7.735-4.236-4.254-7.776-7.675-7.866-7.602-.09.072-.416-.227-.723-.666-.307-.438-.727-.797-.934-.797-.206 0-1.294-.9-2.418-2-1.123-1.1-2.228-2-2.455-2-.227 0-.703-.324-1.059-.719-.356-.395-1.277-1.152-2.047-1.681-.77-.529-1.691-1.286-2.047-1.681-.356-.395-.824-.719-1.041-.719-.216 0-.918-.495-1.56-1.1-.641-.605-1.658-1.355-2.259-1.668-.601-.312-1.093-.717-1.093-.9 0-.182-.188-.332-.417-.332-.229 0-.803-.36-1.275-.8-.472-.44-1.095-.8-1.383-.8-.289 0-.525-.191-.525-.424 0-.233-.18-.312-.4-.176-.22.136-.4.1-.4-.081 0-.18-1.215-.956-2.7-1.723-1.485-.768-2.76-1.531-2.833-1.696-.074-.165-.396-.3-.717-.3-.321 0-.97-.36-1.442-.8-.472-.44-1.095-.8-1.383-.8-.289 0-.525-.146-.525-.325 0-.179-.63-.573-1.4-.875-.77-.302-1.4-.696-1.4-.875 0-.179-.36-.325-.8-.325-.44 0-.8-.18-.8-.4 0-.22-.36-.4-.8-.4-.44 0-.8-.18-.8-.4 0-.22-.36-.4-.8-.4-.44 0-.8-.18-.8-.4 0-.22-.36-.4-.8-.4-.44 0-.8-.18-.8-.4 0-.22-.349-.4-.776-.4-.427 0-.888-.18-1.024-.4-.136-.22-.607-.4-1.047-.4-.44 0-.689-.18-.553-.4.136-.22-.123-.4-.576-.4-.453 0-.824-.191-.824-.424 0-.233-.142-.335-.316-.228-.174.108-.939-.074-1.7-.404-2.159-.934-4.915-2.189-5.679-2.584-.382-.198-1.021-.36-1.42-.36s-.896-.156-1.105-.347c-.563-.514-4.181-1.653-5.251-1.653-.511 0-.929-.18-.929-.4 0-.22-.54-.4-1.2-.4-.66 0-1.2-.18-1.2-.4 0-.22-.619-.4-1.376-.4-.757 0-1.488-.18-1.624-.4-.136-.22-.676-.4-1.2-.4-.524 0-1.064-.18-1.2-.4-.136-.22-.867-.4-1.624-.4-.757 0-1.376-.18-1.376-.4 0-.22-.821-.4-1.824-.4-1.003 0-1.732-.147-1.621-.326.11-.18-.644-.37-1.677-.422-1.033-.052-1.938-.265-2.011-.473-.074-.209-.929-.379-1.9-.379-.972 0-1.767-.18-1.767-.4 0-.22-.889-.4-1.976-.4s-2.07-.15-2.183-.334c-.113-.183-1.334-.374-2.712-.424-1.378-.05-2.735-.281-3.016-.514-.542-.45-27.655-.887-29.083-.468m.601 46.659c-1.767.563-5.769 4.48-6.592 6.451-1.142 2.732-.654 11.43.641 11.43.176 0 .32.204.32.453 0 1.911 5.924 5.547 9.038 5.547 1.189 0 2.162.163 2.162.362 0 .199 2.545.386 5.655.416 3.111.029 5.979.226 6.374.437.395.212 1.72.385 2.945.385 1.224 0 2.226.163 2.226.361 0 .199.855.455 1.9.569a36.56 36.56 0 013.7.631c.99.233 3 .653 4.467.932 1.467.279 2.802.643 2.967.808.165.164.632.299 1.038.299s1.096.18 1.533.4l1.59.8c.437.22 1.167.4 1.623.4.456 0 .718.18.582.4-.138.224.169.4.697.4 1.072 0 3.095.848 3.1 1.3.002.165.363.3.803.3.44 0 .8.18.8.4 0 .22.221.4.491.4.762 0 5.909 2.501 5.909 2.871 0 .181.36.329.8.329.44 0 .8.146.8.325 0 .179.63.573 1.4.875.77.302 1.4.674 1.4.826 0 .152.54.501 1.2.774.66.273 1.2.619 1.2.768 0 .149.63.499 1.4.778.77.278 1.4.677 1.4.886 0 .21.63.681 1.4 1.049.77.367 1.4.814 1.4.993 0 .179.248.326.552.326.303 0 1.293.72 2.2 1.6.907.88 1.838 1.6 2.069 1.6.231 0 1.331.988 2.445 2.196 1.114 1.207 2.189 2.094 2.389 1.97.201-.124.315-.052.255.161-.119.418 1.598 2.073 2.151 2.073.187 0 .294.225.239.5-.055.275.125.455.4.4.275-.055.5.106.5.357s.495.941 1.1 1.533a102.7 102.7 0 012.822 2.944c.947 1.026 1.892 1.866 2.1 1.866.208 0 .378.288.378.64 0 .351.518 1.123 1.152 1.715.633.591 1.75 2.059 2.482 3.26.732 1.202 1.654 2.42 2.049 2.708.394.287.717.859.717 1.271 0 .412.225.987.5 1.277.275.291.752 1.018 1.06 1.615.308.598.713.992.9.877.187-.116.34.138.34.564 0 .426.274 1.003.61 1.281.335.278.524.592.419.697-.105.104.072.453.394.775.321.321.465.778.319 1.014-.157.255-.078.313.196.144s.462-.031.462.338c0 .343.18.624.4.624.22 0 .4.36.4.8 0 .44.191.8.424.8.233 0 .32.168.193.372-.126.205-.044.488.183.628.227.14.309.423.183.628-.127.204-.04.372.193.372s.424.461.424 1.024.142.936.315.828c.173-.107.546.378.829 1.077a31.27 31.27 0 001.034 2.271c.286.55.469 1.316.406 1.702-.062.386.028.614.201.507.173-.107.534.657.802 1.698.519 2.018.987 3.267 1.842 4.922.293.566.541 1.421.552 1.9.01.479.03 1.227.044 1.663.014.436.192.895.396 1.021.203.126.263-.051.132-.392-.143-.371-.02-.626.304-.633 12.646-.269 23.329.1 23.836.823.304.434.735.789.958.789.707 0 .186-2.178-.65-2.717-.753-.485-.741-.501.199-.258.904.233.932.206.295-.284-.49-.377-.658-.938-.551-1.849.084-.72-.004-1.405-.196-1.524-.191-.118-.348-.565-.348-.992 0-.427-.18-.776-.4-.776-.22 0-.4-.63-.4-1.4 0-.77-.18-1.4-.4-1.4-.22 0-.4-.529-.4-1.176 0-.647-.18-1.288-.4-1.424-.22-.136-.4-.698-.4-1.25 0-.551-.162-1.306-.359-1.676-.198-.371-.423-1.124-.5-1.674-.078-.55-.242-1.09-.366-1.2-.124-.11-.633-1.28-1.132-2.6-.499-1.32-1.073-2.713-1.275-3.095-.202-.382-.368-.967-.368-1.3 0-.333-.18-.605-.4-.605-.22 0-.4-.36-.4-.8 0-.44-.18-.8-.4-.8-.22 0-.4-.272-.4-.605 0-.333-.17-.918-.378-1.3s-1.062-2.135-1.897-3.895c-.835-1.76-2.015-3.946-2.622-4.858-.607-.912-1.103-1.857-1.103-2.1 0-.243-.168-.442-.373-.442s-.481-.339-.612-.752c-.131-.414-.59-1.158-1.019-1.652-.428-.495-.665-1.084-.526-1.309.146-.236.057-.289-.208-.125-.254.157-.462.082-.462-.167s-.272-.724-.604-1.056c-.332-.332-.484-.797-.338-1.033.157-.255.078-.313-.196-.144s-.462.031-.462-.338c0-.343-.15-.624-.332-.624-.183 0-.587-.495-.898-1.1-.31-.605-.881-1.391-1.267-1.747-.387-.356-.703-.851-.703-1.1 0-.249-.18-.453-.4-.453a.41.41 0 01-.4-.418c0-.23-.405-.828-.9-1.328-.495-.5-1.26-1.409-1.7-2.019-2.495-3.457-13.511-14.484-17.292-17.308-.829-.62-1.568-1.262-1.641-1.427-.074-.165-.349-.3-.612-.3s-.738-.36-1.055-.8c-.317-.44-.807-.8-1.088-.8-.282 0-.512-.18-.512-.4 0-.22-.281-.4-.624-.4-.343 0-.512-.18-.376-.4.136-.22-.007-.4-.317-.4s-1.129-.54-1.82-1.2c-.691-.66-1.488-1.2-1.771-1.2-.283 0-.775-.36-1.092-.8-.317-.44-.897-.8-1.288-.8-.392 0-.712-.15-.712-.332 0-.183-.495-.588-1.1-.9-.605-.312-1.19-.657-1.3-.767-.11-.111-1.055-.647-2.1-1.193-1.045-.545-1.9-1.141-1.9-1.323 0-.183-.168-.229-.372-.102a.44.44 0 01-.604-.144c-.321-.52-6.836-3.639-7.6-3.639-.343 0-.624-.18-.624-.4 0-.22-.36-.4-.8-.4-.44 0-.8-.18-.8-.4 0-.22-.36-.4-.8-.4-.44 0-.8-.142-.8-.315 0-.173-.402-.345-.894-.382-.492-.037-.957-.255-1.033-.485-.077-.23-.564-.418-1.083-.418-.518 0-1.054-.18-1.19-.4-.136-.22-.597-.4-1.024-.4-.427 0-.776-.18-.776-.4 0-.22-.529-.4-1.176-.4-.647 0-1.288-.18-1.424-.4-.136-.22-.687-.4-1.224-.4-.537 0-.976-.18-.976-.4 0-.22-.54-.4-1.2-.4-.66 0-1.2-.143-1.2-.318 0-.175-.67-.364-1.488-.419-.818-.055-1.583-.247-1.7-.426-.2-.308-1.062-.531-4.112-1.064-.715-.125-1.66-.384-2.1-.575-.829-.361-2.633-.684-5.9-1.058-1.045-.119-1.9-.34-1.9-.491 0-.151-1.305-.325-2.9-.389-1.595-.063-3.071-.282-3.28-.487-.536-.526-17.689-.397-19.389.146m-.631 47.18c-2.363 1.323-5.118 4.223-6.1 6.42-.992 2.22-.382 11.081.763 11.081.185 0 .337.207.337.461 0 .253.99 1.434 2.2 2.625 1.21 1.191 2.2 2.061 2.2 1.934s.652.042 1.449.375 2.552.608 3.9.611c1.804.005 2.293.115 1.851.418-.48.329-.4.399.4.35 2.75-.171 8.023.066 7.845.352-.11.18.64.37 1.668.424 1.027.053 1.963.221 2.078.373.115.152.839.338 1.609.412.77.075 1.46.3 1.533.5.074.201.563.365 1.088.365.526 0 1.996.485 3.267 1.079 1.272.593 2.537 1.035 2.812.982.275-.053.5.073.5.279 0 .418.898.837 2.4 1.119.55.104 1.06.357 1.133.565.074.207.389.376.7.376.312 0 .567.18.567.4 0 .22.36.4.8.4.44 0 .8.18.8.4 0 .22.281.4.624.4.369 0 .507.188.338.462-.169.274-.111.353.144.196.236-.146.701.006 1.033.338.332.332.807.604 1.056.604s.341.18.205.4c-.137.221.151.4.643.4.49 0 .774.117.631.259-.35.35 1.337 1.782 1.778 1.509.191-.118.348.053.348.381 0 .329.315.7.7.825.862.28 3.33 2.594 4.743 4.447.579.759 1.311 1.379 1.628 1.379.317 0 .464.182.326.405-.138.223.475 1.123 1.361 2s1.41 1.595 1.165 1.595c-.245 0-.058.336.416.747.473.411.861.961.861 1.224 0 .262.135.394.3.295.165-.1.532.069.816.376.283.307.391.558.238.558-.153 0 .065.391.484.869.476.543.537.739.162.523-.522-.301-.527-.256-.036.349.31.383.775.614 1.033.515.259-.099.47.073.47.382s-.15.562-.334.562c-.183 0-.333.135-.333.3 0 .165 5.895.3 13.1.3s13.415.154 13.8.343c.559.274.7.164.7-.543 0-.6-.183-.815-.568-.668-.428.165-.531-.07-.419-.957.082-.646-.022-1.175-.232-1.175-.21 0-.381-.431-.381-.957 0-.527-.289-1.068-.642-1.204-.378-.145-.544-.499-.404-.864.131-.342-.118-.999-.558-1.472-.438-.47-.796-1.27-.796-1.778 0-.509-.159-.925-.353-.925-.195 0-.463-.315-.596-.7-.133-.385-.58-1.24-.993-1.9-.413-.66-.675-1.335-.581-1.5.094-.165-.02-.3-.253-.3a.422.422 0 01-.424-.417c0-.229-.36-.803-.8-1.275-.44-.472-.8-1.185-.8-1.583 0-.399-.165-.725-.367-.725-.416 0-2.276-2.851-2.138-3.277.049-.152-.357-.628-.903-1.058-.545-.429-.992-.961-.992-1.182 0-.221-.885-1.305-1.966-2.41-1.081-1.104-1.866-2.108-1.743-2.231.123-.123-.072-.337-.434-.475-.361-.139-.657-.503-.657-.81 0-.306-.154-.557-.342-.557-.187 0-.827-.45-1.42-1-.594-.55-.973-1-.843-1s.004-.251-.279-.558c-.284-.307-.651-.476-.816-.376-.165.099-.303-.144-.306-.542-.005-.614-.065-.633-.394-.124-.324.502-.389.475-.394-.167-.003-.421-.117-.656-.252-.52-.135.135-1.083-.614-2.107-1.665-1.023-1.05-2.108-1.828-2.41-1.727-.331.11-.438.004-.269-.269.154-.249.042-.452-.248-.452s-.752-.36-1.027-.8c-.275-.44-.768-.8-1.096-.8-.329 0-.597-.18-.597-.4 0-.22-.27-.4-.6-.4-.33 0-.6-.18-.6-.4 0-.22-.27-.4-.6-.4-.33 0-.6-.136-.6-.302 0-.167-.585-.558-1.3-.87-.715-.312-1.57-.851-1.9-1.198-.33-.346-.87-.688-1.2-.76-.33-.071-.66-.296-.733-.5-.074-.203-.479-.37-.9-.37-.422 0-.767-.18-.767-.4 0-.22-.36-.4-.8-.4-.44 0-.8-.18-.8-.4 0-.22-.36-.4-.8-.4-.44 0-.8-.18-.8-.4 0-.22-.461-.4-1.024-.4s-.935-.143-.827-.317c.107-.174-.194-.346-.671-.382-.476-.036-.929-.253-1.005-.483-.077-.23-.474-.418-.883-.418-.408 0-.854-.18-.99-.4-.136-.22-.687-.4-1.224-.4-.537 0-.976-.18-.976-.4 0-.22-.54-.4-1.2-.4-.66 0-1.2-.18-1.2-.4 0-.22-.54-.4-1.2-.4-.66 0-1.2-.143-1.2-.318 0-.175-.67-.364-1.488-.419-.818-.055-1.583-.25-1.7-.433-.219-.344-2.211-.705-6.012-1.088-1.21-.121-2.381-.368-2.601-.549-1.046-.853-15.13-.429-16.799.506m1.632 46.753c.205.331.093.405-.354.233-.359-.137-.766-.066-.906.16-.139.225-.514.309-.833.187-.319-.123-.505-.09-.412.073.093.162-.393.741-1.079 1.287-.958.762-1.111.808-.66.2.41-.552.254-.494-.514.19-.605.541-1.045 1.261-.976 1.6.069.34-.188.959-.57 1.375-.514.562-.593.948-.302 1.491.324.605.268.694-.317.505-.596-.192-.613-.16-.109.203.405.291 5.761.434 16.467.438 8.726.003 15.942.141 16.034.306.092.165.113.075.046-.2s.132-.5.443-.5c.349 0 .505.305.41.8-.161.836.37 1.096.804.393.138-.223.447-.285.685-.138.253.157.32.083.16-.176-.151-.244-.526-.348-.833-.23-.411.158-.496-.021-.324-.68.162-.617.091-.805-.229-.608-.255.157-.463.085-.463-.161s-.168-.344-.372-.217c-.205.126-.498.028-.65-.219-.197-.318-.378-.291-.622.093-.241.381-.346.397-.35.056-.003-.273-.314-.4-.706-.288-.385.11-.295-.013.2-.274 1.115-.586 1.19-1.297.1-.951-.477.151-.8.072-.8-.197 0-.247-.16-.352-.355-.231-.195.12-.448-.14-.563-.578-.144-.554-.494-.767-1.145-.696-.619.067-.898-.084-.821-.447.072-.339-.108-.463-.47-.324-.323.124-.806-.038-1.073-.36-.276-.332-.807-.483-1.229-.349-.439.139-.744.042-.744-.238 0-.278-.333-.386-.807-.262-.444.116-1.061-.043-1.371-.354-.311-.31-.938-.564-1.393-.564-.456 0-.829-.163-.829-.363 0-.2-2.804-.387-6.234-.417-4.788-.04-6.164.06-5.934.432M375.309 167.2c0 .99.078 1.395.173.9a5.661 5.661 0 000-1.8c-.095-.495-.173-.09-.173.9" />
    <path fill="#545cfc"
      d="M61.4 64c-.136.22-.867.4-1.624.4-.757 0-1.376.18-1.376.4 0 .22-.54.4-1.2.4-.66 0-1.2.18-1.2.4 0 .22-.54.4-1.2.4-.66 0-1.2.18-1.2.4 0 .22-.345.4-.767.4-.421 0-.826.135-.9.3-.073.165-.943.741-1.933 1.28-.99.539-2.149 1.304-2.575 1.7-.427.396-.909.72-1.072.72-1.297 0-38.753 38.617-38.753 39.954 0 .245-.152.446-.337.446-.186 0-.771.855-1.3 1.9-.53 1.045-1.098 1.96-1.263 2.033-.165.074-.3.479-.3.9 0 .422-.18.767-.4.767-.22 0-.4.36-.4.8 0 .44-.18.8-.4.8-.22 0-.4.54-.4 1.2 0 .66-.18 1.2-.4 1.2-.22 0-.4.54-.4 1.2 0 .66-.18 1.2-.4 1.2-.22 0-.4.594-.4 1.32 0 .726-.225 1.545-.5 1.82-.726.727-.726 29.718 0 29.96.309.103.5.911.5 2.11 0 1.068.18 2.054.4 2.19.22.136.4.856.4 1.6 0 .744.18 1.464.4 1.6.22.136.4.766.4 1.4 0 .634.18 1.264.4 1.4.22.136.4.777.4 1.424 0 .647.18 1.176.4 1.176.22 0 .4.619.4 1.376 0 .757.18 1.488.4 1.624.22.136.4.687.4 1.224 0 .537.18.976.4.976.22 0 .4.439.4.976 0 .537.18 1.088.4 1.224.22.136.4.597.4 1.024 0 .427.18.776.4.776.22 0 .4.54.4 1.2 0 .66.18 1.2.4 1.2.22 0 .4.45.4 1s.191 1 .424 1c.233 0 .322.164.198.364-.246.399.761 2.95 2.595 6.57.651 1.284 1.183 2.589 1.183 2.9 0 .312.157.566.35.566.193 0 .454.518.58 1.152.127.633.51 1.43.85 1.771.341.341.62.993.62 1.448 0 .456.18.829.4.829.22 0 .4.27.4.6 0 .33.18.6.4.6.22 0 .4.253.4.562 0 .84 1.686 3.93 2.6 4.767.44.403.575.618.3.478-.275-.14-.5-.064-.5.169s.18.424.4.424c.22 0 .4.225.401.5 0 .275.54 1.13 1.199 1.9s1.199 1.715 1.199 2.1c.001.385.181.7.401.7.22 0 .4.345.4.767 0 .421.167.826.37.9.204.073.429.396.5.717.15.676.585 1.316 1.791 2.634.552.603.696 1.003.4 1.114-.253.095.034.37.639.61.605.241 1.1.543 1.1.672 0 .128-.168.13-.372.003-.205-.126-.486-.047-.624.176-.138.224-.061.407.172.407.233 0 .424.26.424.577 0 .318.4.858.889 1.2.489.343.753.623.586.623-.167 0-.108.365.131.811.239.446.606.705.815.576.239-.148.232-.514-.02-.985-.221-.412-.401-.856-.401-.985 0-.13 20.565-.223 45.7-.207 25.135.016 45.746-.07 45.802-.192.191-.411-.891-1.818-1.398-1.818-.277 0-.526-.18-.554-.4-.101-.804-.169-1.011-.518-1.562-.255-.402-.213-.473.148-.251.301.187.245-.082-.14-.67-.354-.539-.522-1.101-.375-1.249.148-.147.058-.268-.198-.268-.257 0-.467-.27-.467-.6 0-.33-.18-.6-.4-.6-.22 0-.4-.461-.4-1.024 0-.58-.173-.916-.4-.776-.225.139-.4-.18-.4-.727 0-.536-.268-1.197-.596-1.469-.327-.272-.497-.654-.376-.849.121-.195.029-.355-.204-.355-1.065 0-.479-4.746.676-5.484.605-.386 1.594-1.245 2.199-1.909a64.26 64.26 0 011.502-1.607c.221-.22.897-.915 1.501-1.545 2.1-2.19 7.633-7.677 11.254-11.16 2.004-1.928 3.644-3.591 3.644-3.697 0-.18 2.179-3.171 3.426-4.703.316-.387.574-.972.574-1.3 0-.327.138-.595.306-.595.459 0 1.694-3.063 1.694-4.203 0-.548.18-.997.4-.997.22 0 .4-.63.4-1.4 0-.77.18-1.4.4-1.4.22 0 .4-.99.4-2.2 0-1.21.18-2.2.4-2.2.244 0 .4-1.859.4-4.776 0-2.753-.169-4.882-.4-5.024-.22-.136-.4-1.137-.4-2.224 0-1.087-.18-1.976-.4-1.976-.22 0-.4-.54-.4-1.2 0-.66-.156-1.2-.348-1.2-.191 0-.452-.643-.579-1.43-.274-1.687-1.142-3.77-1.571-3.77-.166 0-.302-.36-.302-.8 0-.44-.18-.8-.4-.8-.22 0-.4-.236-.4-.525 0-.288-.315-.873-.7-1.3-.385-.426-.955-1.27-1.268-1.875-.312-.605-.695-1.1-.851-1.1-.156 0-.508-.54-.781-1.2-.273-.66-.643-1.2-.822-1.2-.178 0-.431-.338-.562-.751-.132-.413-.686-1.268-1.233-1.9-.547-.632-1.216-1.644-1.486-2.249-.271-.605-.628-1.1-.795-1.1-.166 0-.302-.27-.302-.6 0-.33-.18-.6-.4-.6-.22 0-.4-.23-.4-.512 0-.281-.36-.771-.8-1.088-.44-.317-.8-.857-.8-1.2 0-.343-.36-.883-.8-1.2-.44-.317-.8-.814-.8-1.105 0-.291-.181-.746-.401-1.012-.973-1.171-3.199-4.701-3.199-5.073 0-.226-.18-.41-.4-.41-.22 0-.4-.225-.401-.5 0-.275-.525-1.114-1.167-1.864-.641-.75-1.404-1.83-1.696-2.4-.292-.57-.803-1.306-1.136-1.636-.333-.33-.86-1.095-1.17-1.7-.311-.605-.715-1.1-.898-1.1-.182 0-.332-.236-.332-.525 0-.288-.315-.873-.7-1.3-.385-.426-.955-1.27-1.268-1.875-.312-.605-.717-1.1-.9-1.1-.182 0-.332-.32-.332-.712 0-.391-.36-.971-.8-1.288-.44-.317-.8-.857-.8-1.2 0-.343-.36-.883-.8-1.2-.44-.317-.8-.752-.8-.967 0-.461-2.066-3.573-2.5-3.766-.165-.074-.3-.344-.3-.6-.001-.257-.446-.984-.989-1.616-.544-.632-1.095-1.487-1.227-1.9-.131-.413-.406-.751-.611-.751-.205 0-.373-.225-.373-.5-.001-.275-.446-1.017-.989-1.649-.544-.632-1.095-1.487-1.227-1.9-.131-.413-.406-.751-.611-.751-.205 0-.373-.27-.373-.6 0-.33-.18-.6-.4-.6-.22 0-.4-.27-.4-.6 0-.33-.18-.6-.4-.6-.22 0-.4-.178-.4-.395 0-.488-1.08-1.839-2.366-2.962-.532-.464-2.088-1.968-3.459-3.343S89.566 70 89.424 70c-.141 0-.644-.36-1.116-.8-.472-.44-1.095-.8-1.383-.8-.289 0-.525-.18-.525-.4 0-.22-.36-.4-.8-.4-.44 0-.8-.18-.8-.4 0-.22-.36-.4-.8-.4-.44 0-.8-.18-.8-.4 0-.22-.54-.4-1.2-.4-.66 0-1.2-.18-1.2-.4 0-.22-.439-.4-.976-.4-.537 0-1.088-.18-1.224-.4-.136-.22-.957-.4-1.824-.4-.867 0-1.576-.18-1.576-.4 0-.251-2.525-.4-6.776-.4-4.087 0-6.875.159-7.024.4m60.2 158.467c0 .476.117.749.26.606.144-.143.495.052.781.433.47.628.498.608.292-.206-.124-.495-.396-.9-.603-.9-.208 0-.266-.18-.13-.4.136-.22.057-.4-.176-.4-.233 0-.424.39-.424.867m3.413 4.333c.342 1.195.508 1.413.828 1.093.132-.133-.064-.658-.437-1.167l-.678-.926.287 1" />
    <path fill="#545cfc"
      d="M108.651 316.317c-.109.178.149.54.575.806.909.568 1.019.265.2-.555-.316-.316-.665-.429-.775-.251m8.149 7.587c0 .167.364.531.809.809.75.468.772.446.304-.304-.504-.806-1.113-1.083-1.113-.505m15.838 13.896c1.5 1.29 1.993 1.29.797 0-.51-.55-1.159-1-1.443-1-.284 0 .007.45.646 1M144 346.554c0 .381.181.581.403.444.221-.137.504.016.629.341.124.324.663.698 1.197.833.534.134.971.445.971.692 0 .459 1.162 1.5 1.7 1.523.165.007.3-.251.3-.574 0-.384-.231-.499-.666-.332-.436.167-.569.099-.387-.196.167-.269-.252-.719-1.034-1.115-.722-.365-1.718-1.034-2.213-1.487-.804-.735-.9-.748-.9-.129m187.573 2.079a9.5 9.5 0 00-.971 1.51c-.236.471-.783.883-1.216.914-.432.032-1.022.077-1.31.1-.288.024-.41.226-.272.45.138.223.419.302.624.176.204-.127.372.072.372.442 0 .581-.091.598-.665.124-.519-.428-.702-.439-.833-.049-.134.398-17.763.5-86.359.5-68.821 0-86.139-.101-85.937-.5.139-.275-.03-.151-.376.276-.347.428-.652.653-.68.5a12.604 12.604 0 00-.15-.676 8.326 8.326 0 01-.15-.8c-.067-.538-2.05-.515-2.05.024 0 .233-.225.288-.5.123-.34-.204-.324-.084.049.376.302.372.887.677 1.3.677.413 0 .751.173.751.384 0 .861 1.8 2.053 2.796 1.851.552-.112.785-.108.518.009-.587.258.198 1.756.92 1.756.243 0 .757.348 1.142.773.402.445.966.671 1.327.532.415-.159.53-.082.339.227-.166.268-.061.468.246.468.295 0 .795.36 1.112.8.317.44.801.8 1.074.8.274 0 1.17.585 1.99 1.3.821.715 1.357 1.075 1.191.8-.167-.275-.112-.5.121-.5.233 0 .424.152.424.339 0 .589 1.47 2.061 2.059 2.061.31 0 .824.36 1.141.8.317.44.869.8 1.226.8.358 0 .976.36 1.374.8.398.44.889.8 1.091.8.201 0 .638.272.97.604.332.332.797.484 1.033.338.236-.146.318-.085.181.136-.136.221.241.654.839.962.597.308 1.435.875 1.861 1.26.427.385 1.012.7 1.3.7.289 0 .525.145.525.321 0 .177.897.762 1.994 1.3 1.096.539 1.996 1.125 2 1.303.003.178.186.212.406.076.22-.136.4-.057.4.176 0 .233.36.424.8.424.44 0 .8.18.8.4 0 .22.32.4.712.4.391 0 .971.36 1.288.8.317.44.897.8 1.288.8.392 0 .712.18.712.4 0 .22.36.4.8.4.44 0 .8.18.8.4 0 .22.27.4.6.4.33 0 .6.18.6.4 0 .22.36.4.8.4.44 0 .8.152.8.337 0 .186.855.771 1.9 1.3 1.045.53 1.96 1.098 2.033 1.263.074.165.479.3.9.3.422 0 .767.18.767.4 0 .22.36.4.8.4.44 0 .8.18.8.4 0 .22.36.4.8.4.44 0 .8.18.8.4 0 .22.36.4.8.4.44 0 .8.18.8.4 0 .22.36.4.8.4.44 0 .8.18.8.4 0 .22.265.4.588.4.323 0 1.224.358 2.003.795.778.437 1.459.756 1.512.71.053-.047 1.267.479 2.697 1.168 1.43.69 3.275 1.38 4.1 1.535.825.155 1.5.441 1.5.637 0 .195.54.355 1.2.355.66 0 1.2.18 1.2.4 0 .22.362.4.805.4.443 0 1.163.18 1.6.4l1.59.8c.437.22 1.146.4 1.576.4.43 0 .893.18 1.029.4.136.22.676.4 1.2.4.524 0 1.064.18 1.2.4.136.22.777.4 1.424.4.647 0 1.176.18 1.176.4 0 .22.72.4 1.6.4.88 0 1.6.18 1.6.4 0 .22.72.4 1.6.4.88 0 1.6.18 1.6.4 0 .22.774.4 1.72.4s1.945.225 2.22.5c.382.382 3.963.5 15.147.5 11.361 0 14.684-.112 14.813-.5.092-.275.681-.5 1.31-.5.628 0 1.254-.18 1.39-.4.136-.22.676-.4 1.2-.4.524 0 1.064-.18 1.2-.4.136-.22.687-.4 1.224-.4.537 0 .976-.18.976-.4 0-.22.36-.4.8-.4.44 0 .8-.18.8-.4 0-.22.416-.4.925-.4.508 0 1.311-.36 1.783-.8.472-.44 1.136-.8 1.475-.8.339 0 .617-.18.617-.4 0-.22.236-.4.525-.4.288 0 .911-.36 1.383-.8.472-.44 1.031-.8 1.243-.8.211 0 1.133-.72 2.049-1.6.916-.88 1.818-1.6 2.005-1.6.332 0 10.591-10.103 13.024-12.825.675-.756 1.98-2.029 2.9-2.829.919-.8 1.671-1.666 1.671-1.924s.18-.358.4-.222c.22.136.4-.044.4-.4 0-.356.18-.536.4-.4.22.136.4-.063.4-.443s.107-.584.237-.454c.306.307 5.295-4.607 5.079-5.003-.09-.165.04-.3.289-.3.61 0 1.619-1.042 1.309-1.352-.136-.137-.024-.248.248-.248.608 0 1.638-.988 1.638-1.571 0-.236.191-.429.424-.429.233 0 .295-.208.138-.462-.157-.254-.114-.355.096-.226.21.13 1.138-.554 2.062-1.519 1.639-1.713 2.148-2.529 1.218-1.955-.279.173-.353.11-.187-.159.151-.244.539-.343.862-.219.342.132.587-.006.587-.329 0-.305.36-.814.8-1.131.44-.317.8-.817.8-1.112 0-.294.18-.424.4-.288.22.136.4-.057.4-.429 0-.373.377-1.004.837-1.403.46-.399.726-.904.591-1.122-.135-.218.072-.574.46-.791.388-.217.597-.503.466-.635-.132-.131-.484.054-.781.413" />
    <path fill="#09a1ee"
      d="M272.663 144.304c-.098.163.063.519.358.792s.617.363.716.2c.098-.163-.063-.519-.358-.792s-.617-.363-.716-.2m-59.219 1.485c-.808 1.234-.82 2.058-.035 2.359.485.186.529.084.217-.5-.296-.552-.201-.939.387-1.569.428-.46.62-.935.427-1.054-.194-.12-.642.224-.996.764m30.156 1.055c-.513.369-.502.4.074.216.371-.118.762 0 .869.262.132.326.204.303.225-.071.026-.446.146-.454.641-.043.509.422.568.398.357-.151-.287-.75-1.284-.848-2.166-.213m154.54.43c.118.371 0 .762-.262.869-.355.144-.35.202.022.225.275.018.5.167.5.332s-5.157.245-11.462.177c-8.545-.092-11.537-.002-11.756.353-.2.322-.378.213-.553-.34-.346-1.09-1.25-1.401-1.322-.454-.031.412.112.852.318.98.206.127.378 1.346.381 2.708.004 1.746.121 2.299.394 1.876.268-.415.39.398.394 2.633.003 1.779.129 3.356.278 3.506.15.15.323 2.385.384 4.967.193 8.14.564 14.235.893 14.672.174.232.562 1.038.861 1.791.623 1.566 3.4 4.415 5.064 5.196.619.291 1.439.687 1.821.882.901.458 8.305.461 8.305.003 0-.192.536-.457 1.191-.588 2.323-.465 5.906-4.696 6.24-7.368.483-3.868-.068-26.415-.663-27.133-.298-.359-.478-1.481-.432-2.688.044-1.14-.121-2.343-.366-2.673-.383-.516-.415-.505-.23.074m-122.84.191c-.275.111-.5.451-.5.756s.24.462.533.349c.294-.112.534-.467.534-.787 0-.321-.015-.569-.034-.551a5.881 5.881 0 01-.533.233m-63.244 4.409c-.124 5.368 3.67 11.726 6.998 11.726.52 0 .946.18.946.4 0 .22.979.4 2.176.4s2.288.18 2.424.4c.136.22.957.4 1.824.4.867 0 1.576.18 1.576.4 0 .22.36.4.8.4.44 0 .8.18.8.4 0 .22.186.4.413.4.669 0 2.998 2.524 3.614 3.916.313.706.704 1.284.871 1.284.166 0 .302.799.302 1.776s.18 1.888.4 2.024c.22.136.4 1.126.4 2.2 0 1.074.18 2.064.4 2.2.22.136.4.597.4 1.024 0 .427.18.776.4.776.22 0 .4.185.4.411 0 3.345 10.837 7.203 14.705 5.236.382-.195 1.163-.57 1.734-.835 2.209-1.024 5.161-4.366 5.161-5.843 0-.533.18-.969.4-.969.519 0 .538-10.959.02-11.905-.208-.382-.489-1.546-.623-2.586-.134-1.04-.413-1.995-.62-2.123-.207-.128-.377-.57-.377-.981 0-.411-.276-1.024-.614-1.362-.338-.338-.563-.672-.5-.742.217-.242-1.409-3.501-1.747-3.501-.186 0-.339-.236-.339-.525 0-.288-.329-.878-.732-1.31-.403-.432-1.053-1.276-1.446-1.875-.393-.6-1.048-1.09-1.455-1.09-.485 0-.665-.202-.518-.582.204-.533-.654-1.621-2.31-2.928-.535-.423-.688-.399-.897.144-.179.467-.081.59.341.428.325-.125.715-.027.866.217.16.259.093.333-.16.176-.238-.147-.547-.085-.685.138-.434.703-.965.443-.804-.393.095-.495-.061-.8-.41-.8-.357 0-.482.258-.34.7.153.475.111.543-.13.209-.269-.371-4.275-.518-16.338-.6-8.79-.06-16.264-.251-16.608-.424-.545-.273-.639.197-.718 3.589m113.529-2.674c.169.33.226.825.128 1.1-.099.275.036.5.3.5.308 0 .405.394.271 1.096-.115.602-.015 1.457.222 1.9.237.442.456 1.344.487 2.004.03.66.185 1.65.344 2.2.159.55.36 1.81.446 2.8.086.99.271 2.43.41 3.2.139.77.312 3.29.383 5.6.295 9.54.944 11.942 4.051 14.999 1.812 1.783 3.06 2.601 3.968 2.601.333 0 .605.18.605.4 0 .241 1.667.4 4.2.4 2.533 0 4.2-.159 4.2-.4 0-.22.36-.4.8-.4.44 0 .8-.18.8-.4 0-.22.282-.4.626-.4.949 0 4.581-3.935 4.843-5.246.127-.635.389-1.154.581-1.154.469 0 .451-17.736-.019-18.22-.203-.209-.466-1.64-.585-3.18-.494-6.414-.644-7.012-2.102-8.428l-1.373-1.334-11.947-.119c-10.514-.105-11.909-.047-11.639.481m-49.985-.003c0 .809.519 1.577.904 1.339.241-.149.301-.068.141.191-.153.248.214 1.491.815 2.762.602 1.271 1.071 2.626 1.042 3.011-.029.385.117.7.323.7.206 0 .375.54.375 1.2 0 .66.18 1.2.4 1.2.22 0 .4.594.4 1.32 0 .726.185 1.505.411 1.731.481.481.698 1.938 1.186 7.949.756 9.317 1.294 11.134 4.103 13.883 1.936 1.895 3.175 2.717 4.095 2.717.333 0 .605.18.605.4 0 .241 1.667.4 4.2.4 2.533 0 4.2-.159 4.2-.4 0-.22.272-.4.605-.4 1.377 0 5.795-3.804 5.795-4.989 0-.336.18-.611.4-.611.22 0 .4-.349.4-.776 0-.427.178-.887.395-1.021.534-.33.345-15.091-.195-15.27-.223-.074-.337-1.037-.259-2.172.08-1.147-.052-2.232-.3-2.48-.242-.242-.447-1.08-.454-1.861-.007-.781-.264-1.752-.572-2.159-.308-.406-.473-.965-.367-1.242.106-.277-.214-1.193-.711-2.037-.498-.843-.687-1.399-.421-1.234.266.165.484.109.484-.124 0-.233-.18-.424-.4-.424-.22 0-.4-.241-.4-.536 0-1.299-1.935-1.49-14.647-1.447-6.904.024-12.553.195-12.553.38" />
  </g>
</svg>