<svg id="svg" version="1.1" xmlns="http://www.w3.org/2000/svg" xmlns:xlink="http://www.w3.org/1999/xlink" width="400" height="400" viewBox="0, 0, 400,400"><g id="svgg"><path id="path0" d="M197.600 75.660 C 178.769 77.589,161.015 82.909,146.600 90.942 C 133.699 98.131,121.931 107.458,112.953 117.608 C 109.362 121.668,105.358 126.778,102.898 130.441 C 98.549 136.915,92.750 147.743,90.387 153.800 C 87.849 160.304,85.656 167.408,84.397 173.200 C 81.457 186.735,80.625 202.471,82.231 214.200 C 82.749 217.983,83.651 223.521,83.990 225.000 C 85.210 230.325,86.102 233.902,86.385 234.600 C 86.563 235.040,86.930 236.210,87.200 237.200 C 87.699 239.028,87.966 239.809,88.706 241.600 C 88.933 242.150,89.336 243.230,89.601 244.000 C 91.201 248.653,97.186 260.450,100.869 266.210 C 103.773 270.751,104.734 272.145,107.065 275.192 C 135.951 312.952,183.496 331.102,231.800 322.809 C 239.651 321.461,251.864 318.003,257.600 315.504 C 258.590 315.073,259.760 314.573,260.200 314.394 C 278.777 306.812,299.386 290.939,310.828 275.400 C 311.800 274.080,312.701 272.910,312.830 272.800 C 313.521 272.210,317.200 266.346,317.200 265.834 C 317.200 265.322,314.517 263.545,309.000 260.401 C 307.322 259.445,285.354 246.344,281.068 243.743 C 279.125 242.564,277.448 241.600,277.340 241.600 C 277.232 241.600,276.359 241.060,275.400 240.400 C 274.441 239.740,273.536 239.200,273.390 239.200 C 273.243 239.200,272.646 238.861,272.062 238.447 C 271.478 238.033,270.325 237.313,269.500 236.847 C 268.675 236.381,267.383 235.651,266.630 235.223 L 265.259 234.447 262.740 237.923 C 245.544 261.653,213.708 271.335,186.400 261.141 C 184.036 260.259,175.930 256.428,175.600 256.037 C 175.490 255.906,174.950 255.553,174.400 255.250 C 165.508 250.361,154.092 237.857,149.157 227.600 C 147.287 223.714,146.872 222.671,145.654 218.800 C 142.023 207.266,141.589 195.223,144.419 184.600 C 145.492 180.572,145.721 179.844,146.490 178.000 C 146.719 177.450,147.041 176.640,147.206 176.200 C 151.194 165.512,160.789 153.557,171.203 146.299 C 182.353 138.528,195.420 134.400,208.868 134.400 C 222.250 134.400,234.975 138.317,246.270 145.913 C 251.089 149.154,256.306 153.850,260.142 158.400 C 263.990 162.964,263.710 162.870,267.307 160.780 C 268.898 159.855,270.920 158.690,271.800 158.191 C 272.680 157.691,275.020 156.340,277.000 155.188 C 288.334 148.593,292.917 146.000,293.239 146.000 C 293.437 146.000,293.600 145.841,293.600 145.647 C 293.600 145.452,293.915 145.190,294.300 145.064 C 294.685 144.938,295.720 144.399,296.600 143.865 C 298.268 142.854,311.741 134.991,314.700 133.302 C 315.635 132.768,316.400 132.154,316.400 131.938 C 316.400 131.410,312.306 125.482,311.195 124.400 C 311.081 124.290,310.183 123.210,309.197 122.000 C 304.679 116.453,296.209 107.982,291.598 104.398 C 290.609 103.629,289.710 102.910,289.600 102.799 C 288.784 101.979,283.568 98.326,278.600 95.096 C 273.950 92.073,265.016 87.417,260.333 85.576 C 259.160 85.115,257.660 84.495,257.000 84.198 C 245.446 79.004,224.377 75.134,208.323 75.256 C 204.296 75.286,199.470 75.468,197.600 75.660 " stroke="none" fill="#fbfbfb" fill-rule="evenodd"></path><path id="path1" d="M178.700 0.273 C 176.555 0.359,174.800 0.602,174.800 0.814 C 174.800 1.027,173.540 1.200,172.000 1.200 C 170.400 1.200,169.200 1.371,169.200 1.600 C 169.200 1.822,168.133 2.000,166.800 2.000 C 165.467 2.000,164.400 2.178,164.400 2.400 C 164.400 2.620,163.421 2.800,162.224 2.800 C 161.027 2.800,159.936 2.980,159.800 3.200 C 159.664 3.420,158.933 3.600,158.176 3.600 C 157.419 3.600,156.800 3.780,156.800 4.000 C 156.800 4.220,155.900 4.400,154.800 4.400 C 153.700 4.400,152.800 4.580,152.800 4.800 C 152.800 5.020,152.080 5.200,151.200 5.200 C 150.320 5.200,149.600 5.380,149.600 5.600 C 149.600 5.820,148.880 6.000,148.000 6.000 C 147.120 6.000,146.400 6.180,146.400 6.400 C 146.400 6.620,145.860 6.800,145.200 6.800 C 144.540 6.800,144.000 6.980,144.000 7.200 C 144.000 7.420,143.370 7.600,142.600 7.600 C 141.830 7.600,141.200 7.780,141.200 8.000 C 141.200 8.220,140.771 8.400,140.246 8.400 C 139.222 8.400,135.447 9.440,134.305 10.037 C 133.923 10.237,133.259 10.400,132.829 10.400 C 132.399 10.400,131.936 10.580,131.800 10.800 C 131.664 11.020,131.203 11.200,130.776 11.200 C 130.349 11.200,130.000 11.380,130.000 11.600 C 130.000 11.820,129.460 12.000,128.800 12.000 C 128.140 12.000,127.600 12.180,127.600 12.400 C 127.600 12.620,127.150 12.800,126.600 12.800 C 126.050 12.800,125.600 12.980,125.600 13.200 C 125.600 13.420,125.240 13.600,124.800 13.600 C 124.360 13.600,124.000 13.780,124.000 14.000 C 124.000 14.220,123.460 14.400,122.800 14.400 C 122.140 14.400,121.600 14.580,121.600 14.800 C 121.600 15.020,121.240 15.200,120.800 15.200 C 120.360 15.200,120.000 15.380,120.000 15.600 C 120.000 15.820,119.640 16.000,119.200 16.000 C 118.760 16.000,118.400 16.180,118.400 16.400 C 118.400 16.620,118.040 16.800,117.600 16.800 C 117.160 16.800,116.800 16.980,116.800 17.200 C 116.800 17.420,116.260 17.600,115.600 17.600 C 114.940 17.600,114.400 17.780,114.400 18.000 C 114.400 18.220,114.040 18.400,113.600 18.400 C 113.160 18.400,112.799 18.535,112.799 18.700 C 112.798 18.865,111.808 19.450,110.600 20.000 C 109.392 20.550,108.402 21.135,108.401 21.300 C 108.401 21.465,108.040 21.600,107.600 21.600 C 107.160 21.600,106.800 21.780,106.800 22.000 C 106.800 22.220,106.480 22.400,106.088 22.400 C 105.697 22.400,105.117 22.760,104.800 23.200 C 104.483 23.640,103.903 24.000,103.512 24.000 C 103.120 24.000,102.800 24.180,102.800 24.400 C 102.800 24.620,102.536 24.800,102.214 24.800 C 101.401 24.800,98.800 26.076,98.800 26.474 C 98.800 26.653,98.440 26.800,98.000 26.800 C 97.560 26.800,97.200 26.980,97.200 27.200 C 97.200 27.420,96.964 27.600,96.675 27.600 C 96.387 27.600,95.802 27.915,95.375 28.300 C 94.949 28.685,94.060 29.269,93.400 29.597 C 92.740 29.926,91.909 30.511,91.553 30.897 C 91.197 31.284,90.652 31.600,90.341 31.600 C 90.031 31.600,89.517 31.960,89.200 32.400 C 88.883 32.840,88.343 33.200,88.000 33.200 C 87.657 33.200,87.117 33.560,86.800 34.000 C 86.483 34.440,85.975 34.800,85.672 34.800 C 85.369 34.800,84.617 35.340,84.000 36.000 C 83.383 36.660,82.631 37.200,82.328 37.200 C 82.025 37.200,81.517 37.560,81.200 38.000 C 80.883 38.440,80.375 38.800,80.072 38.800 C 79.769 38.800,79.017 39.340,78.400 40.000 C 77.783 40.660,77.119 41.200,76.923 41.200 C 76.727 41.200,75.899 41.830,75.082 42.600 C 74.266 43.370,73.409 44.000,73.177 44.000 C 72.945 44.000,71.696 45.080,70.400 46.400 C 69.104 47.720,67.849 48.800,67.609 48.800 C 67.370 48.800,65.194 50.825,62.774 53.300 C 57.490 58.703,58.703 57.490,53.300 62.774 C 50.825 65.194,48.800 67.372,48.800 67.613 C 48.800 67.855,47.900 68.929,46.800 70.000 C 45.700 71.071,44.800 72.146,44.800 72.387 C 44.800 72.629,44.170 73.457,43.400 74.227 C 42.630 74.997,42.000 75.779,42.000 75.965 C 42.000 76.151,41.280 77.045,40.400 77.952 C 39.520 78.859,38.800 79.831,38.800 80.112 C 38.800 80.393,38.440 80.883,38.000 81.200 C 37.560 81.517,37.200 82.025,37.200 82.328 C 37.200 82.631,36.660 83.383,36.000 84.000 C 35.340 84.617,34.800 85.369,34.800 85.672 C 34.800 85.975,34.440 86.483,34.000 86.800 C 33.560 87.117,33.200 87.657,33.200 88.000 C 33.200 88.343,32.840 88.883,32.400 89.200 C 31.960 89.517,31.600 90.031,31.600 90.341 C 31.600 90.652,31.284 91.197,30.897 91.553 C 30.511 91.909,29.926 92.740,29.597 93.400 C 29.269 94.060,28.685 94.949,28.300 95.375 C 27.915 95.802,27.600 96.387,27.600 96.675 C 27.600 96.964,27.420 97.200,27.200 97.200 C 26.980 97.200,26.800 97.560,26.800 98.000 C 26.800 98.440,26.653 98.800,26.474 98.800 C 26.076 98.800,24.800 101.401,24.800 102.214 C 24.800 102.536,24.620 102.800,24.400 102.800 C 24.180 102.800,24.000 103.160,24.000 103.600 C 24.000 104.040,23.820 104.400,23.600 104.400 C 23.380 104.400,23.200 104.720,23.200 105.112 C 23.200 105.503,22.840 106.083,22.400 106.400 C 21.960 106.717,21.600 107.297,21.600 107.688 C 21.600 108.080,21.454 108.400,21.275 108.400 C 21.096 108.400,20.702 109.030,20.400 109.800 C 20.098 110.570,19.704 111.200,19.525 111.200 C 19.346 111.200,19.200 111.560,19.200 112.000 C 19.200 112.440,19.020 112.800,18.800 112.800 C 18.580 112.800,18.400 113.340,18.400 114.000 C 18.400 114.660,18.220 115.200,18.000 115.200 C 17.780 115.200,17.600 115.560,17.600 116.000 C 17.600 116.440,17.420 116.800,17.200 116.800 C 16.980 116.800,16.800 117.160,16.800 117.600 C 16.800 118.040,16.620 118.400,16.400 118.400 C 16.180 118.400,16.000 118.760,16.000 119.200 C 16.000 119.640,15.820 120.000,15.600 120.000 C 15.380 120.000,15.200 120.540,15.200 121.200 C 15.200 121.860,15.020 122.400,14.800 122.400 C 14.580 122.400,14.400 122.760,14.400 123.200 C 14.400 123.640,14.220 124.000,14.000 124.000 C 13.780 124.000,13.600 124.360,13.600 124.800 C 13.600 125.240,13.420 125.600,13.200 125.600 C 12.980 125.600,12.800 126.039,12.800 126.576 C 12.800 127.113,12.620 127.664,12.400 127.800 C 12.180 127.936,12.000 128.487,12.000 129.024 C 12.000 129.561,11.820 130.000,11.600 130.000 C 11.380 130.000,11.200 130.349,11.200 130.776 C 11.200 131.203,11.020 131.664,10.800 131.800 C 10.580 131.936,10.400 132.476,10.400 133.000 C 10.400 133.524,10.220 134.064,10.000 134.200 C 9.780 134.336,9.600 134.851,9.600 135.344 C 9.600 135.837,9.421 136.419,9.202 136.638 C 8.984 136.856,8.688 138.152,8.546 139.518 C 8.403 140.883,8.132 142.000,7.943 142.000 C 7.754 142.000,7.600 142.450,7.600 143.000 C 7.600 143.550,7.420 144.000,7.200 144.000 C 6.980 144.000,6.800 144.720,6.800 145.600 C 6.800 146.480,6.620 147.200,6.400 147.200 C 6.180 147.200,6.000 147.740,6.000 148.400 C 6.000 149.060,5.820 149.600,5.600 149.600 C 5.380 149.600,5.200 150.320,5.200 151.200 C 5.200 152.080,5.020 152.800,4.800 152.800 C 4.580 152.800,4.400 153.700,4.400 154.800 C 4.400 155.900,4.220 156.800,4.000 156.800 C 3.780 156.800,3.600 157.610,3.600 158.600 C 3.600 159.590,3.420 160.400,3.200 160.400 C 2.980 160.400,2.800 161.300,2.800 162.400 C 2.800 163.500,2.620 164.400,2.400 164.400 C 2.178 164.400,2.000 165.467,2.000 166.800 C 2.000 168.133,1.822 169.200,1.600 169.200 C 1.372 169.200,1.200 170.389,1.200 171.967 C 1.200 173.824,1.036 174.788,0.700 174.900 C -0.032 175.144,-0.032 224.856,0.700 225.100 C 1.036 225.212,1.200 226.176,1.200 228.033 C 1.200 229.611,1.372 230.800,1.600 230.800 C 1.822 230.800,2.000 231.867,2.000 233.200 C 2.000 234.533,2.178 235.600,2.400 235.600 C 2.620 235.600,2.800 236.579,2.800 237.776 C 2.800 238.973,2.980 240.064,3.200 240.200 C 3.420 240.336,3.600 241.067,3.600 241.824 C 3.600 242.581,3.780 243.200,4.000 243.200 C 4.220 243.200,4.400 244.100,4.400 245.200 C 4.400 246.300,4.580 247.200,4.800 247.200 C 5.020 247.200,5.200 247.920,5.200 248.800 C 5.200 249.680,5.380 250.400,5.600 250.400 C 5.820 250.400,6.000 251.120,6.000 252.000 C 6.000 252.880,6.180 253.600,6.400 253.600 C 6.620 253.600,6.800 254.140,6.800 254.800 C 6.800 255.460,6.980 256.000,7.200 256.000 C 7.420 256.000,7.600 256.630,7.600 257.400 C 7.600 258.170,7.780 258.800,8.000 258.800 C 8.220 258.800,8.400 259.229,8.400 259.754 C 8.400 260.778,9.440 264.553,10.037 265.695 C 10.237 266.077,10.400 266.741,10.400 267.171 C 10.400 267.601,10.580 268.064,10.800 268.200 C 11.020 268.336,11.200 268.797,11.200 269.224 C 11.200 269.651,11.380 270.000,11.600 270.000 C 11.820 270.000,12.000 270.439,12.000 270.976 C 12.000 271.513,12.180 272.064,12.400 272.200 C 12.620 272.336,12.800 272.887,12.800 273.424 C 12.800 273.961,12.980 274.400,13.200 274.400 C 13.420 274.400,13.600 274.760,13.600 275.200 C 13.600 275.640,13.780 276.000,14.000 276.000 C 14.220 276.000,14.400 276.540,14.400 277.200 C 14.400 277.860,14.580 278.400,14.800 278.400 C 15.020 278.400,15.200 278.760,15.200 279.200 C 15.200 279.640,15.380 280.000,15.600 280.000 C 15.820 280.000,16.000 280.360,16.000 280.800 C 16.000 281.240,16.180 281.600,16.400 281.600 C 16.620 281.600,16.800 281.960,16.800 282.400 C 16.800 282.840,16.980 283.200,17.200 283.200 C 17.420 283.200,17.600 283.740,17.600 284.400 C 17.600 285.060,17.780 285.600,18.000 285.600 C 18.220 285.600,18.400 285.960,18.400 286.400 C 18.400 286.840,18.535 287.201,18.700 287.201 C 18.865 287.202,19.450 288.192,20.000 289.400 C 20.550 290.608,21.135 291.598,21.300 291.599 C 21.465 291.599,21.600 291.960,21.600 292.400 C 21.600 292.840,21.780 293.200,22.000 293.200 C 22.220 293.200,22.400 293.520,22.400 293.912 C 22.400 294.303,22.760 294.883,23.200 295.200 C 23.640 295.517,24.000 296.097,24.000 296.488 C 24.000 296.880,24.180 297.200,24.400 297.200 C 24.620 297.200,24.800 297.464,24.800 297.786 C 24.800 298.599,26.076 301.200,26.474 301.200 C 26.653 301.200,26.800 301.560,26.800 302.000 C 26.800 302.440,26.980 302.800,27.200 302.800 C 27.420 302.800,27.600 303.036,27.600 303.325 C 27.600 303.613,27.915 304.198,28.300 304.625 C 28.685 305.051,29.269 305.940,29.597 306.600 C 29.926 307.260,30.511 308.091,30.897 308.447 C 31.284 308.803,31.600 309.348,31.600 309.659 C 31.600 309.969,31.960 310.483,32.400 310.800 C 32.840 311.117,33.200 311.657,33.200 312.000 C 33.200 312.343,33.560 312.883,34.000 313.200 C 34.440 313.517,34.800 314.025,34.800 314.328 C 34.800 314.631,35.340 315.383,36.000 316.000 C 36.660 316.617,37.200 317.369,37.200 317.672 C 37.200 317.975,37.560 318.483,38.000 318.800 C 38.440 319.117,38.800 319.625,38.800 319.928 C 38.800 320.231,39.340 320.983,40.000 321.600 C 40.660 322.217,41.200 322.903,41.200 323.126 C 41.200 323.349,41.830 324.180,42.600 324.973 C 43.370 325.766,44.000 326.601,44.000 326.829 C 44.000 327.058,45.080 328.304,46.400 329.600 C 47.720 330.896,48.800 332.151,48.800 332.391 C 48.800 332.630,50.825 334.806,53.300 337.226 C 58.703 342.510,57.490 341.297,62.774 346.700 C 65.194 349.175,67.372 351.200,67.613 351.200 C 67.855 351.200,68.929 352.100,70.000 353.200 C 71.071 354.300,72.154 355.200,72.405 355.200 C 72.657 355.200,73.554 355.920,74.400 356.800 C 75.246 357.680,76.125 358.400,76.355 358.400 C 76.585 358.400,77.403 359.030,78.173 359.800 C 78.943 360.570,79.810 361.200,80.098 361.200 C 80.387 361.200,80.883 361.560,81.200 362.000 C 81.517 362.440,82.025 362.800,82.328 362.800 C 82.631 362.800,83.383 363.340,84.000 364.000 C 84.617 364.660,85.369 365.200,85.672 365.200 C 85.975 365.200,86.483 365.560,86.800 366.000 C 87.117 366.440,87.657 366.800,88.000 366.800 C 88.343 366.800,88.883 367.160,89.200 367.600 C 89.517 368.040,90.031 368.400,90.341 368.400 C 90.652 368.400,91.197 368.716,91.553 369.103 C 91.909 369.489,92.740 370.074,93.400 370.403 C 94.060 370.731,94.949 371.315,95.375 371.700 C 95.802 372.085,96.387 372.400,96.675 372.400 C 96.964 372.400,97.200 372.580,97.200 372.800 C 97.200 373.020,97.478 373.200,97.817 373.200 C 98.156 373.200,98.817 373.558,99.287 373.995 C 99.756 374.432,100.739 374.902,101.470 375.040 C 102.202 375.177,102.800 375.449,102.800 375.645 C 102.800 375.840,103.160 376.000,103.600 376.000 C 104.040 376.000,104.400 376.180,104.400 376.400 C 104.400 376.620,104.720 376.800,105.112 376.800 C 105.503 376.800,106.083 377.160,106.400 377.600 C 106.717 378.040,107.297 378.400,107.688 378.400 C 108.080 378.400,108.400 378.546,108.400 378.725 C 108.400 378.904,109.030 379.298,109.800 379.600 C 110.570 379.902,111.200 380.296,111.200 380.475 C 111.200 380.654,111.560 380.800,112.000 380.800 C 112.440 380.800,112.800 380.980,112.800 381.200 C 112.800 381.420,113.340 381.600,114.000 381.600 C 114.660 381.600,115.200 381.780,115.200 382.000 C 115.200 382.220,115.560 382.400,116.000 382.400 C 116.440 382.400,116.800 382.580,116.800 382.800 C 116.800 383.020,117.160 383.200,117.600 383.200 C 118.040 383.200,118.400 383.380,118.400 383.600 C 118.400 383.820,118.760 384.000,119.200 384.000 C 119.640 384.000,120.000 384.180,120.000 384.400 C 120.000 384.620,120.540 384.800,121.200 384.800 C 121.860 384.800,122.400 384.980,122.400 385.200 C 122.400 385.420,122.760 385.600,123.200 385.600 C 123.640 385.600,124.000 385.780,124.000 386.000 C 124.000 386.220,124.360 386.400,124.800 386.400 C 125.240 386.400,125.600 386.580,125.600 386.800 C 125.600 387.020,126.039 387.200,126.576 387.200 C 127.113 387.200,127.664 387.380,127.800 387.600 C 127.936 387.820,128.487 388.000,129.024 388.000 C 129.561 388.000,130.000 388.180,130.000 388.400 C 130.000 388.620,130.349 388.800,130.776 388.800 C 131.203 388.800,131.664 388.980,131.800 389.200 C 131.936 389.420,132.476 389.600,133.000 389.600 C 133.524 389.600,134.064 389.780,134.200 390.000 C 134.336 390.220,134.851 390.400,135.344 390.400 C 135.837 390.400,136.419 390.579,136.638 390.798 C 136.856 391.016,138.152 391.312,139.518 391.454 C 140.883 391.597,142.000 391.868,142.000 392.057 C 142.000 392.246,142.450 392.400,143.000 392.400 C 143.550 392.400,144.000 392.580,144.000 392.800 C 144.000 393.020,144.720 393.200,145.600 393.200 C 146.480 393.200,147.200 393.380,147.200 393.600 C 147.200 393.820,147.740 394.000,148.400 394.000 C 149.060 394.000,149.600 394.180,149.600 394.400 C 149.600 394.620,150.320 394.800,151.200 394.800 C 152.080 394.800,152.800 394.980,152.800 395.200 C 152.800 395.420,153.700 395.600,154.800 395.600 C 155.900 395.600,156.800 395.780,156.800 396.000 C 156.800 396.220,157.610 396.400,158.600 396.400 C 159.590 396.400,160.400 396.580,160.400 396.800 C 160.400 397.020,161.300 397.200,162.400 397.200 C 163.500 397.200,164.400 397.380,164.400 397.600 C 164.400 397.822,165.467 398.000,166.800 398.000 C 168.133 398.000,169.200 398.178,169.200 398.400 C 169.200 398.628,170.389 398.800,171.967 398.800 C 173.824 398.800,174.788 398.964,174.900 399.300 C 175.144 400.032,224.856 400.032,225.100 399.300 C 225.212 398.964,226.176 398.800,228.033 398.800 C 229.611 398.800,230.800 398.628,230.800 398.400 C 230.800 398.178,231.867 398.000,233.200 398.000 C 234.533 398.000,235.600 397.822,235.600 397.600 C 235.600 397.380,236.579 397.200,237.776 397.200 C 238.973 397.200,240.064 397.020,240.200 396.800 C 240.336 396.580,241.067 396.400,241.824 396.400 C 242.581 396.400,243.200 396.220,243.200 396.000 C 243.200 395.780,244.100 395.600,245.200 395.600 C 246.300 395.600,247.200 395.420,247.200 395.200 C 247.200 394.980,247.920 394.800,248.800 394.800 C 249.680 394.800,250.400 394.620,250.400 394.400 C 250.400 394.180,251.120 394.000,252.000 394.000 C 252.880 394.000,253.600 393.820,253.600 393.600 C 253.600 393.380,254.140 393.200,254.800 393.200 C 255.460 393.200,256.000 393.020,256.000 392.800 C 256.000 392.580,256.630 392.400,257.400 392.400 C 258.170 392.400,258.800 392.220,258.800 392.000 C 258.800 391.780,259.229 391.600,259.754 391.600 C 260.778 391.600,264.553 390.560,265.695 389.963 C 266.077 389.763,266.741 389.600,267.171 389.600 C 267.601 389.600,268.064 389.420,268.200 389.200 C 268.336 388.980,268.797 388.800,269.224 388.800 C 269.651 388.800,270.000 388.620,270.000 388.400 C 270.000 388.180,270.439 388.000,270.976 388.000 C 271.513 388.000,272.064 387.820,272.200 387.600 C 272.336 387.380,272.887 387.200,273.424 387.200 C 273.961 387.200,274.400 387.020,274.400 386.800 C 274.400 386.580,274.760 386.400,275.200 386.400 C 275.640 386.400,276.000 386.220,276.000 386.000 C 276.000 385.780,276.540 385.600,277.200 385.600 C 277.860 385.600,278.400 385.420,278.400 385.200 C 278.400 384.980,278.760 384.800,279.200 384.800 C 279.640 384.800,280.000 384.620,280.000 384.400 C 280.000 384.180,280.360 384.000,280.800 384.000 C 281.240 384.000,281.600 383.820,281.600 383.600 C 281.600 383.380,281.960 383.200,282.400 383.200 C 282.840 383.200,283.200 383.020,283.200 382.800 C 283.200 382.580,283.740 382.400,284.400 382.400 C 285.060 382.400,285.600 382.220,285.600 382.000 C 285.600 381.780,285.960 381.600,286.400 381.600 C 286.840 381.600,287.201 381.465,287.201 381.300 C 287.202 381.135,288.192 380.550,289.400 380.000 C 290.608 379.450,291.598 378.865,291.599 378.700 C 291.599 378.535,291.960 378.400,292.400 378.400 C 292.840 378.400,293.200 378.220,293.200 378.000 C 293.200 377.780,293.520 377.600,293.912 377.600 C 294.303 377.600,294.883 377.240,295.200 376.800 C 295.517 376.360,296.097 376.000,296.488 376.000 C 296.880 376.000,297.200 375.820,297.200 375.600 C 297.200 375.380,297.464 375.200,297.786 375.200 C 298.599 375.200,301.200 373.924,301.200 373.526 C 301.200 373.347,301.560 373.200,302.000 373.200 C 302.440 373.200,302.800 373.020,302.800 372.800 C 302.800 372.580,303.036 372.400,303.325 372.400 C 303.613 372.400,304.198 372.085,304.625 371.700 C 305.051 371.315,305.940 370.731,306.600 370.403 C 307.260 370.074,308.091 369.489,308.447 369.103 C 308.803 368.716,309.348 368.400,309.659 368.400 C 309.969 368.400,310.483 368.040,310.800 367.600 C 311.117 367.160,311.657 366.800,312.000 366.800 C 312.343 366.800,312.883 366.440,313.200 366.000 C 313.517 365.560,314.025 365.200,314.328 365.200 C 314.631 365.200,315.383 364.660,316.000 364.000 C 316.617 363.340,317.369 362.800,317.672 362.800 C 317.975 362.800,318.483 362.440,318.800 362.000 C 319.117 361.560,319.625 361.200,319.928 361.200 C 320.231 361.200,320.983 360.660,321.600 360.000 C 322.217 359.340,322.934 358.800,323.194 358.800 C 323.454 358.800,324.279 358.170,325.026 357.400 C 325.774 356.630,326.579 356.000,326.815 356.000 C 327.051 356.000,328.304 354.920,329.600 353.600 C 330.896 352.280,332.151 351.200,332.391 351.200 C 332.630 351.200,334.806 349.175,337.226 346.700 C 342.510 341.297,341.297 342.510,346.700 337.226 C 349.175 334.806,351.200 332.628,351.200 332.387 C 351.200 332.145,352.100 331.071,353.200 330.000 C 354.300 328.929,355.204 327.815,355.209 327.526 C 355.214 327.237,355.934 326.381,356.809 325.624 C 357.684 324.867,358.400 324.018,358.400 323.737 C 358.400 323.456,359.030 322.597,359.800 321.827 C 360.570 321.057,361.200 320.190,361.200 319.902 C 361.200 319.613,361.560 319.117,362.000 318.800 C 362.440 318.483,362.800 317.975,362.800 317.672 C 362.800 317.369,363.340 316.617,364.000 316.000 C 364.660 315.383,365.200 314.631,365.200 314.328 C 365.200 314.025,365.560 313.517,366.000 313.200 C 366.440 312.883,366.800 312.343,366.800 312.000 C 366.800 311.657,367.160 311.117,367.600 310.800 C 368.040 310.483,368.400 309.922,368.400 309.554 C 368.400 309.187,368.656 308.787,368.970 308.667 C 369.283 308.547,369.862 307.762,370.257 306.924 C 370.651 306.086,371.295 305.051,371.687 304.625 C 372.079 304.198,372.400 303.613,372.400 303.325 C 372.400 303.036,372.580 302.800,372.800 302.800 C 373.020 302.800,373.200 302.522,373.200 302.183 C 373.200 301.844,373.558 301.183,373.995 300.713 C 374.432 300.244,374.902 299.261,375.040 298.530 C 375.177 297.798,375.449 297.200,375.645 297.200 C 375.840 297.200,376.000 296.840,376.000 296.400 C 376.000 295.960,376.180 295.600,376.400 295.600 C 376.620 295.600,376.800 295.280,376.800 294.888 C 376.800 294.497,377.160 293.917,377.600 293.600 C 378.040 293.283,378.400 292.703,378.400 292.312 C 378.400 291.920,378.546 291.600,378.725 291.600 C 378.904 291.600,379.298 290.970,379.600 290.200 C 379.902 289.430,380.296 288.800,380.475 288.800 C 380.654 288.800,380.800 288.440,380.800 288.000 C 380.800 287.560,380.980 287.200,381.200 287.200 C 381.420 287.200,381.600 286.660,381.600 286.000 C 381.600 285.340,381.780 284.800,382.000 284.800 C 382.220 284.800,382.400 284.440,382.400 284.000 C 382.400 283.560,382.580 283.200,382.800 283.200 C 383.020 283.200,383.200 282.840,383.200 282.400 C 383.200 281.960,383.380 281.600,383.600 281.600 C 383.820 281.600,384.000 281.240,384.000 280.800 C 384.000 280.360,384.180 280.000,384.400 280.000 C 384.620 280.000,384.800 279.460,384.800 278.800 C 384.800 278.140,384.980 277.600,385.200 277.600 C 385.420 277.600,385.600 277.240,385.600 276.800 C 385.600 276.360,385.780 276.000,386.000 276.000 C 386.220 276.000,386.400 275.640,386.400 275.200 C 386.400 274.760,386.580 274.400,386.800 274.400 C 387.020 274.400,387.200 273.961,387.200 273.424 C 387.200 272.887,387.380 272.336,387.600 272.200 C 387.820 272.064,388.000 271.513,388.000 270.976 C 388.000 270.439,388.180 270.000,388.400 270.000 C 388.620 270.000,388.800 269.651,388.800 269.224 C 388.800 268.797,388.980 268.336,389.200 268.200 C 389.420 268.064,389.600 267.524,389.600 267.000 C 389.600 266.476,389.780 265.936,390.000 265.800 C 390.220 265.664,390.400 265.124,390.400 264.600 C 390.400 264.076,390.572 263.541,390.782 263.411 C 390.991 263.282,391.285 262.101,391.433 260.788 C 391.582 259.475,391.860 258.400,392.052 258.400 C 392.243 258.400,392.400 257.860,392.400 257.200 C 392.400 256.540,392.580 256.000,392.800 256.000 C 393.020 256.000,393.200 255.280,393.200 254.400 C 393.200 253.520,393.380 252.800,393.600 252.800 C 393.820 252.800,394.000 252.260,394.000 251.600 C 394.000 250.940,394.180 250.400,394.400 250.400 C 394.620 250.400,394.800 249.680,394.800 248.800 C 394.800 247.920,394.980 247.200,395.200 247.200 C 395.420 247.200,395.600 246.300,395.600 245.200 C 395.600 244.100,395.780 243.200,396.000 243.200 C 396.220 243.200,396.400 242.390,396.400 241.400 C 396.400 240.410,396.580 239.600,396.800 239.600 C 397.020 239.600,397.200 238.700,397.200 237.600 C 397.200 236.500,397.380 235.600,397.600 235.600 C 397.822 235.600,398.000 234.533,398.000 233.200 C 398.000 231.867,398.178 230.800,398.400 230.800 C 398.628 230.800,398.800 229.611,398.800 228.033 C 398.800 226.176,398.964 225.212,399.300 225.100 C 399.693 224.969,399.800 219.591,399.800 200.000 C 399.800 180.409,399.693 175.031,399.300 174.900 C 398.964 174.788,398.800 173.824,398.800 171.967 C 398.800 170.389,398.628 169.200,398.400 169.200 C 398.178 169.200,398.000 168.133,398.000 166.800 C 398.000 165.467,397.822 164.400,397.600 164.400 C 397.380 164.400,397.200 163.421,397.200 162.224 C 397.200 161.027,397.020 159.936,396.800 159.800 C 396.580 159.664,396.400 158.933,396.400 158.176 C 396.400 157.419,396.220 156.800,396.000 156.800 C 395.780 156.800,395.600 155.900,395.600 154.800 C 395.600 153.700,395.420 152.800,395.200 152.800 C 394.980 152.800,394.800 152.080,394.800 151.200 C 394.800 150.320,394.620 149.600,394.400 149.600 C 394.180 149.600,394.000 148.880,394.000 148.000 C 394.000 147.120,393.820 146.400,393.600 146.400 C 393.380 146.400,393.200 145.860,393.200 145.200 C 393.200 144.540,393.020 144.000,392.800 144.000 C 392.580 144.000,392.400 143.370,392.400 142.600 C 392.400 141.830,392.220 141.200,392.000 141.200 C 391.780 141.200,391.600 140.771,391.600 140.246 C 391.600 139.222,390.560 135.447,389.963 134.305 C 389.763 133.923,389.600 133.259,389.600 132.829 C 389.600 132.399,389.420 131.936,389.200 131.800 C 388.980 131.664,388.800 131.203,388.800 130.776 C 388.800 130.349,388.620 130.000,388.400 130.000 C 388.180 130.000,388.000 129.460,388.000 128.800 C 388.000 128.140,387.820 127.600,387.600 127.600 C 387.380 127.600,387.200 127.150,387.200 126.600 C 387.200 126.050,387.020 125.600,386.800 125.600 C 386.580 125.600,386.400 125.240,386.400 124.800 C 386.400 124.360,386.220 124.000,386.000 124.000 C 385.780 124.000,385.600 123.460,385.600 122.800 C 385.600 122.140,385.420 121.600,385.200 121.600 C 384.980 121.600,384.800 121.240,384.800 120.800 C 384.800 120.360,384.620 120.000,384.400 120.000 C 384.180 120.000,384.000 119.640,384.000 119.200 C 384.000 118.760,383.820 118.400,383.600 118.400 C 383.380 118.400,383.200 118.040,383.200 117.600 C 383.200 117.160,383.020 116.800,382.800 116.800 C 382.580 116.800,382.400 116.260,382.400 115.600 C 382.400 114.940,382.220 114.400,382.000 114.400 C 381.780 114.400,381.600 114.040,381.600 113.600 C 381.600 113.160,381.465 112.799,381.300 112.799 C 381.135 112.798,380.550 111.808,380.000 110.600 C 379.450 109.392,378.865 108.402,378.700 108.401 C 378.535 108.401,378.400 108.040,378.400 107.600 C 378.400 107.160,378.220 106.800,378.000 106.800 C 377.780 106.800,377.600 106.480,377.600 106.088 C 377.600 105.697,377.240 105.117,376.800 104.800 C 376.360 104.483,376.000 103.903,376.000 103.512 C 376.000 103.120,375.820 102.800,375.600 102.800 C 375.380 102.800,375.200 102.536,375.200 102.214 C 375.200 101.401,373.924 98.800,373.526 98.800 C 373.347 98.800,373.200 98.440,373.200 98.000 C 373.200 97.560,373.020 97.200,372.800 97.200 C 372.580 97.200,372.400 96.964,372.400 96.675 C 372.400 96.387,372.085 95.802,371.700 95.375 C 371.315 94.949,370.731 94.060,370.403 93.400 C 370.074 92.740,369.489 91.909,369.103 91.553 C 368.716 91.197,368.400 90.652,368.400 90.341 C 368.400 90.031,368.040 89.517,367.600 89.200 C 367.160 88.883,366.800 88.343,366.800 88.000 C 366.800 87.657,366.440 87.117,366.000 86.800 C 365.560 86.483,365.200 85.975,365.200 85.672 C 365.200 85.369,364.660 84.617,364.000 84.000 C 363.340 83.383,362.800 82.631,362.800 82.328 C 362.800 82.025,362.440 81.517,362.000 81.200 C 361.560 80.883,361.200 80.375,361.200 80.072 C 361.200 79.769,360.660 79.017,360.000 78.400 C 359.340 77.783,358.800 77.087,358.800 76.853 C 358.800 76.618,358.170 75.797,357.400 75.027 C 356.630 74.257,356.000 73.431,356.000 73.191 C 356.000 72.952,354.920 71.696,353.600 70.400 C 352.280 69.104,351.200 67.849,351.200 67.609 C 351.200 67.370,349.175 65.194,346.700 62.774 C 341.297 57.490,342.510 58.703,337.226 53.300 C 334.806 50.825,332.628 48.800,332.387 48.800 C 332.145 48.800,331.071 47.900,330.000 46.800 C 328.929 45.700,327.815 44.796,327.526 44.791 C 327.237 44.787,326.462 44.157,325.804 43.391 C 325.146 42.626,324.403 42.000,324.152 42.000 C 323.901 42.000,322.955 41.280,322.048 40.400 C 321.141 39.520,320.169 38.800,319.888 38.800 C 319.607 38.800,319.117 38.440,318.800 38.000 C 318.483 37.560,317.975 37.200,317.672 37.200 C 317.369 37.200,316.617 36.660,316.000 36.000 C 315.383 35.340,314.631 34.800,314.328 34.800 C 314.025 34.800,313.517 34.440,313.200 34.000 C 312.883 33.560,312.343 33.200,312.000 33.200 C 311.657 33.200,311.117 32.840,310.800 32.400 C 310.483 31.960,309.922 31.600,309.554 31.600 C 309.187 31.600,308.787 31.344,308.667 31.030 C 308.547 30.717,307.762 30.138,306.924 29.743 C 306.086 29.349,305.051 28.705,304.625 28.313 C 304.198 27.921,303.613 27.600,303.325 27.600 C 303.036 27.600,302.800 27.420,302.800 27.200 C 302.800 26.980,302.440 26.800,302.000 26.800 C 301.560 26.800,301.200 26.653,301.200 26.474 C 301.200 26.076,298.599 24.800,297.786 24.800 C 297.464 24.800,297.200 24.620,297.200 24.400 C 297.200 24.180,296.840 24.000,296.400 24.000 C 295.960 24.000,295.600 23.820,295.600 23.600 C 295.600 23.380,295.280 23.200,294.888 23.200 C 294.497 23.200,293.917 22.840,293.600 22.400 C 293.283 21.960,292.703 21.600,292.312 21.600 C 291.920 21.600,291.600 21.454,291.600 21.275 C 291.600 21.096,290.970 20.702,290.200 20.400 C 289.430 20.098,288.800 19.704,288.800 19.525 C 288.800 19.346,288.440 19.200,288.000 19.200 C 287.560 19.200,287.200 19.020,287.200 18.800 C 287.200 18.580,286.660 18.400,286.000 18.400 C 285.340 18.400,284.800 18.220,284.800 18.000 C 284.800 17.780,284.440 17.600,284.000 17.600 C 283.560 17.600,283.200 17.420,283.200 17.200 C 283.200 16.980,282.840 16.800,282.400 16.800 C 281.960 16.800,281.600 16.620,281.600 16.400 C 281.600 16.180,281.240 16.000,280.800 16.000 C 280.360 16.000,280.000 15.820,280.000 15.600 C 280.000 15.380,279.460 15.200,278.800 15.200 C 278.140 15.200,277.600 15.020,277.600 14.800 C 277.600 14.580,277.240 14.400,276.800 14.400 C 276.360 14.400,276.000 14.220,276.000 14.000 C 276.000 13.780,275.640 13.600,275.200 13.600 C 274.760 13.600,274.400 13.420,274.400 13.200 C 274.400 12.980,273.961 12.800,273.424 12.800 C 272.887 12.800,272.336 12.620,272.200 12.400 C 272.064 12.180,271.513 12.000,270.976 12.000 C 270.439 12.000,270.000 11.820,270.000 11.600 C 270.000 11.380,269.651 11.200,269.224 11.200 C 268.797 11.200,268.336 11.020,268.200 10.800 C 268.064 10.580,267.524 10.400,267.000 10.400 C 266.476 10.400,265.936 10.220,265.800 10.000 C 265.664 9.780,265.124 9.600,264.600 9.600 C 264.076 9.600,263.541 9.428,263.411 9.218 C 263.282 9.009,262.101 8.715,260.788 8.567 C 259.475 8.418,258.400 8.140,258.400 7.948 C 258.400 7.757,257.860 7.600,257.200 7.600 C 256.540 7.600,256.000 7.420,256.000 7.200 C 256.000 6.980,255.280 6.800,254.400 6.800 C 253.520 6.800,252.800 6.620,252.800 6.400 C 252.800 6.180,252.260 6.000,251.600 6.000 C 250.940 6.000,250.400 5.820,250.400 5.600 C 250.400 5.380,249.680 5.200,248.800 5.200 C 247.920 5.200,247.200 5.020,247.200 4.800 C 247.200 4.580,246.300 4.400,245.200 4.400 C 244.100 4.400,243.200 4.220,243.200 4.000 C 243.200 3.780,242.390 3.600,241.400 3.600 C 240.410 3.600,239.600 3.420,239.600 3.200 C 239.600 2.980,238.700 2.800,237.600 2.800 C 236.500 2.800,235.600 2.620,235.600 2.400 C 235.600 2.178,234.533 2.000,233.200 2.000 C 231.867 2.000,230.800 1.822,230.800 1.600 C 230.800 1.372,229.611 1.200,228.033 1.200 C 226.238 1.200,225.211 1.032,225.107 0.720 C 224.948 0.244,188.291 -0.109,178.700 0.273 M224.800 75.569 C 233.543 76.831,239.442 78.010,245.000 79.606 C 245.880 79.859,247.097 80.162,247.705 80.279 C 248.313 80.396,248.908 80.651,249.029 80.846 C 249.149 81.041,249.573 81.200,249.970 81.200 C 250.696 81.200,251.372 81.442,258.400 84.211 C 263.125 86.072,271.666 90.163,273.800 91.586 C 274.680 92.173,276.034 92.946,276.810 93.303 C 277.585 93.660,278.755 94.413,279.410 94.975 C 280.064 95.538,280.739 95.999,280.910 96.000 C 281.349 96.000,289.391 101.650,290.000 102.386 C 290.110 102.519,290.740 103.043,291.400 103.550 C 295.060 106.363,303.967 114.954,307.469 119.049 C 311.188 123.397,311.626 123.935,312.793 125.600 C 313.332 126.370,313.975 127.209,314.222 127.463 C 315.255 128.532,317.247 132.001,317.029 132.352 C 316.812 132.705,312.070 135.569,308.800 137.324 C 308.030 137.738,307.006 138.325,306.526 138.630 C 306.045 138.935,305.034 139.531,304.280 139.955 C 303.526 140.378,302.480 140.967,301.955 141.262 C 301.430 141.558,300.910 141.890,300.800 142.000 C 300.690 142.110,300.170 142.442,299.645 142.738 C 299.120 143.033,298.085 143.618,297.345 144.038 C 296.605 144.457,295.325 145.181,294.500 145.647 C 293.675 146.113,292.522 146.833,291.938 147.247 C 291.354 147.661,290.800 148.000,290.707 148.000 C 290.615 148.000,287.253 149.890,283.238 152.200 C 279.222 154.510,275.771 156.400,275.569 156.400 C 275.366 156.400,275.200 156.559,275.200 156.753 C 275.200 156.948,274.885 157.210,274.500 157.336 C 274.115 157.462,273.035 158.023,272.100 158.582 C 267.973 161.053,266.897 161.670,265.263 162.507 L 263.526 163.396 262.742 162.398 C 260.007 158.917,259.046 157.832,255.806 154.569 C 253.822 152.572,250.670 149.816,248.800 148.445 C 246.930 147.074,245.116 145.738,244.770 145.476 C 244.013 144.904,241.451 143.404,238.955 142.072 C 237.452 141.270,233.713 139.600,233.421 139.600 C 233.256 139.600,232.554 139.351,231.860 139.047 C 219.456 133.604,198.967 133.841,184.600 139.595 C 175.998 143.040,165.850 150.135,160.187 156.665 C 158.882 158.169,157.542 159.673,157.208 160.006 C 156.873 160.339,156.420 160.892,156.200 161.236 C 155.980 161.579,154.923 163.172,153.852 164.775 C 150.900 169.191,147.871 175.440,146.375 180.200 C 145.891 181.740,145.351 183.360,145.175 183.800 C 144.999 184.240,144.746 185.230,144.613 186.000 C 144.479 186.770,144.157 188.570,143.896 190.000 C 142.994 194.947,143.300 208.068,144.421 212.500 C 145.559 217.001,146.104 218.855,146.800 220.600 C 146.976 221.040,147.348 222.030,147.628 222.800 C 148.411 224.953,151.154 230.360,152.653 232.708 C 153.394 233.867,154.000 234.992,154.000 235.208 C 154.000 235.423,154.141 235.600,154.314 235.600 C 154.486 235.600,154.943 236.133,155.328 236.785 C 155.713 237.437,156.248 238.202,156.516 238.485 C 156.784 238.768,157.811 239.990,158.797 241.200 C 164.939 248.733,177.852 257.836,186.000 260.378 C 186.990 260.686,187.971 261.088,188.180 261.270 C 188.389 261.451,188.963 261.600,189.456 261.600 C 189.949 261.600,190.452 261.760,190.573 261.956 C 190.694 262.151,191.379 262.408,192.096 262.527 C 192.813 262.645,194.210 262.940,195.200 263.183 C 203.750 265.274,216.038 265.127,224.600 262.830 C 227.703 261.998,229.466 261.483,230.200 261.195 C 230.640 261.022,231.630 260.660,232.400 260.391 C 239.825 257.793,248.849 251.949,255.201 245.625 C 259.770 241.078,260.966 239.682,263.544 235.900 C 265.153 233.538,264.985 233.524,269.764 236.408 C 271.945 237.724,273.880 238.800,274.064 238.800 C 274.249 238.800,274.400 238.959,274.400 239.153 C 274.400 239.348,274.715 239.607,275.100 239.729 C 275.787 239.946,278.006 241.205,278.400 241.601 C 278.510 241.711,279.140 242.071,279.800 242.400 C 280.460 242.729,281.090 243.089,281.200 243.199 C 281.310 243.310,281.805 243.625,282.300 243.900 C 282.795 244.175,283.605 244.625,284.100 244.900 C 284.595 245.175,285.090 245.490,285.200 245.600 C 285.310 245.710,285.830 246.042,286.355 246.338 C 289.235 247.959,290.116 248.477,293.514 250.542 C 295.557 251.784,297.299 252.800,297.385 252.800 C 297.471 252.800,299.008 253.700,300.800 254.800 C 302.592 255.900,304.226 256.800,304.429 256.800 C 304.633 256.800,304.800 256.980,304.800 257.200 C 304.800 257.420,305.036 257.600,305.325 257.600 C 305.613 257.600,306.198 257.915,306.625 258.300 C 307.051 258.685,307.940 259.264,308.600 259.586 C 309.260 259.908,310.310 260.516,310.934 260.937 C 311.558 261.359,312.818 262.097,313.734 262.579 C 317.015 264.303,317.995 265.010,317.997 265.653 C 318.001 266.559,312.396 274.740,311.503 275.133 C 311.336 275.207,311.198 275.477,311.196 275.733 C 311.193 275.990,310.428 277.037,309.496 278.059 C 308.563 279.082,307.174 280.702,306.408 281.659 C 304.588 283.935,295.966 292.488,294.075 293.895 C 293.264 294.498,292.330 295.281,292.000 295.635 C 290.700 297.030,278.818 305.600,278.184 305.600 C 278.041 305.600,277.446 305.939,276.862 306.353 C 268.167 312.521,248.388 320.268,234.800 322.828 C 225.164 324.643,221.445 324.949,208.800 324.969 C 197.317 324.987,193.740 324.765,186.800 323.604 C 185.590 323.402,183.970 323.131,183.200 323.002 C 182.430 322.873,181.170 322.601,180.400 322.398 C 179.630 322.195,177.758 321.738,176.240 321.381 C 174.722 321.024,171.122 319.954,168.240 319.003 C 163.609 317.475,162.057 316.918,157.520 315.155 C 156.611 314.802,154.198 313.597,143.703 308.256 C 143.210 308.005,142.805 307.665,142.803 307.500 C 142.801 307.335,142.615 307.200,142.389 307.200 C 141.496 307.200,127.771 297.510,126.000 295.629 C 125.670 295.278,124.770 294.516,124.000 293.935 C 121.267 291.873,113.380 283.819,110.000 279.638 C 109.230 278.685,108.417 277.702,108.193 277.453 C 104.139 272.935,98.578 264.079,93.970 254.800 C 90.214 247.238,89.931 246.593,88.083 241.400 C 84.900 232.452,83.269 225.700,81.898 215.800 C 81.252 211.129,81.261 189.054,81.912 184.400 C 83.244 174.869,84.666 168.576,87.292 160.600 C 88.063 158.258,88.322 157.559,89.254 155.300 C 89.503 154.695,89.840 153.840,90.003 153.400 C 92.149 147.596,98.860 135.118,102.616 129.949 C 103.475 128.767,104.610 127.170,105.140 126.400 C 105.669 125.630,106.222 124.910,106.370 124.800 C 106.518 124.690,107.076 123.970,107.611 123.200 C 108.145 122.430,108.947 121.413,109.391 120.940 C 109.836 120.467,111.100 119.045,112.200 117.780 C 116.066 113.335,122.057 107.510,126.533 103.845 C 130.921 100.253,139.257 94.400,139.987 94.400 C 140.214 94.400,140.400 94.220,140.400 94.000 C 140.400 93.780,140.670 93.600,141.000 93.600 C 141.330 93.600,141.600 93.464,141.600 93.298 C 141.600 93.131,142.185 92.741,142.900 92.430 C 143.615 92.119,144.290 91.760,144.400 91.632 C 145.202 90.701,155.344 85.811,160.800 83.723 C 162.230 83.176,164.279 82.385,165.353 81.964 C 166.428 81.544,167.632 81.200,168.030 81.200 C 168.427 81.200,168.864 81.020,169.000 80.800 C 169.136 80.580,169.766 80.400,170.400 80.400 C 171.034 80.400,171.651 80.241,171.771 80.046 C 171.892 79.851,172.487 79.593,173.095 79.471 C 173.703 79.349,175.010 79.048,176.000 78.803 C 182.423 77.210,188.363 76.143,193.490 75.663 C 195.299 75.493,196.915 75.218,197.082 75.052 C 197.520 74.614,221.249 75.056,224.800 75.569 " stroke="none" fill="#0454d4" fill-rule="evenodd"></path><path id="path2" d="M197.082 75.052 C 196.915 75.218,195.299 75.493,193.490 75.663 C 188.363 76.143,182.423 77.210,176.000 78.803 C 175.010 79.048,173.703 79.349,173.095 79.471 C 172.487 79.593,171.892 79.851,171.771 80.046 C 171.651 80.241,171.034 80.400,170.400 80.400 C 169.766 80.400,169.136 80.580,169.000 80.800 C 168.864 81.020,168.427 81.200,168.030 81.200 C 167.632 81.200,166.428 81.544,165.353 81.964 C 164.279 82.385,162.230 83.176,160.800 83.723 C 155.344 85.811,145.202 90.701,144.400 91.632 C 144.290 91.760,143.615 92.119,142.900 92.430 C 142.185 92.741,141.600 93.131,141.600 93.298 C 141.600 93.464,141.330 93.600,141.000 93.600 C 140.670 93.600,140.400 93.780,140.400 94.000 C 140.400 94.220,140.214 94.400,139.987 94.400 C 139.257 94.400,130.921 100.253,126.533 103.845 C 122.057 107.510,116.066 113.335,112.200 117.780 C 111.100 119.045,109.836 120.467,109.391 120.940 C 108.947 121.413,108.145 122.430,107.611 123.200 C 107.076 123.970,106.518 124.690,106.370 124.800 C 106.222 124.910,105.669 125.630,105.140 126.400 C 104.610 127.170,103.475 128.767,102.616 129.949 C 98.860 135.118,92.149 147.596,90.003 153.400 C 89.840 153.840,89.503 154.695,89.254 155.300 C 88.322 157.559,88.063 158.258,87.292 160.600 C 84.537 168.968,82.448 178.436,82.172 183.800 L 82.049 186.200 82.414 184.200 C 82.615 183.100,82.972 180.940,83.206 179.400 C 83.738 175.901,84.607 172.062,86.183 166.236 C 87.063 162.985,88.749 157.997,90.387 153.800 C 91.768 150.258,96.278 141.249,98.876 136.841 C 102.888 130.032,107.320 123.977,112.953 117.608 C 125.400 103.536,142.742 91.425,160.400 84.475 C 187.353 73.866,216.600 72.368,244.800 80.154 C 249.746 81.519,254.676 83.153,257.000 84.198 C 257.660 84.495,259.160 85.115,260.333 85.576 C 265.016 87.417,273.950 92.073,278.600 95.096 C 283.568 98.326,288.784 101.979,289.600 102.799 C 289.710 102.910,290.609 103.629,291.598 104.398 C 296.209 107.982,304.679 116.453,309.197 122.000 C 310.183 123.210,311.081 124.290,311.195 124.400 C 312.306 125.482,316.400 131.410,316.400 131.938 C 316.400 132.154,315.635 132.768,314.700 133.302 C 311.741 134.991,298.268 142.854,296.600 143.865 C 295.720 144.399,294.685 144.938,294.300 145.064 C 293.915 145.190,293.600 145.452,293.600 145.647 C 293.600 145.841,293.437 146.000,293.239 146.000 C 292.917 146.000,288.334 148.593,277.000 155.188 C 275.020 156.340,272.680 157.691,271.800 158.191 C 270.920 158.690,268.898 159.855,267.307 160.780 C 263.710 162.870,263.990 162.964,260.142 158.400 C 241.674 136.495,212.189 128.739,185.400 138.738 C 172.811 143.437,160.895 153.090,153.227 164.802 C 151.284 167.769,148.222 173.565,147.152 176.300 C 146.958 176.795,146.636 177.605,146.436 178.100 C 145.862 179.522,145.536 180.495,145.131 182.000 C 144.924 182.770,144.583 184.030,144.374 184.800 C 141.588 195.030,142.052 207.359,145.654 218.800 C 150.171 233.153,162.391 248.648,174.400 255.250 C 174.950 255.553,175.490 255.906,175.600 256.037 C 175.930 256.428,184.036 260.259,186.400 261.141 C 199.012 265.849,214.992 266.407,227.600 262.578 C 242.032 258.195,254.273 249.606,262.740 237.923 L 265.259 234.447 266.630 235.223 C 267.383 235.651,268.675 236.381,269.500 236.847 C 270.325 237.313,271.478 238.033,272.062 238.447 C 272.646 238.861,273.243 239.200,273.390 239.200 C 273.536 239.200,274.441 239.740,275.400 240.400 C 276.359 241.060,277.232 241.600,277.340 241.600 C 277.448 241.600,279.125 242.564,281.068 243.743 C 285.354 246.344,307.322 259.445,309.000 260.401 C 314.517 263.545,317.200 265.322,317.200 265.834 C 317.200 266.346,313.521 272.210,312.830 272.800 C 312.701 272.910,311.800 274.080,310.828 275.400 C 299.386 290.939,278.777 306.812,260.200 314.394 C 259.760 314.573,258.590 315.073,257.600 315.504 C 251.864 318.003,239.651 321.461,231.800 322.809 C 183.496 331.102,135.951 312.952,107.065 275.192 C 104.734 272.145,103.773 270.751,100.869 266.210 C 97.186 260.450,91.201 248.653,89.601 244.000 C 89.336 243.230,88.957 242.195,88.760 241.700 C 87.825 239.361,87.659 238.883,87.200 237.200 C 86.930 236.210,86.563 235.040,86.385 234.600 C 86.110 233.922,85.712 232.345,84.164 225.800 C 83.139 221.466,82.163 213.856,81.445 204.600 C 81.360 203.500,81.358 205.120,81.441 208.200 C 81.733 219.017,83.806 229.378,88.083 241.400 C 89.931 246.593,90.214 247.238,93.970 254.800 C 98.578 264.079,104.139 272.935,108.193 277.453 C 108.417 277.702,109.230 278.685,110.000 279.638 C 113.380 283.819,121.267 291.873,124.000 293.935 C 124.770 294.516,125.670 295.278,126.000 295.629 C 127.771 297.510,141.496 307.200,142.389 307.200 C 142.615 307.200,142.801 307.335,142.803 307.500 C 142.805 307.665,143.210 308.005,143.703 308.256 C 154.198 313.597,156.611 314.802,157.520 315.155 C 162.057 316.918,163.609 317.475,168.240 319.003 C 171.122 319.954,174.722 321.024,176.240 321.381 C 177.758 321.738,179.630 322.195,180.400 322.398 C 181.170 322.601,182.430 322.873,183.200 323.002 C 183.970 323.131,185.590 323.402,186.800 323.604 C 193.740 324.765,197.317 324.987,208.800 324.969 C 221.445 324.949,225.164 324.643,234.800 322.828 C 248.388 320.268,268.167 312.521,276.862 306.353 C 277.446 305.939,278.041 305.600,278.184 305.600 C 278.818 305.600,290.700 297.030,292.000 295.635 C 292.330 295.281,293.264 294.498,294.075 293.895 C 295.966 292.488,304.588 283.935,306.408 281.659 C 307.174 280.702,308.563 279.082,309.496 278.059 C 310.428 277.037,311.193 275.990,311.196 275.733 C 311.198 275.477,311.336 275.207,311.503 275.133 C 312.396 274.740,318.001 266.559,317.997 265.653 C 317.995 265.010,317.015 264.303,313.734 262.579 C 312.818 262.097,311.558 261.359,310.934 260.937 C 310.310 260.516,309.260 259.908,308.600 259.586 C 307.940 259.264,307.051 258.685,306.625 258.300 C 306.198 257.915,305.613 257.600,305.325 257.600 C 305.036 257.600,304.800 257.420,304.800 257.200 C 304.800 256.980,304.633 256.800,304.429 256.800 C 304.226 256.800,302.592 255.900,300.800 254.800 C 299.008 253.700,297.471 252.800,297.385 252.800 C 297.299 252.800,295.557 251.784,293.514 250.542 C 290.116 248.477,289.235 247.959,286.355 246.338 C 285.830 246.042,285.310 245.710,285.200 245.600 C 285.090 245.490,284.595 245.175,284.100 244.900 C 283.605 244.625,282.795 244.175,282.300 243.900 C 281.805 243.625,281.310 243.310,281.200 243.199 C 281.090 243.089,280.460 242.729,279.800 242.400 C 279.140 242.071,278.510 241.711,278.400 241.601 C 278.006 241.205,275.787 239.946,275.100 239.729 C 274.715 239.607,274.400 239.348,274.400 239.153 C 274.400 238.959,274.249 238.800,274.064 238.800 C 273.880 238.800,271.945 237.724,269.764 236.408 C 264.985 233.524,265.153 233.538,263.544 235.900 C 256.351 246.456,243.625 256.463,232.400 260.391 C 231.630 260.660,230.640 261.022,230.200 261.195 C 229.466 261.483,227.703 261.998,224.600 262.830 C 216.038 265.127,203.750 265.274,195.200 263.183 C 194.210 262.940,192.813 262.645,192.096 262.527 C 191.379 262.408,190.694 262.151,190.573 261.956 C 190.452 261.760,189.949 261.600,189.456 261.600 C 188.963 261.600,188.389 261.451,188.180 261.270 C 187.971 261.088,186.990 260.686,186.000 260.378 C 177.852 257.836,164.939 248.733,158.797 241.200 C 157.811 239.990,156.784 238.768,156.516 238.485 C 156.248 238.202,155.713 237.437,155.328 236.785 C 154.943 236.133,154.486 235.600,154.314 235.600 C 154.141 235.600,154.000 235.423,154.000 235.208 C 154.000 234.992,153.394 233.867,152.653 232.708 C 151.154 230.360,148.411 224.953,147.628 222.800 C 147.348 222.030,146.976 221.040,146.800 220.600 C 146.104 218.855,145.559 217.001,144.421 212.500 C 143.300 208.068,142.994 194.947,143.896 190.000 C 144.157 188.570,144.479 186.770,144.613 186.000 C 144.746 185.230,144.999 184.240,145.175 183.800 C 145.351 183.360,145.891 181.740,146.375 180.200 C 147.871 175.440,150.900 169.191,153.852 164.775 C 154.923 163.172,155.980 161.579,156.200 161.236 C 156.420 160.892,156.873 160.339,157.208 160.006 C 157.542 159.673,158.882 158.169,160.187 156.665 C 169.544 145.877,185.198 137.518,199.564 135.640 C 210.242 134.244,224.293 135.726,231.860 139.047 C 232.554 139.351,233.256 139.600,233.421 139.600 C 233.713 139.600,237.452 141.270,238.955 142.072 C 241.451 143.404,244.013 144.904,244.770 145.476 C 245.116 145.738,246.930 147.074,248.800 148.445 C 250.670 149.816,253.822 152.572,255.806 154.569 C 259.046 157.832,260.007 158.917,262.742 162.398 L 263.526 163.396 265.263 162.507 C 266.897 161.670,267.973 161.053,272.100 158.582 C 273.035 158.023,274.115 157.462,274.500 157.336 C 274.885 157.210,275.200 156.948,275.200 156.753 C 275.200 156.559,275.366 156.400,275.569 156.400 C 275.771 156.400,279.222 154.510,283.238 152.200 C 287.253 149.890,290.615 148.000,290.707 148.000 C 290.800 148.000,291.354 147.661,291.938 147.247 C 292.522 146.833,293.675 146.113,294.500 145.647 C 295.325 145.181,296.605 144.457,297.345 144.038 C 298.085 143.618,299.120 143.033,299.645 142.738 C 300.170 142.442,300.690 142.110,300.800 142.000 C 300.910 141.890,301.430 141.558,301.955 141.262 C 302.480 140.967,303.526 140.378,304.280 139.955 C 305.034 139.531,306.045 138.935,306.526 138.630 C 307.006 138.325,308.030 137.738,308.800 137.324 C 312.070 135.569,316.812 132.705,317.029 132.352 C 317.247 132.001,315.255 128.532,314.222 127.463 C 313.975 127.209,313.332 126.370,312.793 125.600 C 311.626 123.935,311.188 123.397,307.469 119.049 C 303.967 114.954,295.060 106.363,291.400 103.550 C 290.740 103.043,290.110 102.519,290.000 102.386 C 289.391 101.650,281.349 96.000,280.910 96.000 C 280.739 95.999,280.064 95.538,279.410 94.975 C 278.755 94.413,277.585 93.660,276.810 93.303 C 276.034 92.946,274.680 92.173,273.800 91.586 C 271.666 90.163,263.125 86.072,258.400 84.211 C 251.372 81.442,250.696 81.200,249.970 81.200 C 249.573 81.200,249.149 81.041,249.029 80.846 C 248.908 80.651,248.313 80.396,247.705 80.279 C 247.097 80.162,245.880 79.859,245.000 79.606 C 239.442 78.010,233.543 76.831,224.800 75.569 C 221.249 75.056,197.520 74.614,197.082 75.052 M81.500 187.550 C 81.335 188.293,81.225 190.813,81.256 193.150 L 81.311 197.400 81.665 193.200 C 81.859 190.890,81.969 188.370,81.909 187.600 L 81.800 186.200 81.500 187.550 " stroke="none" fill="#5c93e2" fill-rule="evenodd"></path></g></svg>