<svg id="svg" version="1.1" xmlns="http://www.w3.org/2000/svg" xmlns:xlink="http://www.w3.org/1999/xlink" width="400" height="400" viewBox="0, 0, 400,400"><g id="svgg"><path id="path0" d="M191.600 28.797 C 184.481 29.295,171.913 30.699,170.800 31.121 C 170.250 31.330,168.810 31.625,167.600 31.778 C 165.171 32.084,156.751 34.048,153.000 35.184 C 146.807 37.059,140.907 39.008,140.000 39.477 C 139.450 39.762,138.843 39.996,138.650 39.998 C 138.458 39.999,137.198 40.466,135.850 41.037 C 122.589 46.647,109.942 53.641,99.800 60.971 C 85.729 71.142,71.142 85.729,60.971 99.800 C 54.710 108.462,47.334 121.399,42.937 131.430 C 41.065 135.700,40.000 138.316,39.998 138.650 C 39.996 138.843,39.762 139.450,39.477 140.000 C 39.008 140.907,37.059 146.807,35.184 153.000 C 34.048 156.751,32.084 165.171,31.778 167.600 C 31.625 168.810,31.330 170.250,31.121 170.800 C 30.621 172.119,29.279 184.887,28.763 193.245 C 27.813 208.607,30.527 231.564,35.095 246.800 C 36.790 252.455,38.799 258.525,39.417 259.860 C 39.737 260.554,40.000 261.321,40.000 261.565 C 40.000 261.809,40.343 262.772,40.763 263.704 C 41.183 264.637,42.619 267.830,43.956 270.800 C 45.292 273.770,47.013 277.370,47.780 278.800 C 48.546 280.230,49.512 282.030,49.926 282.800 C 52.021 286.702,54.281 290.371,57.666 295.362 C 59.720 298.390,61.680 301.293,62.022 301.813 C 69.526 313.219,89.697 332.501,104.200 342.134 C 106.400 343.595,108.400 344.956,108.644 345.158 C 108.888 345.361,109.788 345.910,110.644 346.378 C 111.500 346.847,112.868 347.628,113.684 348.115 C 119.053 351.316,132.371 358.000,133.380 358.000 C 133.506 358.000,134.372 358.347,135.304 358.772 C 164.505 372.058,205.165 374.992,241.586 366.440 C 247.781 364.985,258.139 361.596,264.600 358.909 C 271.816 355.909,281.623 351.028,286.600 347.962 C 287.260 347.555,288.340 346.927,289.000 346.566 C 289.660 346.204,292.269 344.534,294.797 342.854 C 298.833 340.173,301.286 338.434,305.769 335.076 C 307.893 333.484,312.314 329.736,314.407 327.753 C 315.539 326.679,316.721 325.656,317.033 325.480 C 317.345 325.304,317.600 324.895,317.600 324.570 C 317.600 324.246,318.050 323.809,318.600 323.600 C 319.578 323.228,319.841 322.775,319.360 322.293 C 319.008 321.941,317.083 322.876,316.477 323.694 C 316.190 324.082,315.701 324.400,315.391 324.400 C 315.082 324.400,314.635 324.760,314.400 325.200 C 314.165 325.640,313.763 326.000,313.508 326.000 C 313.253 326.000,312.584 326.427,312.022 326.948 C 310.689 328.185,305.072 332.072,300.300 335.061 C 299.475 335.577,298.125 336.427,297.300 336.950 C 295.090 338.349,289.007 341.620,285.800 343.135 C 284.260 343.862,282.490 344.714,281.866 345.029 C 280.775 345.580,278.445 346.522,273.103 348.574 C 270.654 349.514,266.184 351.016,260.617 352.772 C 259.086 353.254,256.656 353.888,255.217 354.179 C 253.777 354.471,251.430 354.993,250.000 355.339 C 247.608 355.918,242.987 356.726,237.021 357.609 C 228.184 358.918,205.173 358.911,196.579 357.598 C 183.903 355.661,173.365 353.141,165.600 350.188 C 163.510 349.394,160.810 348.417,159.600 348.017 C 155.430 346.639,140.899 339.656,136.977 337.145 C 133.611 334.990,132.278 334.160,130.021 332.812 C 127.530 331.324,116.094 322.845,114.436 321.257 C 113.829 320.676,112.535 319.480,111.561 318.600 C 105.991 313.569,104.137 311.733,99.670 306.821 C 95.173 301.876,85.487 289.513,83.828 286.600 C 83.453 285.940,82.714 284.680,82.187 283.800 C 81.661 282.920,80.842 281.491,80.369 280.625 C 79.895 279.759,79.290 278.832,79.023 278.566 C 78.757 278.300,77.271 275.499,75.721 272.341 C 71.531 263.807,70.496 261.587,69.783 259.600 C 69.428 258.610,68.607 256.360,67.957 254.600 C 65.393 247.652,62.623 238.440,62.003 234.800 C 61.760 233.370,61.378 231.622,61.154 230.915 C 60.777 229.722,59.711 222.418,58.745 214.400 C 58.237 210.183,58.235 189.670,58.743 185.600 C 60.210 173.827,60.417 172.567,62.160 164.800 C 63.965 156.754,64.449 155.154,68.207 144.800 C 68.726 143.370,69.444 141.390,69.801 140.400 C 70.159 139.410,71.319 136.800,72.379 134.600 C 73.439 132.400,75.047 129.051,75.951 127.159 C 76.856 125.266,78.049 123.050,78.602 122.235 C 79.155 121.420,79.972 120.089,80.417 119.277 C 80.863 118.465,81.758 116.990,82.407 116.000 C 83.056 115.010,83.709 113.930,83.859 113.600 C 84.134 112.993,88.775 106.370,89.184 106.000 C 89.306 105.890,90.034 104.935,90.803 103.878 C 92.422 101.651,96.234 96.961,97.400 95.763 C 97.840 95.310,99.545 93.445,101.189 91.618 C 105.731 86.571,115.104 78.060,120.600 73.995 C 122.360 72.693,123.992 71.465,124.227 71.266 C 125.255 70.396,131.331 66.326,131.935 66.104 C 132.301 65.969,133.140 65.467,133.800 64.989 C 134.460 64.510,135.270 63.999,135.600 63.854 C 135.930 63.708,137.190 62.964,138.400 62.200 C 141.055 60.523,150.439 55.875,156.800 53.086 C 157.570 52.748,158.989 52.262,159.953 52.006 C 160.917 51.750,161.997 51.370,162.353 51.162 C 163.133 50.706,168.059 48.986,173.200 47.375 C 178.228 45.799,191.150 43.190,197.800 42.408 C 208.182 41.188,227.815 41.289,237.400 42.613 C 245.171 43.687,257.537 46.232,260.400 47.347 C 261.170 47.647,262.520 48.021,263.400 48.179 C 264.280 48.337,265.540 48.716,266.200 49.022 C 266.860 49.327,268.480 49.928,269.800 50.358 C 273.108 51.434,275.440 52.307,277.450 53.223 C 278.389 53.650,279.293 54.000,279.460 54.000 C 279.950 54.000,292.008 59.980,294.200 61.310 C 296.175 62.508,297.472 63.308,300.600 65.260 C 302.848 66.662,308.405 70.382,309.600 71.284 C 310.150 71.700,311.770 72.920,313.200 73.996 C 314.630 75.072,316.072 76.189,316.405 76.476 C 317.286 77.238,319.081 77.985,319.360 77.707 C 319.807 77.260,319.603 76.930,318.600 76.473 C 318.050 76.222,317.600 75.743,317.600 75.409 C 317.600 75.074,317.456 74.800,317.281 74.800 C 317.105 74.800,316.245 74.125,315.371 73.300 C 313.475 71.512,310.645 69.055,308.576 67.400 C 307.750 66.740,306.530 65.750,305.863 65.200 C 295.818 56.912,279.971 47.708,264.200 41.005 C 263.540 40.724,262.280 40.270,261.400 39.995 C 260.520 39.720,259.620 39.368,259.400 39.212 C 259.180 39.055,256.840 38.248,254.200 37.416 C 251.560 36.585,248.680 35.667,247.800 35.377 C 242.479 33.622,227.875 30.675,221.200 30.008 C 218.890 29.778,215.470 29.416,213.600 29.204 C 208.641 28.643,196.909 28.426,191.600 28.797 M146.155 143.607 C 143.051 144.005,139.036 144.796,137.235 145.365 C 135.433 145.934,133.787 146.400,133.578 146.400 C 132.469 146.400,121.699 152.104,120.800 153.168 C 120.690 153.298,119.880 153.929,119.000 154.570 C 112.964 158.968,106.505 167.889,103.486 176.000 C 99.074 187.853,98.674 191.878,98.501 226.185 C 98.350 256.199,98.361 256.546,99.487 256.978 C 101.095 257.595,122.976 257.221,123.463 256.568 C 123.800 256.117,123.977 247.968,124.112 226.674 C 124.240 206.558,124.440 196.899,124.752 195.800 C 125.002 194.920,125.463 192.911,125.777 191.335 C 126.091 189.759,126.698 187.689,127.126 186.735 C 127.554 185.781,128.034 184.576,128.192 184.059 C 128.463 183.173,129.125 182.060,131.289 178.848 C 131.790 178.104,132.998 176.754,133.973 175.848 C 134.947 174.942,136.063 173.895,136.451 173.521 C 136.840 173.148,137.752 172.541,138.479 172.173 C 139.205 171.805,140.070 171.281,140.400 171.010 C 145.394 166.900,164.861 167.002,171.200 171.171 C 171.750 171.533,172.683 172.071,173.273 172.367 C 181.523 176.510,186.116 187.388,187.623 206.356 C 188.886 222.257,195.042 234.916,205.800 243.737 C 213.557 250.096,212.800 252.027,212.800 225.879 C 212.800 195.916,212.129 188.134,208.691 178.200 C 207.066 173.505,202.762 165.115,201.201 163.600 C 201.088 163.490,200.525 162.770,199.950 162.000 C 196.473 157.345,184.219 148.000,181.592 148.000 C 181.254 148.000,180.615 147.746,180.172 147.435 C 179.728 147.125,178.293 146.567,176.983 146.197 C 175.672 145.827,173.824 145.270,172.876 144.959 C 167.144 143.079,155.050 142.467,146.155 143.607 " stroke="none" fill="#0a97dc" fill-rule="evenodd"></path><path id="path1" d="M203.600 50.403 C 201.510 50.595,198.900 50.934,197.800 51.158 C 196.700 51.381,194.720 51.679,193.400 51.819 C 190.417 52.135,180.935 54.166,176.410 55.458 C 171.697 56.804,165.480 58.851,165.000 59.215 C 164.780 59.382,163.632 59.804,162.449 60.153 C 161.265 60.502,160.095 60.940,159.849 61.127 C 159.602 61.313,158.770 61.707,158.000 62.001 C 152.929 63.938,141.219 70.178,135.000 74.257 C 129.470 77.883,123.416 82.353,121.050 84.556 C 120.197 85.350,119.415 86.000,119.313 86.000 C 119.037 86.000,114.000 91.085,114.000 91.363 C 114.000 91.839,115.569 91.584,115.880 91.058 C 116.056 90.761,116.650 90.284,117.200 90.000 C 117.750 89.716,119.010 88.829,120.000 88.029 C 120.990 87.230,122.610 86.057,123.600 85.423 C 124.590 84.789,126.149 83.760,127.065 83.135 C 127.981 82.511,128.898 82.000,129.103 82.000 C 129.308 82.000,129.802 81.640,130.200 81.200 C 130.598 80.760,131.142 80.400,131.408 80.400 C 131.674 80.400,132.345 80.044,132.898 79.609 C 134.001 78.741,146.362 72.487,147.988 71.974 C 148.545 71.799,150.440 71.088,152.200 70.396 C 156.829 68.574,161.815 66.935,165.438 66.042 C 167.177 65.613,169.590 64.999,170.800 64.676 C 174.458 63.701,181.936 62.444,186.600 62.020 C 194.670 61.287,203.416 60.755,204.011 60.960 C 204.335 61.072,207.845 61.354,211.811 61.587 C 215.778 61.819,220.638 62.282,222.611 62.616 C 224.585 62.949,227.767 63.486,229.683 63.810 C 231.598 64.133,233.938 64.657,234.883 64.974 C 235.827 65.290,237.838 65.834,239.350 66.181 C 241.814 66.746,250.909 69.859,256.200 71.947 C 257.300 72.381,259.550 73.433,261.200 74.283 C 262.850 75.134,264.830 76.085,265.600 76.397 C 266.944 76.941,272.566 80.203,276.109 82.494 C 277.039 83.095,278.070 83.708,278.400 83.857 C 279.017 84.134,282.843 86.797,283.200 87.198 C 283.310 87.321,284.840 88.486,286.600 89.785 C 289.388 91.845,293.431 95.216,296.209 97.800 C 300.097 101.415,301.851 103.205,305.534 107.316 C 309.450 111.687,316.930 121.267,318.461 123.874 C 318.825 124.493,320.313 126.980,321.767 129.400 C 325.553 135.698,329.895 144.684,332.011 150.600 C 332.719 152.580,333.750 155.460,334.302 157.000 C 341.738 177.760,343.087 213.079,337.199 232.800 C 336.772 234.230,336.229 236.300,335.994 237.400 C 335.528 239.573,334.076 244.110,332.729 247.600 C 330.155 254.274,329.283 256.300,326.779 261.434 C 325.268 264.532,323.318 268.222,322.445 269.634 C 321.572 271.045,320.098 273.460,319.168 275.000 C 315.330 281.355,304.971 294.084,299.035 299.738 C 296.180 302.457,288.400 309.169,287.200 309.948 C 286.650 310.306,284.739 311.706,282.953 313.061 C 281.167 314.416,279.187 315.816,278.553 316.173 C 277.919 316.530,275.690 317.887,273.600 319.190 C 270.307 321.242,265.256 323.878,257.800 327.436 C 251.179 330.595,235.831 335.299,227.800 336.630 C 225.600 336.994,222.900 337.456,221.800 337.655 C 212.554 339.333,189.777 339.108,180.159 337.244 C 177.981 336.822,175.214 336.347,174.008 336.188 C 172.803 336.030,171.093 335.642,170.208 335.328 C 169.324 335.013,167.430 334.500,166.000 334.187 C 157.098 332.239,139.627 324.907,131.400 319.666 C 129.860 318.684,127.925 317.458,127.100 316.941 C 122.585 314.109,120.144 312.390,118.238 310.700 C 117.804 310.315,117.123 310.000,116.725 310.000 C 116.326 310.000,116.000 309.749,116.000 309.443 C 116.000 308.810,114.920 308.279,114.350 308.631 C 113.653 309.062,123.180 317.715,128.188 321.200 C 128.978 321.750,130.204 322.611,130.912 323.114 C 133.116 324.677,137.694 327.629,139.180 328.445 C 139.961 328.874,141.419 329.733,142.420 330.354 C 146.997 333.192,157.553 338.172,164.400 340.724 C 175.325 344.794,183.202 346.737,198.200 349.057 C 204.046 349.962,230.950 350.154,233.800 349.311 C 234.680 349.051,237.618 348.552,240.330 348.202 C 243.041 347.852,247.451 347.018,250.130 346.349 C 252.808 345.679,256.507 344.781,258.350 344.353 C 260.192 343.925,262.052 343.386,262.481 343.156 C 262.911 342.926,264.194 342.464,265.331 342.128 C 266.469 341.793,267.580 341.380,267.800 341.211 C 268.020 341.042,268.920 340.685,269.800 340.417 C 271.695 339.840,276.270 337.992,278.800 336.781 C 283.477 334.543,289.600 331.392,291.482 330.257 C 292.627 329.566,294.607 328.370,295.882 327.600 C 297.157 326.830,298.380 326.127,298.600 326.038 C 299.064 325.849,299.523 325.519,307.000 319.980 C 311.758 316.456,318.457 310.692,322.673 306.495 C 325.478 303.704,333.398 294.877,334.233 293.612 C 334.746 292.836,336.298 290.718,337.683 288.907 C 341.733 283.609,341.491 283.972,346.288 276.000 C 349.516 270.635,354.844 259.838,356.375 255.558 C 356.800 254.371,357.621 252.140,358.200 250.600 C 359.573 246.947,361.394 240.873,362.230 237.157 C 362.596 235.531,363.057 233.892,363.254 233.514 C 363.591 232.870,364.527 227.473,365.805 218.800 C 367.220 209.197,367.228 191.555,365.822 181.549 C 364.693 173.517,363.627 167.297,363.217 166.353 C 362.990 165.829,362.456 163.960,362.032 162.200 C 360.801 157.093,359.760 153.671,358.199 149.600 C 357.397 147.510,356.501 145.080,356.207 144.200 C 354.998 140.578,349.050 128.476,346.475 124.400 C 345.572 122.970,344.201 120.702,343.430 119.359 C 342.658 118.017,340.316 114.634,338.224 111.842 C 336.132 109.051,334.278 106.511,334.104 106.200 C 333.090 104.388,321.027 91.904,315.187 86.622 C 304.337 76.810,283.320 64.203,270.800 59.995 C 269.590 59.589,267.340 58.771,265.800 58.177 C 260.350 56.077,247.808 52.941,241.000 51.977 C 237.920 51.541,234.500 51.006,233.400 50.787 C 230.715 50.253,208.371 49.965,203.600 50.403 M244.000 143.240 C 231.393 144.229,222.387 146.355,215.552 149.955 C 208.944 153.436,208.309 154.250,210.275 156.715 C 212.779 159.855,218.347 170.099,218.423 171.708 C 218.436 171.978,218.931 173.190,219.523 174.400 C 220.813 177.036,220.986 177.040,224.880 174.521 C 226.439 173.512,228.480 172.457,229.416 172.175 C 230.352 171.893,231.635 171.395,232.267 171.069 C 233.623 170.368,239.285 169.249,243.800 168.789 C 245.560 168.610,258.823 168.449,273.274 168.432 C 289.078 168.413,299.952 168.246,300.562 168.015 L 301.576 167.629 301.688 156.315 C 301.795 145.548,301.655 143.784,300.640 143.106 C 300.042 142.707,249.266 142.827,244.000 143.240 M224.667 226.667 C 224.135 227.198,224.360 253.070,224.900 253.506 C 226.329 254.661,233.854 256.089,242.200 256.789 C 247.673 257.248,299.972 257.342,300.634 256.894 C 300.873 256.732,301.233 256.299,301.434 255.930 C 301.813 255.236,301.575 232.639,301.185 232.250 C 301.066 232.132,288.106 231.960,272.385 231.867 L 243.800 231.698 238.630 230.651 C 233.347 229.582,230.438 228.665,227.736 227.217 C 226.175 226.380,225.139 226.194,224.667 226.667 " stroke="none" fill="#ac42a6" fill-rule="evenodd"></path><path id="path2" d="M149.529 0.625 C 149.430 1.106,148.775 1.273,146.705 1.346 C 144.711 1.417,143.718 1.658,142.886 2.273 C 142.041 2.898,141.002 3.143,138.706 3.259 C 136.226 3.384,135.471 3.581,134.700 4.306 C 134.066 4.902,133.250 5.200,132.255 5.200 C 131.176 5.200,130.505 5.477,129.835 6.200 C 129.290 6.788,128.466 7.200,127.835 7.200 C 127.204 7.200,126.380 7.612,125.835 8.200 C 125.181 8.906,124.489 9.200,123.485 9.200 C 122.550 9.200,121.653 9.543,120.873 10.200 C 120.080 10.867,119.198 11.200,118.223 11.200 C 117.178 11.200,116.498 11.485,115.835 12.200 C 115.235 12.847,114.476 13.200,113.683 13.200 C 112.504 13.200,111.200 14.055,111.200 14.829 C 111.200 15.033,110.742 15.200,110.182 15.200 C 109.622 15.200,108.714 15.650,108.164 16.200 C 107.541 16.823,106.710 17.200,105.963 17.200 C 105.196 17.200,104.427 17.561,103.835 18.200 C 103.298 18.779,102.465 19.200,101.854 19.200 C 101.274 19.200,100.398 19.605,99.907 20.100 C 99.416 20.595,98.651 21.185,98.207 21.410 C 97.763 21.636,97.341 22.232,97.269 22.735 C 97.156 23.520,96.973 23.614,95.978 23.395 C 95.063 23.194,94.625 23.347,93.909 24.118 C 93.409 24.655,92.415 25.223,91.700 25.379 C 90.986 25.536,90.174 25.988,89.896 26.384 C 89.619 26.780,89.033 27.172,88.596 27.255 C 88.158 27.337,87.622 27.809,87.405 28.302 C 87.188 28.796,86.724 29.200,86.375 29.200 C 86.025 29.200,85.335 29.630,84.842 30.156 C 84.348 30.681,83.431 31.214,82.804 31.339 C 82.137 31.473,81.557 31.905,81.405 32.384 C 81.263 32.833,80.868 33.200,80.528 33.200 C 79.944 33.200,78.375 34.311,76.194 36.269 C 75.661 36.747,74.869 37.251,74.433 37.389 C 73.997 37.528,73.536 37.972,73.407 38.377 C 73.279 38.782,72.806 39.210,72.357 39.327 C 71.908 39.445,71.443 39.914,71.324 40.370 C 71.204 40.827,70.805 41.200,70.437 41.200 C 70.068 41.200,68.964 42.023,67.983 43.029 C 67.002 44.035,65.615 45.106,64.900 45.409 C 64.185 45.712,63.600 46.153,63.600 46.389 C 63.600 46.626,63.133 46.998,62.561 47.215 C 61.990 47.432,61.433 47.951,61.324 48.368 C 61.215 48.785,60.769 49.219,60.333 49.333 C 59.897 49.447,59.447 49.897,59.333 50.333 C 59.219 50.769,58.769 51.219,58.333 51.333 C 57.897 51.447,57.447 51.897,57.333 52.333 C 57.219 52.769,56.769 53.219,56.333 53.333 C 55.897 53.447,55.447 53.897,55.333 54.333 C 55.219 54.769,54.769 55.219,54.333 55.333 C 53.897 55.447,53.447 55.897,53.333 56.333 C 53.219 56.769,52.769 57.219,52.333 57.333 C 51.897 57.447,51.447 57.897,51.333 58.333 C 51.219 58.769,50.769 59.219,50.333 59.333 C 49.897 59.447,49.447 59.897,49.333 60.333 C 49.219 60.769,48.785 61.215,48.368 61.324 C 47.951 61.433,47.432 61.990,47.215 62.561 C 46.998 63.133,46.626 63.600,46.389 63.600 C 46.153 63.600,45.712 64.185,45.409 64.900 C 45.106 65.615,44.035 67.002,43.029 67.983 C 42.023 68.964,41.200 70.068,41.200 70.437 C 41.200 70.805,40.827 71.204,40.370 71.324 C 39.914 71.443,39.445 71.908,39.327 72.357 C 39.210 72.806,38.782 73.279,38.377 73.407 C 37.972 73.536,37.528 73.997,37.389 74.433 C 37.251 74.869,36.747 75.661,36.269 76.194 C 34.311 78.375,33.200 79.944,33.200 80.528 C 33.200 80.868,32.833 81.263,32.384 81.405 C 31.905 81.557,31.473 82.137,31.339 82.804 C 31.214 83.431,30.681 84.348,30.156 84.842 C 29.630 85.335,29.200 86.025,29.200 86.375 C 29.200 86.724,28.796 87.188,28.302 87.405 C 27.809 87.622,27.337 88.158,27.255 88.596 C 27.172 89.033,26.780 89.619,26.384 89.896 C 25.988 90.174,25.536 90.986,25.379 91.700 C 25.223 92.415,24.655 93.409,24.118 93.909 C 23.347 94.625,23.194 95.063,23.395 95.978 C 23.614 96.973,23.520 97.156,22.735 97.269 C 22.232 97.341,21.636 97.763,21.410 98.207 C 21.185 98.651,20.595 99.416,20.100 99.907 C 19.605 100.398,19.200 101.274,19.200 101.854 C 19.200 102.465,18.779 103.298,18.200 103.835 C 17.561 104.427,17.200 105.196,17.200 105.963 C 17.200 106.710,16.823 107.541,16.200 108.164 C 15.650 108.714,15.200 109.622,15.200 110.182 C 15.200 110.742,15.033 111.200,14.829 111.200 C 14.055 111.200,13.200 112.504,13.200 113.683 C 13.200 114.476,12.847 115.235,12.200 115.835 C 11.485 116.498,11.200 117.178,11.200 118.223 C 11.200 119.198,10.867 120.080,10.200 120.873 C 9.543 121.653,9.200 122.550,9.200 123.485 C 9.200 124.489,8.906 125.181,8.200 125.835 C 7.612 126.380,7.200 127.204,7.200 127.835 C 7.200 128.466,6.788 129.290,6.200 129.835 C 5.477 130.505,5.200 131.176,5.200 132.255 C 5.200 133.250,4.902 134.066,4.306 134.700 C 3.581 135.471,3.384 136.226,3.259 138.706 C 3.143 141.002,2.898 142.041,2.273 142.886 C 1.658 143.718,1.417 144.711,1.346 146.705 C 1.273 148.775,1.106 149.430,0.625 149.529 C -0.289 149.718,-0.314 158.800,0.600 158.800 C 1.103 158.800,1.200 159.644,1.200 164.000 C 1.200 168.356,1.103 169.200,0.600 169.200 C 0.072 169.200,0.000 172.889,0.000 200.000 C 0.000 227.111,0.072 230.800,0.600 230.800 C 1.103 230.800,1.200 231.644,1.200 236.000 C 1.200 240.356,1.103 241.200,0.600 241.200 C -0.314 241.200,-0.289 250.282,0.625 250.471 C 1.106 250.570,1.273 251.225,1.346 253.295 C 1.417 255.289,1.658 256.282,2.273 257.114 C 2.898 257.959,3.143 258.998,3.259 261.294 C 3.384 263.774,3.581 264.529,4.306 265.300 C 4.902 265.934,5.200 266.750,5.200 267.745 C 5.200 268.824,5.477 269.495,6.200 270.165 C 6.788 270.710,7.200 271.534,7.200 272.165 C 7.200 272.796,7.612 273.620,8.200 274.165 C 8.906 274.819,9.200 275.511,9.200 276.515 C 9.200 277.450,9.543 278.347,10.200 279.127 C 10.867 279.920,11.200 280.802,11.200 281.777 C 11.200 282.822,11.485 283.502,12.200 284.165 C 12.847 284.765,13.200 285.524,13.200 286.317 C 13.200 287.496,14.055 288.800,14.829 288.800 C 15.033 288.800,15.200 289.258,15.200 289.818 C 15.200 290.378,15.650 291.286,16.200 291.836 C 16.823 292.459,17.200 293.290,17.200 294.037 C 17.200 294.804,17.561 295.573,18.200 296.165 C 18.779 296.702,19.200 297.535,19.200 298.146 C 19.200 298.726,19.605 299.602,20.100 300.093 C 20.595 300.584,21.185 301.349,21.410 301.793 C 21.636 302.237,22.232 302.659,22.735 302.731 C 23.520 302.844,23.614 303.027,23.395 304.022 C 23.194 304.937,23.347 305.375,24.118 306.091 C 24.655 306.591,25.223 307.585,25.379 308.300 C 25.536 309.014,25.988 309.826,26.384 310.104 C 26.780 310.381,27.172 310.967,27.255 311.404 C 27.337 311.842,27.809 312.378,28.302 312.595 C 28.796 312.812,29.200 313.276,29.200 313.625 C 29.200 313.975,29.630 314.665,30.156 315.158 C 30.681 315.652,31.214 316.569,31.339 317.196 C 31.473 317.863,31.905 318.443,32.384 318.595 C 32.833 318.737,33.200 319.132,33.200 319.472 C 33.200 320.056,34.311 321.625,36.269 323.806 C 36.747 324.339,37.251 325.131,37.389 325.567 C 37.528 326.003,37.972 326.464,38.377 326.593 C 38.782 326.721,39.210 327.194,39.327 327.643 C 39.445 328.092,39.914 328.557,40.370 328.676 C 40.827 328.796,41.200 329.195,41.200 329.563 C 41.200 329.932,42.023 331.036,43.029 332.017 C 44.035 332.998,45.106 334.385,45.409 335.100 C 45.712 335.815,46.153 336.400,46.389 336.400 C 46.626 336.400,46.998 336.867,47.215 337.439 C 47.432 338.010,47.951 338.567,48.368 338.676 C 48.785 338.785,49.219 339.231,49.333 339.667 C 49.447 340.103,49.897 340.553,50.333 340.667 C 50.769 340.781,51.219 341.231,51.333 341.667 C 51.447 342.103,51.897 342.553,52.333 342.667 C 52.769 342.781,53.219 343.231,53.333 343.667 C 53.447 344.103,53.897 344.553,54.333 344.667 C 54.769 344.781,55.219 345.231,55.333 345.667 C 55.447 346.103,55.897 346.553,56.333 346.667 C 56.769 346.781,57.219 347.231,57.333 347.667 C 57.447 348.103,57.897 348.553,58.333 348.667 C 58.769 348.781,59.219 349.231,59.333 349.667 C 59.447 350.103,59.897 350.553,60.333 350.667 C 60.769 350.781,61.215 351.215,61.324 351.632 C 61.433 352.049,61.990 352.568,62.561 352.785 C 63.133 353.002,63.600 353.374,63.600 353.611 C 63.600 353.847,64.185 354.288,64.900 354.591 C 65.615 354.894,67.002 355.965,67.983 356.971 C 68.964 357.977,70.068 358.800,70.437 358.800 C 70.805 358.800,71.204 359.173,71.324 359.630 C 71.443 360.086,71.908 360.555,72.357 360.673 C 72.806 360.790,73.279 361.218,73.407 361.623 C 73.536 362.028,73.997 362.472,74.433 362.611 C 74.869 362.749,75.661 363.253,76.194 363.731 C 78.375 365.689,79.944 366.800,80.528 366.800 C 80.868 366.800,81.263 367.167,81.405 367.616 C 81.557 368.095,82.137 368.527,82.804 368.661 C 83.431 368.786,84.348 369.319,84.842 369.844 C 85.335 370.370,86.025 370.800,86.375 370.800 C 86.724 370.800,87.188 371.204,87.405 371.698 C 87.622 372.191,88.158 372.663,88.596 372.745 C 89.033 372.828,89.619 373.220,89.896 373.616 C 90.174 374.012,90.986 374.464,91.700 374.621 C 92.415 374.777,93.409 375.345,93.909 375.882 C 94.625 376.653,95.063 376.806,95.978 376.605 C 96.973 376.386,97.156 376.480,97.269 377.265 C 97.341 377.768,97.763 378.364,98.207 378.590 C 98.651 378.815,99.416 379.405,99.907 379.900 C 100.398 380.395,101.274 380.800,101.854 380.800 C 102.465 380.800,103.298 381.221,103.835 381.800 C 104.427 382.439,105.196 382.800,105.963 382.800 C 106.710 382.800,107.541 383.177,108.164 383.800 C 108.714 384.350,109.622 384.800,110.182 384.800 C 110.742 384.800,111.200 384.967,111.200 385.171 C 111.200 385.945,112.504 386.800,113.683 386.800 C 114.476 386.800,115.235 387.153,115.835 387.800 C 116.498 388.515,117.178 388.800,118.223 388.800 C 119.198 388.800,120.080 389.133,120.873 389.800 C 121.653 390.457,122.550 390.800,123.485 390.800 C 124.489 390.800,125.181 391.094,125.835 391.800 C 126.380 392.388,127.204 392.800,127.835 392.800 C 128.466 392.800,129.290 393.212,129.835 393.800 C 130.505 394.523,131.176 394.800,132.255 394.800 C 133.250 394.800,134.066 395.098,134.700 395.694 C 135.471 396.419,136.226 396.616,138.706 396.741 C 141.002 396.857,142.041 397.102,142.886 397.727 C 143.718 398.342,144.711 398.583,146.705 398.654 C 148.775 398.727,149.430 398.894,149.529 399.375 C 149.718 400.289,158.800 400.314,158.800 399.400 C 158.800 398.897,159.644 398.800,164.000 398.800 C 168.356 398.800,169.200 398.897,169.200 399.400 C 169.200 399.928,172.889 400.000,200.000 400.000 C 227.111 400.000,230.800 399.928,230.800 399.400 C 230.800 398.897,231.644 398.800,236.000 398.800 C 240.356 398.800,241.200 398.897,241.200 399.400 C 241.200 400.314,250.282 400.289,250.471 399.375 C 250.570 398.894,251.225 398.727,253.295 398.654 C 255.289 398.583,256.282 398.342,257.114 397.727 C 257.959 397.102,258.998 396.857,261.294 396.741 C 263.774 396.616,264.529 396.419,265.300 395.694 C 265.934 395.098,266.750 394.800,267.745 394.800 C 268.824 394.800,269.495 394.523,270.165 393.800 C 270.710 393.212,271.534 392.800,272.165 392.800 C 272.796 392.800,273.620 392.388,274.165 391.800 C 274.819 391.094,275.511 390.800,276.515 390.800 C 277.450 390.800,278.347 390.457,279.127 389.800 C 279.920 389.133,280.802 388.800,281.777 388.800 C 282.822 388.800,283.502 388.515,284.165 387.800 C 284.765 387.153,285.524 386.800,286.317 386.800 C 287.496 386.800,288.800 385.945,288.800 385.171 C 288.800 384.967,289.258 384.800,289.818 384.800 C 290.378 384.800,291.286 384.350,291.836 383.800 C 292.459 383.177,293.290 382.800,294.037 382.800 C 294.804 382.800,295.573 382.439,296.165 381.800 C 296.702 381.221,297.535 380.800,298.146 380.800 C 298.726 380.800,299.602 380.395,300.093 379.900 C 300.584 379.405,301.349 378.815,301.793 378.590 C 302.237 378.364,302.659 377.768,302.731 377.265 C 302.844 376.480,303.027 376.386,304.022 376.605 C 304.937 376.806,305.375 376.653,306.091 375.882 C 306.591 375.345,307.585 374.777,308.300 374.621 C 309.014 374.464,309.826 374.012,310.104 373.616 C 310.381 373.220,310.967 372.828,311.404 372.745 C 311.842 372.663,312.378 372.191,312.595 371.698 C 312.812 371.204,313.276 370.800,313.625 370.800 C 313.975 370.800,314.665 370.370,315.158 369.844 C 315.652 369.319,316.569 368.786,317.196 368.661 C 317.863 368.527,318.443 368.095,318.595 367.616 C 318.737 367.167,319.132 366.800,319.472 366.800 C 320.056 366.800,321.625 365.689,323.806 363.731 C 324.339 363.253,325.131 362.749,325.567 362.611 C 326.003 362.472,326.464 362.028,326.593 361.623 C 326.721 361.218,327.194 360.790,327.643 360.673 C 328.092 360.555,328.557 360.086,328.676 359.630 C 328.796 359.173,329.195 358.800,329.563 358.800 C 329.932 358.800,331.036 357.977,332.017 356.971 C 332.998 355.965,334.385 354.894,335.100 354.591 C 335.815 354.288,336.400 353.847,336.400 353.611 C 336.400 353.374,336.867 353.002,337.439 352.785 C 338.010 352.568,338.567 352.049,338.676 351.632 C 338.785 351.215,339.231 350.781,339.667 350.667 C 340.103 350.553,340.553 350.103,340.667 349.667 C 340.781 349.231,341.231 348.781,341.667 348.667 C 342.103 348.553,342.553 348.103,342.667 347.667 C 342.781 347.231,343.231 346.781,343.667 346.667 C 344.103 346.553,344.553 346.103,344.667 345.667 C 344.781 345.231,345.231 344.781,345.667 344.667 C 346.103 344.553,346.553 344.103,346.667 343.667 C 346.781 343.231,347.231 342.781,347.667 342.667 C 348.103 342.553,348.553 342.103,348.667 341.667 C 348.781 341.231,349.231 340.781,349.667 340.667 C 350.103 340.553,350.553 340.103,350.667 339.667 C 350.781 339.231,351.215 338.785,351.632 338.676 C 352.049 338.567,352.568 338.010,352.785 337.439 C 353.002 336.867,353.374 336.400,353.611 336.400 C 353.847 336.400,354.288 335.815,354.591 335.100 C 354.894 334.385,355.965 332.998,356.971 332.017 C 357.977 331.036,358.800 329.932,358.800 329.563 C 358.800 329.195,359.173 328.796,359.630 328.676 C 360.086 328.557,360.555 328.092,360.673 327.643 C 360.790 327.194,361.218 326.721,361.623 326.593 C 362.028 326.464,362.472 326.003,362.611 325.567 C 362.749 325.131,363.253 324.339,363.731 323.806 C 365.689 321.625,366.800 320.056,366.800 319.472 C 366.800 319.132,367.167 318.737,367.616 318.595 C 368.095 318.443,368.527 317.863,368.661 317.196 C 368.786 316.569,369.319 315.652,369.844 315.158 C 370.370 314.665,370.800 313.975,370.800 313.625 C 370.800 313.276,371.204 312.812,371.698 312.595 C 372.191 312.378,372.663 311.842,372.745 311.404 C 372.828 310.967,373.220 310.381,373.616 310.104 C 374.012 309.826,374.464 309.014,374.621 308.300 C 374.777 307.585,375.345 306.591,375.882 306.091 C 376.653 305.375,376.806 304.937,376.605 304.022 C 376.386 303.027,376.480 302.844,377.265 302.731 C 377.768 302.659,378.364 302.237,378.590 301.793 C 378.815 301.349,379.405 300.584,379.900 300.093 C 380.395 299.602,380.800 298.726,380.800 298.146 C 380.800 297.535,381.221 296.702,381.800 296.165 C 382.439 295.573,382.800 294.804,382.800 294.037 C 382.800 293.290,383.177 292.459,383.800 291.836 C 384.350 291.286,384.800 290.378,384.800 289.818 C 384.800 289.258,384.967 288.800,385.171 288.800 C 385.945 288.800,386.800 287.496,386.800 286.317 C 386.800 285.524,387.153 284.765,387.800 284.165 C 388.515 283.502,388.800 282.822,388.800 281.777 C 388.800 280.802,389.133 279.920,389.800 279.127 C 390.457 278.347,390.800 277.450,390.800 276.515 C 390.800 275.511,391.094 274.819,391.800 274.165 C 392.388 273.620,392.800 272.796,392.800 272.165 C 392.800 271.534,393.212 270.710,393.800 270.165 C 394.523 269.495,394.800 268.824,394.800 267.745 C 394.800 266.750,395.098 265.934,395.694 265.300 C 396.419 264.529,396.616 263.774,396.741 261.294 C 396.857 258.998,397.102 257.959,397.727 257.114 C 398.342 256.282,398.583 255.289,398.654 253.295 C 398.727 251.225,398.894 250.570,399.375 250.471 C 400.289 250.282,400.314 241.200,399.400 241.200 C 398.897 241.200,398.800 240.356,398.800 236.000 C 398.800 231.644,398.897 230.800,399.400 230.800 C 399.928 230.800,400.000 227.111,400.000 200.000 C 400.000 172.889,399.928 169.200,399.400 169.200 C 398.897 169.200,398.800 168.356,398.800 164.000 C 398.800 159.644,398.897 158.800,399.400 158.800 C 400.314 158.800,400.289 149.718,399.375 149.529 C 398.894 149.430,398.727 148.775,398.654 146.705 C 398.583 144.711,398.342 143.718,397.727 142.886 C 397.102 142.041,396.857 141.002,396.741 138.706 C 396.616 136.226,396.419 135.471,395.694 134.700 C 395.098 134.066,394.800 133.250,394.800 132.255 C 394.800 131.176,394.523 130.505,393.800 129.835 C 393.212 129.290,392.800 128.466,392.800 127.835 C 392.800 127.204,392.388 126.380,391.800 125.835 C 391.094 125.181,390.800 124.489,390.800 123.485 C 390.800 122.550,390.457 121.653,389.800 120.873 C 389.133 120.080,388.800 119.198,388.800 118.223 C 388.800 117.178,388.515 116.498,387.800 115.835 C 387.153 115.235,386.800 114.476,386.800 113.683 C 386.800 112.504,385.945 111.200,385.171 111.200 C 384.967 111.200,384.800 110.742,384.800 110.182 C 384.800 109.622,384.350 108.714,383.800 108.164 C 383.177 107.541,382.800 106.710,382.800 105.963 C 382.800 105.196,382.439 104.427,381.800 103.835 C 381.221 103.298,380.800 102.465,380.800 101.854 C 380.800 101.274,380.395 100.398,379.900 99.907 C 379.405 99.416,378.815 98.651,378.590 98.207 C 378.364 97.763,377.768 97.341,377.265 97.269 C 376.480 97.156,376.386 96.973,376.605 95.978 C 376.806 95.063,376.653 94.625,375.882 93.909 C 375.345 93.409,374.777 92.415,374.621 91.700 C 374.464 90.986,374.012 90.174,373.616 89.896 C 373.220 89.619,372.828 89.033,372.745 88.596 C 372.663 88.158,372.191 87.622,371.698 87.405 C 371.204 87.188,370.800 86.724,370.800 86.375 C 370.800 86.025,370.370 85.335,369.844 84.842 C 369.319 84.348,368.786 83.431,368.661 82.804 C 368.527 82.137,368.095 81.557,367.616 81.405 C 367.167 81.263,366.800 80.868,366.800 80.528 C 366.800 79.944,365.689 78.375,363.731 76.194 C 363.253 75.661,362.749 74.869,362.611 74.433 C 362.472 73.997,362.028 73.536,361.623 73.407 C 361.218 73.279,360.790 72.806,360.673 72.357 C 360.555 71.908,360.086 71.443,359.630 71.324 C 359.173 71.204,358.800 70.805,358.800 70.437 C 358.800 70.068,357.977 68.964,356.971 67.983 C 355.965 67.002,354.894 65.615,354.591 64.900 C 354.288 64.185,353.847 63.600,353.611 63.600 C 353.374 63.600,353.002 63.133,352.785 62.561 C 352.568 61.990,352.049 61.433,351.632 61.324 C 351.215 61.215,350.781 60.769,350.667 60.333 C 350.553 59.897,350.103 59.447,349.667 59.333 C 349.231 59.219,348.781 58.769,348.667 58.333 C 348.553 57.897,348.103 57.447,347.667 57.333 C 347.231 57.219,346.781 56.769,346.667 56.333 C 346.553 55.897,346.103 55.447,345.667 55.333 C 345.231 55.219,344.781 54.769,344.667 54.333 C 344.553 53.897,344.103 53.447,343.667 53.333 C 343.231 53.219,342.781 52.769,342.667 52.333 C 342.553 51.897,342.103 51.447,341.667 51.333 C 341.231 51.219,340.781 50.769,340.667 50.333 C 340.553 49.897,340.103 49.447,339.667 49.333 C 339.231 49.219,338.785 48.785,338.676 48.368 C 338.567 47.951,338.010 47.432,337.439 47.215 C 336.867 46.998,336.400 46.626,336.400 46.389 C 336.400 46.153,335.815 45.712,335.100 45.409 C 334.385 45.106,332.998 44.035,332.017 43.029 C 331.036 42.023,329.932 41.200,329.563 41.200 C 329.195 41.200,328.796 40.827,328.676 40.370 C 328.557 39.914,328.092 39.445,327.643 39.327 C 327.194 39.210,326.721 38.782,326.593 38.377 C 326.464 37.972,326.003 37.528,325.567 37.389 C 325.131 37.251,324.339 36.747,323.806 36.269 C 321.625 34.311,320.056 33.200,319.472 33.200 C 319.132 33.200,318.737 32.833,318.595 32.384 C 318.443 31.905,317.863 31.473,317.196 31.339 C 316.569 31.214,315.652 30.681,315.158 30.156 C 314.665 29.630,313.975 29.200,313.625 29.200 C 313.276 29.200,312.812 28.796,312.595 28.302 C 312.378 27.809,311.842 27.337,311.404 27.255 C 310.967 27.172,310.381 26.780,310.104 26.384 C 309.826 25.988,309.014 25.536,308.300 25.379 C 307.585 25.223,306.591 24.655,306.091 24.118 C 305.375 23.347,304.937 23.194,304.022 23.395 C 303.027 23.614,302.844 23.520,302.731 22.735 C 302.659 22.232,302.237 21.636,301.793 21.410 C 301.349 21.185,300.584 20.595,300.093 20.100 C 299.602 19.605,298.726 19.200,298.146 19.200 C 297.535 19.200,296.702 18.779,296.165 18.200 C 295.573 17.561,294.804 17.200,294.037 17.200 C 293.290 17.200,292.459 16.823,291.836 16.200 C 291.286 15.650,290.378 15.200,289.818 15.200 C 289.258 15.200,288.800 15.033,288.800 14.829 C 288.800 14.055,287.496 13.200,286.317 13.200 C 285.524 13.200,284.765 12.847,284.165 12.200 C 283.502 11.485,282.822 11.200,281.777 11.200 C 280.802 11.200,279.920 10.867,279.127 10.200 C 278.347 9.543,277.450 9.200,276.515 9.200 C 275.511 9.200,274.819 8.906,274.165 8.200 C 273.620 7.612,272.796 7.200,272.165 7.200 C 271.534 7.200,270.710 6.788,270.165 6.200 C 269.495 5.477,268.824 5.200,267.745 5.200 C 266.750 5.200,265.934 4.902,265.300 4.306 C 264.529 3.581,263.774 3.384,261.294 3.259 C 258.998 3.143,257.959 2.898,257.114 2.273 C 256.282 1.658,255.289 1.417,253.295 1.346 C 251.225 1.273,250.570 1.106,250.471 0.625 C 250.282 -0.289,241.200 -0.314,241.200 0.600 C 241.200 1.103,240.356 1.200,236.000 1.200 C 231.644 1.200,230.800 1.103,230.800 0.600 C 230.800 0.072,227.111 0.000,200.000 0.000 C 172.889 0.000,169.200 0.072,169.200 0.600 C 169.200 1.103,168.356 1.200,164.000 1.200 C 159.644 1.200,158.800 1.103,158.800 0.600 C 158.800 -0.314,149.718 -0.289,149.529 0.625 M156.400 2.953 C 156.950 3.023,155.814 3.107,153.876 3.140 C 151.938 3.173,150.436 3.065,150.538 2.900 C 150.708 2.623,154.042 2.654,156.400 2.953 M249.400 2.800 C 249.559 3.057,248.388 3.174,246.124 3.127 L 242.600 3.053 245.800 2.800 C 247.560 2.661,249.034 2.514,249.076 2.473 C 249.118 2.433,249.264 2.580,249.400 2.800 M147.100 4.600 C 148.255 4.600,149.200 4.735,149.200 4.900 C 149.200 5.065,147.760 5.200,146.000 5.200 C 143.404 5.200,142.800 5.085,142.800 4.592 C 142.800 4.122,143.048 4.054,143.900 4.292 C 144.505 4.462,145.945 4.600,147.100 4.600 M257.200 4.600 C 257.200 5.083,256.578 5.200,254.000 5.200 C 252.240 5.200,250.800 5.060,250.800 4.889 C 250.800 4.719,251.481 4.644,252.314 4.723 C 253.146 4.803,254.451 4.689,255.214 4.470 C 257.134 3.919,257.200 3.923,257.200 4.600 M140.307 7.086 C 139.706 7.177,138.626 7.179,137.907 7.090 C 137.188 7.001,137.680 6.926,139.000 6.924 C 140.320 6.922,140.908 6.995,140.307 7.086 M262.307 7.086 C 261.706 7.177,260.626 7.179,259.907 7.090 C 259.188 7.001,259.680 6.926,261.000 6.924 C 262.320 6.922,262.908 6.995,262.307 7.086 M134.307 9.086 C 133.706 9.177,132.626 9.179,131.907 9.090 C 131.188 9.001,131.680 8.926,133.000 8.924 C 134.320 8.922,134.908 8.995,134.307 9.086 M268.307 9.086 C 267.706 9.177,266.626 9.179,265.907 9.090 C 265.188 9.001,265.680 8.926,267.000 8.924 C 268.320 8.922,268.908 8.995,268.307 9.086 M128.700 11.076 C 128.315 11.176,127.685 11.176,127.300 11.076 C 126.915 10.975,127.230 10.893,128.000 10.893 C 128.770 10.893,129.085 10.975,128.700 11.076 M272.700 11.076 C 272.315 11.176,271.685 11.176,271.300 11.076 C 270.915 10.975,271.230 10.893,272.000 10.893 C 272.770 10.893,273.085 10.975,272.700 11.076 M123.600 12.836 L 125.400 13.093 123.100 13.147 C 121.261 13.189,120.800 13.075,120.800 12.576 C 120.800 12.177,120.980 12.065,121.300 12.266 C 121.575 12.438,122.610 12.695,123.600 12.836 M279.200 12.600 C 279.200 13.064,278.722 13.189,277.100 13.150 L 275.000 13.100 276.693 12.824 C 277.623 12.672,278.508 12.425,278.659 12.274 C 279.072 11.861,279.200 11.939,279.200 12.600 M118.700 15.076 C 118.315 15.176,117.685 15.176,117.300 15.076 C 116.915 14.975,117.230 14.893,118.000 14.893 C 118.770 14.893,119.085 14.975,118.700 15.076 M282.700 15.076 C 282.315 15.176,281.685 15.176,281.300 15.076 C 280.915 14.975,281.230 14.893,282.000 14.893 C 282.770 14.893,283.085 14.975,282.700 15.076 M114.700 17.076 C 114.315 17.176,113.685 17.176,113.300 17.076 C 112.915 16.975,113.230 16.893,114.000 16.893 C 114.770 16.893,115.085 16.975,114.700 17.076 M111.200 19.045 C 111.200 19.130,110.660 19.200,110.000 19.200 C 109.340 19.200,108.800 19.051,108.800 18.869 C 108.800 18.687,109.340 18.618,110.000 18.715 C 110.660 18.812,111.200 18.960,111.200 19.045 M291.200 18.800 C 291.200 19.020,290.705 19.182,290.100 19.160 L 289.000 19.120 290.000 18.800 C 290.550 18.624,291.045 18.462,291.100 18.440 C 291.155 18.418,291.200 18.580,291.200 18.800 M106.700 21.076 C 106.315 21.176,105.685 21.176,105.300 21.076 C 104.915 20.975,105.230 20.893,106.000 20.893 C 106.770 20.893,107.085 20.975,106.700 21.076 M102.700 23.076 C 102.315 23.176,101.685 23.176,101.300 23.076 C 100.915 22.975,101.230 22.893,102.000 22.893 C 102.770 22.893,103.085 22.975,102.700 23.076 M97.200 26.800 C 97.200 27.020,96.615 27.187,95.900 27.172 C 94.811 27.148,94.730 27.088,95.400 26.800 C 96.505 26.325,97.200 26.325,97.200 26.800 M304.600 26.800 C 305.309 27.105,305.275 27.147,304.300 27.172 C 303.695 27.187,303.200 27.020,303.200 26.800 C 303.200 26.331,303.507 26.331,304.600 26.800 M93.167 29.056 C 93.258 29.135,92.853 29.200,92.267 29.200 C 91.396 29.200,91.200 29.383,91.200 30.200 C 91.200 31.063,91.022 31.199,89.900 31.194 L 88.600 31.188 89.600 30.684 C 90.150 30.407,90.658 29.779,90.728 29.289 C 90.844 28.478,92.331 28.335,93.167 29.056 M213.600 29.204 C 215.470 29.416,218.890 29.778,221.200 30.008 C 227.875 30.675,242.479 33.622,247.800 35.377 C 248.680 35.667,251.560 36.585,254.200 37.416 C 256.840 38.248,259.180 39.055,259.400 39.212 C 259.620 39.368,260.520 39.720,261.400 39.995 C 263.341 40.601,263.908 40.840,271.000 44.046 C 279.647 47.955,290.306 53.989,297.800 59.217 C 300.065 60.797,304.652 64.200,305.863 65.200 C 306.530 65.750,307.750 66.740,308.576 67.400 C 310.645 69.055,313.475 71.512,315.371 73.300 C 316.245 74.125,317.105 74.800,317.281 74.800 C 317.456 74.800,317.600 75.074,317.600 75.409 C 317.600 75.743,318.050 76.222,318.600 76.473 C 319.603 76.930,319.807 77.260,319.360 77.707 C 319.081 77.985,317.286 77.238,316.405 76.476 C 316.072 76.189,314.630 75.072,313.200 73.996 C 311.770 72.920,310.150 71.700,309.600 71.284 C 308.405 70.382,302.848 66.662,300.600 65.260 C 297.472 63.308,296.175 62.508,294.200 61.310 C 292.008 59.980,279.950 54.000,279.460 54.000 C 279.293 54.000,278.389 53.650,277.450 53.223 C 275.440 52.307,273.108 51.434,269.800 50.358 C 268.480 49.928,266.860 49.327,266.200 49.022 C 265.540 48.716,264.280 48.337,263.400 48.179 C 262.520 48.021,261.170 47.647,260.400 47.347 C 257.537 46.232,245.171 43.687,237.400 42.613 C 227.815 41.289,208.182 41.188,197.800 42.408 C 191.150 43.190,178.228 45.799,173.200 47.375 C 168.059 48.986,163.133 50.706,162.353 51.162 C 161.997 51.370,160.917 51.750,159.953 52.006 C 158.989 52.262,157.570 52.748,156.800 53.086 C 150.439 55.875,141.055 60.523,138.400 62.200 C 137.190 62.964,135.930 63.708,135.600 63.854 C 135.270 63.999,134.460 64.510,133.800 64.989 C 133.140 65.467,132.301 65.969,131.935 66.104 C 131.331 66.326,125.255 70.396,124.227 71.266 C 123.992 71.465,122.360 72.693,120.600 73.995 C 115.104 78.060,105.731 86.571,101.189 91.618 C 99.545 93.445,97.840 95.310,97.400 95.763 C 96.234 96.961,92.422 101.651,90.803 103.878 C 90.034 104.935,89.306 105.890,89.184 106.000 C 88.775 106.370,84.134 112.993,83.859 113.600 C 83.709 113.930,83.056 115.010,82.407 116.000 C 81.758 116.990,80.863 118.465,80.417 119.277 C 79.972 120.089,79.155 121.420,78.602 122.235 C 78.049 123.050,76.856 125.266,75.951 127.159 C 75.047 129.051,73.439 132.400,72.379 134.600 C 71.319 136.800,70.159 139.410,69.801 140.400 C 69.444 141.390,68.726 143.370,68.207 144.800 C 64.449 155.154,63.965 156.754,62.160 164.800 C 60.417 172.567,60.210 173.827,58.743 185.600 C 58.235 189.670,58.237 210.183,58.745 214.400 C 59.711 222.418,60.777 229.722,61.154 230.915 C 61.378 231.622,61.760 233.370,62.003 234.800 C 62.623 238.440,65.393 247.652,67.957 254.600 C 68.607 256.360,69.428 258.610,69.783 259.600 C 70.496 261.587,71.531 263.807,75.721 272.341 C 77.271 275.499,78.757 278.300,79.023 278.566 C 79.290 278.832,79.895 279.759,80.369 280.625 C 80.842 281.491,81.661 282.920,82.187 283.800 C 82.714 284.680,83.453 285.940,83.828 286.600 C 85.487 289.513,95.173 301.876,99.670 306.821 C 104.137 311.733,105.991 313.569,111.561 318.600 C 112.535 319.480,113.829 320.676,114.436 321.257 C 116.094 322.845,127.530 331.324,130.021 332.812 C 132.278 334.160,133.611 334.990,136.977 337.145 C 140.899 339.656,155.430 346.639,159.600 348.017 C 160.810 348.417,163.510 349.394,165.600 350.188 C 173.365 353.141,183.903 355.661,196.579 357.598 C 205.173 358.911,228.184 358.918,237.021 357.609 C 242.987 356.726,247.608 355.918,250.000 355.339 C 251.430 354.993,253.777 354.471,255.217 354.179 C 256.656 353.888,259.086 353.254,260.617 352.772 C 266.184 351.016,270.654 349.514,273.103 348.574 C 278.445 346.522,280.775 345.580,281.866 345.029 C 282.490 344.714,284.260 343.862,285.800 343.135 C 289.007 341.620,295.090 338.349,297.300 336.950 C 298.125 336.427,299.475 335.577,300.300 335.061 C 305.072 332.072,310.689 328.185,312.022 326.948 C 312.584 326.427,313.253 326.000,313.508 326.000 C 313.763 326.000,314.165 325.640,314.400 325.200 C 314.635 324.760,315.082 324.400,315.391 324.400 C 315.701 324.400,316.190 324.082,316.477 323.694 C 317.083 322.876,319.008 321.941,319.360 322.293 C 319.841 322.775,319.578 323.228,318.600 323.600 C 318.050 323.809,317.600 324.246,317.600 324.570 C 317.600 324.895,317.345 325.304,317.033 325.480 C 316.721 325.656,315.539 326.679,314.407 327.753 C 312.314 329.736,307.893 333.484,305.769 335.076 C 301.286 338.434,298.833 340.173,294.797 342.854 C 292.269 344.534,289.660 346.204,289.000 346.566 C 288.340 346.927,287.260 347.555,286.600 347.962 C 281.623 351.028,271.816 355.909,264.600 358.909 C 258.139 361.596,247.781 364.985,241.586 366.440 C 213.825 372.958,187.363 373.128,160.800 366.957 C 152.279 364.978,140.950 361.340,135.304 358.772 C 134.372 358.347,133.506 358.000,133.380 358.000 C 132.371 358.000,119.053 351.316,113.684 348.115 C 112.868 347.628,111.500 346.847,110.644 346.378 C 109.788 345.910,108.888 345.361,108.644 345.158 C 108.400 344.956,106.400 343.595,104.200 342.134 C 89.697 332.501,69.526 313.219,62.022 301.813 C 61.680 301.293,59.720 298.390,57.666 295.362 C 54.281 290.371,52.021 286.702,49.926 282.800 C 49.512 282.030,48.546 280.230,47.780 278.800 C 47.013 277.370,45.292 273.770,43.956 270.800 C 42.619 267.830,41.183 264.637,40.763 263.704 C 40.343 262.772,40.000 261.809,40.000 261.565 C 40.000 261.321,39.737 260.554,39.417 259.860 C 38.799 258.525,36.790 252.455,35.095 246.800 C 30.527 231.564,27.813 208.607,28.763 193.245 C 29.279 184.887,30.621 172.119,31.121 170.800 C 31.330 170.250,31.625 168.810,31.778 167.600 C 32.084 165.171,34.048 156.751,35.184 153.000 C 37.059 146.807,39.008 140.907,39.477 140.000 C 39.762 139.450,39.996 138.843,39.998 138.650 C 39.999 138.458,40.466 137.198,41.037 135.850 C 46.647 122.589,53.641 109.942,60.971 99.800 C 71.142 85.729,85.729 71.142,99.800 60.971 C 108.462 54.710,121.399 47.334,131.430 42.937 C 135.700 41.065,138.316 40.000,138.650 39.998 C 138.843 39.996,139.450 39.762,140.000 39.477 C 140.907 39.008,146.807 37.059,153.000 35.184 C 156.751 34.048,165.171 32.084,167.600 31.778 C 168.810 31.625,170.250 31.330,170.800 31.121 C 171.913 30.699,184.481 29.295,191.600 28.797 C 196.909 28.426,208.641 28.643,213.600 29.204 M309.272 29.290 C 309.342 29.779,309.850 30.407,310.400 30.684 L 311.400 31.188 310.100 31.194 C 308.978 31.199,308.800 31.063,308.800 30.200 C 308.800 29.385,308.596 29.193,307.700 29.160 L 306.600 29.120 307.600 28.800 C 309.099 28.320,309.134 28.330,309.272 29.290 M86.600 32.911 C 87.210 33.060,87.138 33.118,86.300 33.154 C 85.406 33.191,85.200 33.387,85.200 34.200 C 85.200 35.067,85.027 35.196,83.900 35.173 C 82.654 35.147,82.638 35.128,83.524 34.701 C 84.047 34.450,84.548 33.762,84.676 33.122 C 84.830 32.349,85.046 32.103,85.351 32.351 C 85.598 32.550,86.160 32.802,86.600 32.911 M316.495 34.710 C 317.352 35.122,317.330 35.147,316.100 35.173 C 314.973 35.196,314.800 35.067,314.800 34.200 C 314.800 33.387,314.594 33.191,313.700 33.154 C 312.869 33.119,312.795 33.060,313.400 32.915 C 313.840 32.809,314.378 32.552,314.596 32.345 C 314.852 32.101,315.099 32.377,315.291 33.120 C 315.456 33.754,315.997 34.470,316.495 34.710 M78.600 38.800 C 79.309 39.105,79.275 39.147,78.300 39.172 C 77.401 39.195,77.200 39.383,77.200 40.200 C 77.200 41.067,77.027 41.196,75.900 41.173 C 74.666 41.147,74.646 41.123,75.509 40.708 C 76.008 40.467,76.523 39.849,76.652 39.335 C 76.900 38.348,77.295 38.239,78.600 38.800 M323.348 39.335 C 323.477 39.849,323.992 40.467,324.491 40.708 C 325.354 41.123,325.334 41.147,324.100 41.173 C 322.973 41.196,322.800 41.067,322.800 40.200 C 322.800 39.383,322.599 39.195,321.700 39.172 C 320.725 39.147,320.691 39.105,321.400 38.800 C 322.705 38.239,323.100 38.348,323.348 39.335 M68.300 47.125 C 67.436 47.226,67.200 47.462,67.200 48.227 C 67.200 48.998,66.993 49.200,66.200 49.200 C 65.400 49.200,65.200 49.400,65.200 50.200 C 65.200 51.067,65.027 51.197,63.900 51.175 C 62.711 51.151,62.678 51.118,63.509 50.784 C 64.009 50.583,64.535 50.100,64.679 49.710 C 64.823 49.319,65.359 48.604,65.870 48.119 C 66.382 47.635,66.800 46.969,66.800 46.640 C 66.800 46.134,67.000 46.115,68.100 46.519 L 69.400 46.997 68.300 47.125 M334.391 48.400 C 334.627 48.400,334.993 48.855,335.204 49.411 C 335.415 49.967,335.996 50.585,336.494 50.785 C 337.320 51.117,337.286 51.152,336.100 51.175 C 334.973 51.197,334.800 51.067,334.800 50.200 C 334.800 49.400,334.600 49.200,333.800 49.200 C 333.000 49.200,332.800 49.000,332.800 48.200 C 332.800 47.384,332.598 47.194,331.700 47.168 L 330.600 47.135 331.794 46.609 C 332.936 46.106,333.008 46.133,333.474 47.242 C 333.742 47.879,334.155 48.400,334.391 48.400 M233.400 50.787 C 234.500 51.006,237.920 51.541,241.000 51.977 C 247.808 52.941,260.350 56.077,265.800 58.177 C 267.340 58.771,269.590 59.589,270.800 59.995 C 283.320 64.203,304.337 76.810,315.187 86.622 C 321.027 91.904,333.090 104.388,334.104 106.200 C 334.278 106.511,336.132 109.051,338.224 111.842 C 340.316 114.634,342.658 118.017,343.430 119.359 C 344.201 120.702,345.572 122.970,346.475 124.400 C 349.050 128.476,354.998 140.578,356.207 144.200 C 356.501 145.080,357.397 147.510,358.199 149.600 C 359.760 153.671,360.801 157.093,362.032 162.200 C 362.456 163.960,362.990 165.829,363.217 166.353 C 363.627 167.297,364.693 173.517,365.822 181.549 C 367.228 191.555,367.220 209.197,365.805 218.800 C 364.527 227.473,363.591 232.870,363.254 233.514 C 363.057 233.892,362.596 235.531,362.230 237.157 C 361.394 240.873,359.573 246.947,358.200 250.600 C 357.621 252.140,356.800 254.371,356.375 255.558 C 354.844 259.838,349.516 270.635,346.288 276.000 C 341.491 283.972,341.733 283.609,337.683 288.907 C 336.298 290.718,334.746 292.836,334.233 293.612 C 333.398 294.877,325.478 303.704,322.673 306.495 C 318.457 310.692,311.758 316.456,307.000 319.980 C 299.523 325.519,299.064 325.849,298.600 326.038 C 298.380 326.127,297.157 326.830,295.882 327.600 C 294.607 328.370,292.627 329.566,291.482 330.257 C 289.600 331.392,283.477 334.543,278.800 336.781 C 276.270 337.992,271.695 339.840,269.800 340.417 C 268.920 340.685,268.020 341.042,267.800 341.211 C 267.580 341.380,266.469 341.793,265.331 342.128 C 264.194 342.464,262.911 342.926,262.481 343.156 C 262.052 343.386,260.192 343.925,258.350 344.353 C 256.507 344.781,252.808 345.679,250.130 346.349 C 247.451 347.018,243.041 347.852,240.330 348.202 C 237.618 348.552,234.680 349.051,233.800 349.311 C 230.950 350.154,204.046 349.962,198.200 349.057 C 183.202 346.737,175.325 344.794,164.400 340.724 C 157.553 338.172,146.997 333.192,142.420 330.354 C 141.419 329.733,139.961 328.874,139.180 328.445 C 137.694 327.629,133.116 324.677,130.912 323.114 C 130.204 322.611,128.978 321.750,128.188 321.200 C 123.180 317.715,113.653 309.062,114.350 308.631 C 114.920 308.279,116.000 308.810,116.000 309.443 C 116.000 309.749,116.326 310.000,116.725 310.000 C 117.123 310.000,117.804 310.315,118.238 310.700 C 120.144 312.390,122.585 314.109,127.100 316.941 C 127.925 317.458,129.860 318.684,131.400 319.666 C 139.627 324.907,157.098 332.239,166.000 334.187 C 167.430 334.500,169.324 335.013,170.208 335.328 C 171.093 335.642,172.803 336.030,174.008 336.188 C 175.214 336.347,177.981 336.822,180.159 337.244 C 189.777 339.108,212.554 339.333,221.800 337.655 C 222.900 337.456,225.600 336.994,227.800 336.630 C 235.831 335.299,251.179 330.595,257.800 327.436 C 265.256 323.878,270.307 321.242,273.600 319.190 C 275.690 317.887,277.919 316.530,278.553 316.173 C 279.187 315.816,281.167 314.416,282.953 313.061 C 284.739 311.706,286.650 310.306,287.200 309.948 C 288.400 309.169,296.180 302.457,299.035 299.738 C 304.971 294.084,315.330 281.355,319.168 275.000 C 320.098 273.460,321.572 271.045,322.445 269.634 C 323.318 268.222,325.268 264.532,326.779 261.434 C 329.283 256.300,330.155 254.274,332.729 247.600 C 334.076 244.110,335.528 239.573,335.994 237.400 C 336.229 236.300,336.772 234.230,337.199 232.800 C 343.087 213.079,341.738 177.760,334.302 157.000 C 333.750 155.460,332.719 152.580,332.011 150.600 C 329.895 144.684,325.553 135.698,321.767 129.400 C 320.313 126.980,318.825 124.493,318.461 123.874 C 316.930 121.267,309.450 111.687,305.534 107.316 C 301.851 103.205,300.097 101.415,296.209 97.800 C 293.431 95.216,289.388 91.845,286.600 89.785 C 284.840 88.486,283.310 87.321,283.200 87.198 C 282.843 86.797,279.017 84.134,278.400 83.857 C 278.070 83.708,277.039 83.095,276.109 82.494 C 272.566 80.203,266.944 76.941,265.600 76.397 C 264.830 76.085,262.850 75.134,261.200 74.283 C 259.550 73.433,257.300 72.381,256.200 71.947 C 250.909 69.859,241.814 66.746,239.350 66.181 C 237.838 65.834,235.827 65.290,234.883 64.974 C 233.938 64.657,231.598 64.133,229.683 63.810 C 227.767 63.486,224.585 62.949,222.611 62.616 C 220.638 62.282,215.778 61.819,211.811 61.587 C 207.845 61.354,204.335 61.072,204.011 60.960 C 203.416 60.755,194.670 61.287,186.600 62.020 C 181.936 62.444,174.458 63.701,170.800 64.676 C 169.590 64.999,167.177 65.613,165.438 66.042 C 161.815 66.935,156.829 68.574,152.200 70.396 C 150.440 71.088,148.545 71.799,147.988 71.974 C 146.362 72.487,134.001 78.741,132.898 79.609 C 132.345 80.044,131.674 80.400,131.408 80.400 C 131.142 80.400,130.598 80.760,130.200 81.200 C 129.802 81.640,129.308 82.000,129.103 82.000 C 128.898 82.000,127.981 82.511,127.065 83.135 C 126.149 83.760,124.590 84.789,123.600 85.423 C 122.610 86.057,120.990 87.230,120.000 88.029 C 119.010 88.829,117.750 89.716,117.200 90.000 C 116.650 90.284,116.056 90.761,115.880 91.058 C 115.569 91.584,114.000 91.839,114.000 91.363 C 114.000 91.085,119.037 86.000,119.313 86.000 C 119.415 86.000,120.197 85.350,121.050 84.556 C 123.416 82.353,129.470 77.883,135.000 74.257 C 141.219 70.178,152.929 63.938,158.000 62.001 C 158.770 61.707,159.602 61.313,159.849 61.127 C 160.095 60.940,161.265 60.502,162.449 60.153 C 163.632 59.804,164.780 59.382,165.000 59.215 C 165.480 58.851,171.697 56.804,176.410 55.458 C 180.935 54.166,190.417 52.135,193.400 51.819 C 194.720 51.679,196.700 51.381,197.800 51.158 C 203.300 50.040,228.331 49.780,233.400 50.787 M51.200 64.000 C 51.200 65.013,51.044 65.200,50.200 65.200 C 49.400 65.200,49.200 65.400,49.200 66.200 C 49.200 67.000,49.000 67.200,48.200 67.200 C 47.384 67.200,47.194 67.402,47.168 68.300 L 47.135 69.400 46.609 68.206 C 46.106 67.064,46.133 66.992,47.242 66.526 C 47.879 66.258,48.400 65.845,48.400 65.609 C 48.400 65.373,48.867 65.002,49.439 64.785 C 50.010 64.568,50.571 64.033,50.685 63.595 C 50.985 62.448,51.200 62.617,51.200 64.000 M350.589 64.796 C 351.145 65.007,351.600 65.373,351.600 65.609 C 351.600 65.845,352.121 66.258,352.758 66.526 C 353.867 66.992,353.894 67.064,353.391 68.206 L 352.865 69.400 352.832 68.300 C 352.806 67.402,352.616 67.200,351.800 67.200 C 351.000 67.200,350.800 67.000,350.800 66.200 C 350.800 65.400,350.600 65.200,349.800 65.200 C 348.933 65.200,348.803 65.027,348.825 63.900 C 348.848 62.714,348.883 62.680,349.215 63.506 C 349.415 64.004,350.033 64.585,350.589 64.796 M41.200 76.000 C 41.200 77.013,41.044 77.200,40.200 77.200 C 39.383 77.200,39.195 77.401,39.172 78.300 C 39.147 79.275,39.105 79.309,38.800 78.600 C 38.236 77.287,38.349 76.899,39.373 76.642 C 39.909 76.508,40.461 76.039,40.600 75.599 C 40.964 74.455,41.200 74.613,41.200 76.000 M360.665 76.652 C 361.652 76.900,361.761 77.295,361.200 78.600 C 360.895 79.309,360.853 79.275,360.828 78.300 C 360.805 77.401,360.617 77.200,359.800 77.200 C 358.933 77.200,358.804 77.027,358.827 75.900 C 358.853 74.666,358.877 74.646,359.292 75.509 C 359.533 76.008,360.151 76.523,360.665 76.652 M35.200 84.000 C 35.200 85.013,35.044 85.200,34.200 85.200 C 33.387 85.200,33.191 85.406,33.154 86.300 C 33.118 87.138,33.060 87.210,32.911 86.600 C 32.802 86.160,32.550 85.598,32.351 85.351 C 32.103 85.045,32.360 84.828,33.161 84.668 C 33.861 84.528,34.441 84.103,34.595 83.616 C 34.963 82.456,35.200 82.606,35.200 84.000 M366.878 84.676 C 367.651 84.830,367.897 85.046,367.649 85.351 C 367.450 85.598,367.198 86.160,367.089 86.600 C 366.940 87.210,366.882 87.138,366.846 86.300 C 366.809 85.406,366.613 85.200,365.800 85.200 C 364.933 85.200,364.804 85.027,364.827 83.900 C 364.853 82.654,364.872 82.638,365.299 83.524 C 365.550 84.047,366.238 84.548,366.878 84.676 M31.200 90.000 C 31.200 91.013,31.044 91.200,30.200 91.200 C 29.383 91.200,29.200 91.396,29.200 92.267 C 29.200 93.527,29.011 93.409,28.656 91.928 C 28.440 91.026,28.542 90.835,29.299 90.728 C 29.795 90.658,30.378 90.195,30.595 89.700 C 31.113 88.520,31.200 88.563,31.200 90.000 M370.711 90.728 C 371.457 90.835,371.560 91.029,371.344 91.928 C 370.989 93.409,370.800 93.527,370.800 92.267 C 370.800 91.396,370.617 91.200,369.800 91.200 C 368.937 91.200,368.801 91.022,368.806 89.900 L 368.812 88.600 369.316 89.600 C 369.593 90.150,370.221 90.658,370.711 90.728 M27.030 97.103 C 26.559 97.575,26.371 96.857,26.676 95.747 L 26.990 94.600 27.125 95.737 C 27.199 96.362,27.157 96.977,27.030 97.103 M373.572 96.700 C 373.587 96.975,373.420 97.200,373.200 97.200 C 372.980 97.200,372.813 96.615,372.828 95.900 C 372.856 94.620,373.493 95.306,373.572 96.700 M23.076 102.700 C 22.975 103.085,22.893 102.770,22.893 102.000 C 22.893 101.230,22.975 100.915,23.076 101.300 C 23.176 101.685,23.176 102.315,23.076 102.700 M377.076 102.700 C 376.975 103.085,376.893 102.770,376.893 102.000 C 376.893 101.230,376.975 100.915,377.076 101.300 C 377.176 101.685,377.176 102.315,377.076 102.700 M21.076 106.700 C 20.975 107.085,20.893 106.770,20.893 106.000 C 20.893 105.230,20.975 104.915,21.076 105.300 C 21.176 105.685,21.176 106.315,21.076 106.700 M379.076 106.700 C 378.975 107.085,378.893 106.770,378.893 106.000 C 378.893 105.230,378.975 104.915,379.076 105.300 C 379.176 105.685,379.176 106.315,379.076 106.700 M19.200 110.000 C 19.200 110.660,19.130 111.200,19.045 111.200 C 18.960 111.200,18.812 110.660,18.715 110.000 C 18.618 109.340,18.687 108.800,18.869 108.800 C 19.051 108.800,19.200 109.340,19.200 110.000 M381.285 110.000 C 381.188 110.660,381.040 111.200,380.955 111.200 C 380.870 111.200,380.800 110.660,380.800 110.000 C 380.800 109.340,380.949 108.800,381.131 108.800 C 381.313 108.800,381.382 109.340,381.285 110.000 M17.076 114.700 C 16.975 115.085,16.893 114.770,16.893 114.000 C 16.893 113.230,16.975 112.915,17.076 113.300 C 17.176 113.685,17.176 114.315,17.076 114.700 M383.076 114.700 C 382.975 115.085,382.893 114.770,382.893 114.000 C 382.893 113.230,382.975 112.915,383.076 113.300 C 383.176 113.685,383.176 114.315,383.076 114.700 M15.076 118.700 C 14.975 119.085,14.893 118.770,14.893 118.000 C 14.893 117.230,14.975 116.915,15.076 117.300 C 15.176 117.685,15.176 118.315,15.076 118.700 M385.076 118.700 C 384.975 119.085,384.893 118.770,384.893 118.000 C 384.893 117.230,384.975 116.915,385.076 117.300 C 385.176 117.685,385.176 118.315,385.076 118.700 M13.147 123.100 L 13.093 125.400 12.836 123.600 C 12.695 122.610,12.438 121.575,12.266 121.300 C 12.065 120.980,12.177 120.800,12.576 120.800 C 13.075 120.800,13.189 121.261,13.147 123.100 M387.734 121.300 C 387.562 121.575,387.305 122.610,387.164 123.600 L 386.907 125.400 386.853 123.100 C 386.811 121.261,386.925 120.800,387.424 120.800 C 387.823 120.800,387.935 120.980,387.734 121.300 M11.076 128.700 C 10.975 129.085,10.893 128.770,10.893 128.000 C 10.893 127.230,10.975 126.915,11.076 127.300 C 11.176 127.685,11.176 128.315,11.076 128.700 M389.076 128.700 C 388.975 129.085,388.893 128.770,388.893 128.000 C 388.893 127.230,388.975 126.915,389.076 127.300 C 389.176 127.685,389.176 128.315,389.076 128.700 M9.090 134.093 C 9.001 134.812,8.926 134.320,8.924 133.000 C 8.922 131.680,8.995 131.092,9.086 131.693 C 9.177 132.294,9.179 133.374,9.090 134.093 M391.090 134.093 C 391.001 134.812,390.926 134.320,390.924 133.000 C 390.922 131.680,390.995 131.092,391.086 131.693 C 391.177 132.294,391.179 133.374,391.090 134.093 M7.090 140.093 C 7.001 140.812,6.926 140.320,6.924 139.000 C 6.922 137.680,6.995 137.092,7.086 137.693 C 7.177 138.294,7.179 139.374,7.090 140.093 M393.090 140.093 C 393.001 140.812,392.926 140.320,392.924 139.000 C 392.922 137.680,392.995 137.092,393.086 137.693 C 393.177 138.294,393.179 139.374,393.090 140.093 M5.200 146.000 C 5.200 147.760,5.065 149.200,4.900 149.200 C 4.735 149.200,4.600 148.255,4.600 147.100 C 4.600 145.945,4.462 144.505,4.292 143.900 C 4.054 143.048,4.122 142.800,4.592 142.800 C 5.085 142.800,5.200 143.404,5.200 146.000 M164.876 143.597 C 168.328 144.035,171.928 144.648,172.876 144.959 C 173.824 145.270,175.672 145.827,176.983 146.197 C 178.293 146.567,179.728 147.125,180.172 147.435 C 180.615 147.746,181.254 148.000,181.592 148.000 C 184.219 148.000,196.473 157.345,199.950 162.000 C 200.525 162.770,201.088 163.490,201.201 163.600 C 202.762 165.115,207.066 173.505,208.691 178.200 C 212.129 188.134,212.800 195.916,212.800 225.879 C 212.800 252.027,213.557 250.096,205.800 243.737 C 195.042 234.916,188.886 222.257,187.623 206.356 C 186.116 187.388,181.523 176.510,173.273 172.367 C 172.683 172.071,171.750 171.533,171.200 171.171 C 164.861 167.002,145.394 166.900,140.400 171.010 C 140.070 171.281,139.205 171.805,138.479 172.173 C 137.752 172.541,136.840 173.148,136.451 173.521 C 136.063 173.895,134.947 174.942,133.973 175.848 C 132.998 176.754,131.790 178.104,131.289 178.848 C 129.125 182.060,128.463 183.173,128.192 184.059 C 128.034 184.576,127.554 185.781,127.126 186.735 C 126.698 187.689,126.091 189.759,125.777 191.335 C 125.463 192.911,125.002 194.920,124.752 195.800 C 124.440 196.899,124.240 206.558,124.112 226.674 C 123.977 247.968,123.800 256.117,123.463 256.568 C 122.976 257.221,101.095 257.595,99.487 256.978 C 98.361 256.546,98.350 256.199,98.501 226.185 C 98.674 191.878,99.074 187.853,103.486 176.000 C 106.505 167.889,112.964 158.968,119.000 154.570 C 119.880 153.929,120.690 153.298,120.800 153.168 C 121.699 152.104,132.469 146.400,133.578 146.400 C 133.787 146.400,135.433 145.934,137.235 145.365 C 144.592 143.041,155.167 142.364,164.876 143.597 M300.640 143.106 C 301.655 143.784,301.795 145.548,301.688 156.315 L 301.576 167.629 300.562 168.015 C 299.952 168.246,289.078 168.413,273.274 168.432 C 258.823 168.449,245.560 168.610,243.800 168.789 C 239.285 169.249,233.623 170.368,232.267 171.069 C 231.635 171.395,230.352 171.893,229.416 172.175 C 228.480 172.457,226.439 173.512,224.880 174.521 C 220.986 177.040,220.813 177.036,219.523 174.400 C 218.931 173.190,218.436 171.978,218.423 171.708 C 218.347 170.099,212.779 159.855,210.275 156.715 C 208.309 154.250,208.944 153.436,215.552 149.955 C 222.387 146.355,231.393 144.229,244.000 143.240 C 249.266 142.827,300.042 142.707,300.640 143.106 M395.708 143.900 C 395.538 144.505,395.400 145.945,395.400 147.100 C 395.400 148.255,395.265 149.200,395.100 149.200 C 394.935 149.200,394.800 147.760,394.800 146.000 C 394.800 143.404,394.915 142.800,395.408 142.800 C 395.878 142.800,395.946 143.048,395.708 143.900 M3.127 153.900 L 3.053 157.400 2.827 154.200 C 2.702 152.440,2.656 150.865,2.724 150.700 C 3.079 149.837,3.193 150.741,3.127 153.900 M397.233 153.891 C 397.108 158.175,396.800 158.111,396.800 153.800 C 396.800 151.857,396.918 150.384,397.062 150.528 C 397.206 150.672,397.283 152.185,397.233 153.891 M227.736 227.217 C 230.438 228.665,233.347 229.582,238.630 230.651 L 243.800 231.698 272.385 231.867 C 288.106 231.960,301.066 232.132,301.185 232.250 C 301.575 232.639,301.813 255.236,301.434 255.930 C 301.233 256.299,300.873 256.732,300.634 256.894 C 299.972 257.342,247.673 257.248,242.200 256.789 C 233.854 256.089,226.329 254.661,224.900 253.506 C 224.360 253.070,224.135 227.198,224.667 226.667 C 225.139 226.194,226.175 226.380,227.736 227.217 M3.200 246.224 C 3.200 248.107,3.065 249.564,2.900 249.463 C 2.594 249.275,2.721 242.800,3.030 242.800 C 3.124 242.800,3.200 244.341,3.200 246.224 M397.233 246.109 C 397.283 247.815,397.206 249.328,397.062 249.472 C 396.918 249.616,396.800 248.143,396.800 246.200 C 396.800 241.889,397.108 241.825,397.233 246.109 M5.200 254.000 C 5.200 256.596,5.085 257.200,4.592 257.200 C 4.122 257.200,4.054 256.952,4.292 256.100 C 4.462 255.495,4.600 254.055,4.600 252.900 C 4.600 251.745,4.735 250.800,4.900 250.800 C 5.065 250.800,5.200 252.240,5.200 254.000 M395.400 252.900 C 395.400 254.055,395.538 255.495,395.708 256.100 C 395.946 256.952,395.878 257.200,395.408 257.200 C 394.915 257.200,394.800 256.596,394.800 254.000 C 394.800 252.240,394.935 250.800,395.100 250.800 C 395.265 250.800,395.400 251.745,395.400 252.900 M7.090 262.093 C 7.001 262.812,6.926 262.320,6.924 261.000 C 6.922 259.680,6.995 259.092,7.086 259.693 C 7.177 260.294,7.179 261.374,7.090 262.093 M393.090 262.093 C 393.001 262.812,392.926 262.320,392.924 261.000 C 392.922 259.680,392.995 259.092,393.086 259.693 C 393.177 260.294,393.179 261.374,393.090 262.093 M9.090 268.093 C 9.001 268.812,8.926 268.320,8.924 267.000 C 8.922 265.680,8.995 265.092,9.086 265.693 C 9.177 266.294,9.179 267.374,9.090 268.093 M391.090 268.093 C 391.001 268.812,390.926 268.320,390.924 267.000 C 390.922 265.680,390.995 265.092,391.086 265.693 C 391.177 266.294,391.179 267.374,391.090 268.093 M11.076 272.700 C 10.975 273.085,10.893 272.770,10.893 272.000 C 10.893 271.230,10.975 270.915,11.076 271.300 C 11.176 271.685,11.176 272.315,11.076 272.700 M389.076 272.700 C 388.975 273.085,388.893 272.770,388.893 272.000 C 388.893 271.230,388.975 270.915,389.076 271.300 C 389.176 271.685,389.176 272.315,389.076 272.700 M13.200 277.000 C 13.200 278.711,13.064 279.200,12.586 279.200 C 12.103 279.200,12.060 279.035,12.386 278.426 C 12.614 278.001,12.800 277.011,12.800 276.226 C 12.800 275.442,12.890 274.800,13.000 274.800 C 13.110 274.800,13.200 275.790,13.200 277.000 M387.734 278.700 C 387.935 279.020,387.823 279.200,387.424 279.200 C 386.925 279.200,386.811 278.739,386.853 276.900 L 386.907 274.600 387.164 276.400 C 387.305 277.390,387.562 278.425,387.734 278.700 M15.076 282.700 C 14.975 283.085,14.893 282.770,14.893 282.000 C 14.893 281.230,14.975 280.915,15.076 281.300 C 15.176 281.685,15.176 282.315,15.076 282.700 M385.076 282.700 C 384.975 283.085,384.893 282.770,384.893 282.000 C 384.893 281.230,384.975 280.915,385.076 281.300 C 385.176 281.685,385.176 282.315,385.076 282.700 M17.076 286.700 C 16.975 287.085,16.893 286.770,16.893 286.000 C 16.893 285.230,16.975 284.915,17.076 285.300 C 17.176 285.685,17.176 286.315,17.076 286.700 M383.076 286.700 C 382.975 287.085,382.893 286.770,382.893 286.000 C 382.893 285.230,382.975 284.915,383.076 285.300 C 383.176 285.685,383.176 286.315,383.076 286.700 M19.200 290.000 C 19.200 290.660,19.051 291.200,18.869 291.200 C 18.687 291.200,18.618 290.660,18.715 290.000 C 18.812 289.340,18.960 288.800,19.045 288.800 C 19.130 288.800,19.200 289.340,19.200 290.000 M381.285 290.000 C 381.382 290.660,381.313 291.200,381.131 291.200 C 380.949 291.200,380.800 290.660,380.800 290.000 C 380.800 289.340,380.870 288.800,380.955 288.800 C 381.040 288.800,381.188 289.340,381.285 290.000 M21.076 294.700 C 20.975 295.085,20.893 294.770,20.893 294.000 C 20.893 293.230,20.975 292.915,21.076 293.300 C 21.176 293.685,21.176 294.315,21.076 294.700 M379.076 294.700 C 378.975 295.085,378.893 294.770,378.893 294.000 C 378.893 293.230,378.975 292.915,379.076 293.300 C 379.176 293.685,379.176 294.315,379.076 294.700 M23.076 298.700 C 22.975 299.085,22.893 298.770,22.893 298.000 C 22.893 297.230,22.975 296.915,23.076 297.300 C 23.176 297.685,23.176 298.315,23.076 298.700 M377.076 298.700 C 376.975 299.085,376.893 298.770,376.893 298.000 C 376.893 297.230,376.975 296.915,377.076 297.300 C 377.176 297.685,377.176 298.315,377.076 298.700 M27.172 304.100 C 27.148 305.189,27.088 305.270,26.800 304.600 C 26.325 303.495,26.325 302.800,26.800 302.800 C 27.020 302.800,27.187 303.385,27.172 304.100 M373.572 303.300 C 373.493 304.694,372.856 305.380,372.828 304.100 C 372.813 303.385,372.980 302.800,373.200 302.800 C 373.420 302.800,373.587 303.025,373.572 303.300 M30.227 308.800 C 31.059 308.800,31.199 308.988,31.194 310.100 L 31.188 311.400 30.684 310.400 C 30.407 309.850,29.766 309.341,29.259 309.268 C 28.630 309.178,28.412 308.946,28.569 308.535 C 28.696 308.205,28.827 307.634,28.860 307.267 C 28.893 306.900,28.995 307.095,29.087 307.700 C 29.216 308.553,29.472 308.800,30.227 308.800 M371.344 308.072 C 371.560 308.971,371.457 309.165,370.711 309.272 C 370.221 309.342,369.593 309.850,369.316 310.400 L 368.812 311.400 368.806 310.100 C 368.801 308.978,368.937 308.800,369.800 308.800 C 370.617 308.800,370.800 308.604,370.800 307.733 C 370.800 306.473,370.989 306.591,371.344 308.072 M34.227 314.800 C 35.064 314.800,35.196 314.982,35.173 316.100 C 35.147 317.346,35.128 317.362,34.701 316.476 C 34.447 315.948,33.762 315.452,33.103 315.321 C 32.289 315.158,32.075 314.965,32.375 314.665 C 32.609 314.431,32.827 313.871,32.860 313.420 C 32.900 312.873,32.975 312.967,33.087 313.700 C 33.216 314.553,33.472 314.800,34.227 314.800 M367.649 314.649 C 367.897 314.954,367.651 315.170,366.878 315.324 C 366.238 315.452,365.550 315.953,365.299 316.476 C 364.872 317.362,364.853 317.346,364.827 316.100 C 364.804 314.973,364.933 314.800,365.800 314.800 C 366.613 314.800,366.809 314.594,366.846 313.700 C 366.882 312.862,366.940 312.790,367.089 313.400 C 367.198 313.840,367.450 314.402,367.649 314.649 M40.227 322.800 C 41.064 322.800,41.196 322.982,41.173 324.100 C 41.147 325.334,41.123 325.354,40.708 324.491 C 40.467 323.992,39.849 323.477,39.335 323.348 C 38.303 323.089,38.284 323.036,38.703 321.600 L 38.995 320.600 39.124 321.700 C 39.225 322.563,39.463 322.800,40.227 322.800 M361.572 322.657 C 361.587 322.908,361.179 323.219,360.665 323.348 C 360.151 323.477,359.533 323.992,359.292 324.491 C 358.877 325.354,358.853 325.334,358.827 324.100 C 358.804 322.973,358.933 322.800,359.800 322.800 C 360.617 322.800,360.805 322.599,360.828 321.700 C 360.856 320.590,361.495 321.412,361.572 322.657 M48.227 332.800 C 48.998 332.800,49.200 333.007,49.200 333.800 C 49.200 334.600,49.400 334.800,50.200 334.800 C 51.067 334.800,51.197 334.973,51.175 336.100 C 51.151 337.289,51.118 337.322,50.784 336.491 C 50.583 335.991,50.100 335.465,49.710 335.321 C 49.319 335.177,48.604 334.641,48.119 334.130 C 47.635 333.618,46.969 333.200,46.640 333.200 C 46.134 333.200,46.115 333.000,46.519 331.900 L 46.997 330.600 47.125 331.700 C 47.226 332.564,47.462 332.800,48.227 332.800 M352.758 333.474 C 352.121 333.742,351.600 334.155,351.600 334.391 C 351.600 334.627,351.145 334.993,350.589 335.204 C 350.033 335.415,349.415 335.996,349.215 336.494 C 348.883 337.320,348.848 337.286,348.825 336.100 C 348.803 334.973,348.933 334.800,349.800 334.800 C 350.600 334.800,350.800 334.600,350.800 333.800 C 350.800 333.000,351.000 332.800,351.800 332.800 C 352.616 332.800,352.806 332.598,352.832 331.700 L 352.865 330.600 353.391 331.794 C 353.894 332.936,353.867 333.008,352.758 333.474 M65.200 349.800 C 65.200 350.600,65.400 350.800,66.200 350.800 C 67.000 350.800,67.200 351.000,67.200 351.800 C 67.200 352.616,67.402 352.806,68.300 352.832 L 69.400 352.865 68.206 353.391 C 67.064 353.894,66.992 353.867,66.526 352.758 C 66.258 352.121,65.845 351.600,65.609 351.600 C 65.373 351.600,65.007 351.145,64.796 350.589 C 64.585 350.033,64.004 349.415,63.506 349.215 C 62.680 348.883,62.714 348.848,63.900 348.825 C 65.027 348.803,65.200 348.933,65.200 349.800 M336.494 349.215 C 335.996 349.415,335.415 350.033,335.204 350.589 C 334.993 351.145,334.627 351.600,334.391 351.600 C 334.155 351.600,333.742 352.121,333.474 352.758 C 333.008 353.867,332.936 353.894,331.794 353.391 L 330.600 352.865 331.700 352.832 C 332.598 352.806,332.800 352.616,332.800 351.800 C 332.800 351.000,333.000 350.800,333.800 350.800 C 334.600 350.800,334.800 350.600,334.800 349.800 C 334.800 348.933,334.973 348.803,336.100 348.825 C 337.286 348.848,337.320 348.883,336.494 349.215 M77.200 359.800 C 77.200 360.617,77.401 360.805,78.300 360.828 C 79.275 360.853,79.309 360.895,78.600 361.200 C 77.295 361.761,76.900 361.652,76.652 360.665 C 76.523 360.151,76.008 359.533,75.509 359.292 C 74.646 358.877,74.666 358.853,75.900 358.827 C 77.027 358.804,77.200 358.933,77.200 359.800 M324.491 359.292 C 323.992 359.533,323.477 360.151,323.348 360.665 C 323.100 361.652,322.705 361.761,321.400 361.200 C 320.691 360.895,320.725 360.853,321.700 360.828 C 322.599 360.805,322.800 360.617,322.800 359.800 C 322.800 358.933,322.973 358.804,324.100 358.827 C 325.334 358.853,325.354 358.877,324.491 359.292 M85.200 365.800 C 85.200 366.613,85.406 366.809,86.300 366.846 C 87.138 366.882,87.210 366.940,86.600 367.089 C 86.160 367.198,85.598 367.450,85.351 367.649 C 85.046 367.897,84.830 367.651,84.676 366.878 C 84.548 366.238,84.047 365.550,83.524 365.299 C 82.638 364.872,82.654 364.853,83.900 364.827 C 85.027 364.804,85.200 364.933,85.200 365.800 M316.476 365.299 C 315.953 365.550,315.452 366.238,315.324 366.878 C 315.170 367.651,314.954 367.897,314.649 367.649 C 314.402 367.450,313.840 367.198,313.400 367.089 C 312.790 366.940,312.862 366.882,313.700 366.846 C 314.594 366.809,314.800 366.613,314.800 365.800 C 314.800 364.933,314.973 364.804,316.100 364.827 C 317.346 364.853,317.362 364.872,316.476 365.299 M91.200 369.800 C 91.200 370.617,91.396 370.800,92.267 370.800 C 93.527 370.800,93.409 370.989,91.928 371.344 C 91.029 371.560,90.835 371.457,90.728 370.711 C 90.658 370.221,90.150 369.593,89.600 369.316 L 88.600 368.812 89.900 368.806 C 91.022 368.801,91.200 368.937,91.200 369.800 M310.400 369.316 C 309.850 369.593,309.342 370.221,309.272 370.711 C 309.165 371.457,308.971 371.560,308.072 371.344 C 306.591 370.989,306.473 370.800,307.733 370.800 C 308.604 370.800,308.800 370.617,308.800 369.800 C 308.800 368.937,308.978 368.801,310.100 368.806 L 311.400 368.812 310.400 369.316 M97.200 373.200 C 97.200 373.675,96.505 373.675,95.400 373.200 C 94.730 372.912,94.811 372.852,95.900 372.828 C 96.615 372.813,97.200 372.980,97.200 373.200 M304.600 373.200 C 303.507 373.669,303.200 373.669,303.200 373.200 C 303.200 372.980,303.695 372.813,304.300 372.828 C 305.275 372.853,305.309 372.895,304.600 373.200 M102.700 377.076 C 102.315 377.176,101.685 377.176,101.300 377.076 C 100.915 376.975,101.230 376.893,102.000 376.893 C 102.770 376.893,103.085 376.975,102.700 377.076 M106.700 379.076 C 106.315 379.176,105.685 379.176,105.300 379.076 C 104.915 378.975,105.230 378.893,106.000 378.893 C 106.770 378.893,107.085 378.975,106.700 379.076 M111.200 380.955 C 111.200 381.040,110.660 381.188,110.000 381.285 C 109.340 381.382,108.800 381.313,108.800 381.131 C 108.800 380.949,109.340 380.800,110.000 380.800 C 110.660 380.800,111.200 380.870,111.200 380.955 M291.200 381.145 C 291.200 381.334,290.750 381.403,290.200 381.298 C 289.650 381.193,289.200 381.038,289.200 380.953 C 289.200 380.869,289.650 380.800,290.200 380.800 C 290.750 380.800,291.200 380.955,291.200 381.145 M114.700 383.076 C 114.315 383.176,113.685 383.176,113.300 383.076 C 112.915 382.975,113.230 382.893,114.000 382.893 C 114.770 382.893,115.085 382.975,114.700 383.076 M118.700 385.076 C 118.315 385.176,117.685 385.176,117.300 385.076 C 116.915 384.975,117.230 384.893,118.000 384.893 C 118.770 384.893,119.085 384.975,118.700 385.076 M282.700 385.076 C 282.315 385.176,281.685 385.176,281.300 385.076 C 280.915 384.975,281.230 384.893,282.000 384.893 C 282.770 384.893,283.085 384.975,282.700 385.076 M123.600 387.164 C 122.610 387.305,121.575 387.562,121.300 387.734 C 120.980 387.935,120.800 387.823,120.800 387.424 C 120.800 386.925,121.261 386.811,123.100 386.853 L 125.400 386.907 123.600 387.164 M279.200 387.424 C 279.200 387.821,279.019 387.935,278.700 387.738 C 278.425 387.567,277.480 387.309,276.600 387.164 C 275.014 386.902,275.019 386.900,277.100 386.850 C 278.757 386.811,279.200 386.932,279.200 387.424 M128.700 389.076 C 128.315 389.176,127.685 389.176,127.300 389.076 C 126.915 388.975,127.230 388.893,128.000 388.893 C 128.770 388.893,129.085 388.975,128.700 389.076 M272.700 389.076 C 272.315 389.176,271.685 389.176,271.300 389.076 C 270.915 388.975,271.230 388.893,272.000 388.893 C 272.770 388.893,273.085 388.975,272.700 389.076 M134.307 391.086 C 133.706 391.177,132.626 391.179,131.907 391.090 C 131.188 391.001,131.680 390.926,133.000 390.924 C 134.320 390.922,134.908 390.995,134.307 391.086 M268.307 391.086 C 267.706 391.177,266.626 391.179,265.907 391.090 C 265.188 391.001,265.680 390.926,267.000 390.924 C 268.320 390.922,268.908 390.995,268.307 391.086 M140.307 393.086 C 139.706 393.177,138.626 393.179,137.907 393.090 C 137.188 393.001,137.680 392.926,139.000 392.924 C 140.320 392.922,140.908 392.995,140.307 393.086 M262.307 393.086 C 261.706 393.177,260.626 393.179,259.907 393.090 C 259.188 393.001,259.680 392.926,261.000 392.924 C 262.320 392.922,262.908 392.995,262.307 393.086 M149.200 395.100 C 149.200 395.265,148.255 395.400,147.100 395.400 C 145.945 395.400,144.505 395.538,143.900 395.708 C 143.048 395.946,142.800 395.878,142.800 395.408 C 142.800 394.915,143.404 394.800,146.000 394.800 C 147.760 394.800,149.200 394.935,149.200 395.100 M257.200 395.408 C 257.200 395.878,256.952 395.946,256.100 395.708 C 255.495 395.538,254.055 395.400,252.900 395.400 C 251.745 395.400,250.800 395.265,250.800 395.100 C 250.800 394.935,252.240 394.800,254.000 394.800 C 256.596 394.800,257.200 394.915,257.200 395.408 M157.162 396.971 C 156.875 397.258,150.808 397.341,150.528 397.062 C 150.384 396.918,151.857 396.800,153.800 396.800 C 155.743 396.800,157.256 396.877,157.162 396.971 M249.472 397.062 C 249.192 397.341,243.125 397.258,242.838 396.971 C 242.744 396.877,244.257 396.800,246.200 396.800 C 248.143 396.800,249.616 396.918,249.472 397.062 " stroke="none" fill="#fbfbfb" fill-rule="evenodd"></path></g></svg>