<svg xmlns="http://www.w3.org/2000/svg" xmlns:xlink="http://www.w3.org/1999/xlink" version="1.0" width="720"
  height="720.002" viewBox="0 0 217.254 217.356">
  <circle cx="108.627" cy="108.678" fill="#002f6c" fill-rule="evenodd" r="102.037" />
  <g fill="#ffb81c" fill-rule="evenodd" stroke="#715c37" stroke-width=".598" stroke-miterlimit="3.864">
    <path
      d="M105.09 2.98C103.445 1.434 98.946.607 97.003.95c-2.116.373-2.2 1.83-.756 2.925 1.446 1.096 6.18 5.678 6.927 6.275.747.597 3.981 1.12 6.627 1.081 2.392-.035 2.44-.96 1.345-2.107-1.095-1.146-6.056-6.146-6.056-6.146z" />
    <path
      d="M96.051 3.68c-1.745-1.429-6.117-1.96-8.031-1.486-2.084.516-2.185 2.146-.669 3.14 1.516.995 6.663 5.07 7.449 5.616.786.545 4.048.845 6.683.627 2.383-.197 2.369-1.125 1.198-2.193-1.171-1.067-6.63-5.705-6.63-5.705z" />
    <path
      d="M87.29 5.022c-1.848-1.287-6.243-1.478-8.114-.858-2.036.675-1.965 2.298-.379 3.171 1.586.873 6.984 4.542 7.81 5.024.825.482 4.097.53 6.704.108 2.357-.38 2.272-1.304 1.023-2.276-1.25-.972-7.044-5.169-7.044-5.169z" />
    <path
      d="M78.802 7.258c-1.933-1.155-6.329-1.038-8.15-.29-1.983.815-1.984 2.482-.34 3.242 1.642.76 7.465 3.988 8.321 4.412.857.424 4.122.242 6.692-.36 2.324-.543 2.175-1.458.863-2.34-1.315-.884-7.386-4.664-7.386-4.664z" />
    <path
      d="M70.085 10.086c-2.034-.963-6.396-.427-8.136.493-1.895 1.001-1.817 2.696-.109 3.294 1.707.6 7.89 3.216 8.782 3.556.893.34 4.123-.154 6.623-.999 2.26-.764 2.024-1.659.633-2.412-1.392-.752-7.793-3.932-7.793-3.932z" />
    <path
      d="M61.85 13.79c-2.096-.82-6.408.02-8.079 1.057-1.82 1.13-1.623 2.814.121 3.292 1.744.48 8.091 2.657 9.006 2.933.913.276 4.1-.44 6.534-1.458 2.2-.919 1.903-1.795.463-2.449-1.44-.654-8.046-3.376-8.046-3.376z" />
    <path
      d="M53.911 18.048c-2.152-.652-6.267.465-7.851 1.63-1.725 1.27-1.397 2.932.378 3.271 1.775.34 8.272 2.013 9.203 2.216.932.204 4.051-.76 6.397-1.964 2.121-1.088 1.755-1.938.27-2.477-1.486-.537-8.397-2.676-8.397-2.676z" />
    <path
      d="M46.405 23.003c-2.21-.404-6.17 1.17-7.61 2.507-1.57 1.455-1.055 3.07.746 3.205 1.8.137 8.44 1.063 9.388 1.16.949.096 3.937-1.214 6.128-2.674 1.982-1.32 1.523-2.123-.013-2.489-1.536-.367-8.639-1.709-8.639-1.709z" />
    <path
      d="M39.49 28.507c-2.228-.288-6.1 1.492-7.467 2.9-1.49 1.535-.892 3.12.914 3.161 1.805.042 8.482.62 9.433.667.952.047 3.866-1.418 5.978-2.99 1.91-1.422 1.41-2.199-.143-2.484-1.553-.285-8.715-1.254-8.715-1.254z" />
    <path
      d="M33.003 34.647c-2.243-.092-5.942 2.016-7.182 3.538-1.35 1.657-.616 3.183 1.185 3.068 1.8-.115 8.499-.12 9.45-.158.952-.036 3.726-1.749 5.692-3.498 1.778-1.582 1.212-2.312-.36-2.46-1.57-.149-8.785-.49-8.785-.49z" />
    <path
      d="M27.132 41.244c-2.242.084-5.763 2.475-6.878 4.09-1.215 1.756-.364 3.22 1.42 2.963 1.786-.256 8.46-.787 9.405-.898.945-.11 3.575-2.034 5.396-3.932 1.647-1.716 1.026-2.398-.551-2.424-1.577-.025-8.792.201-8.792.201z" />
    <path
      d="M21.898 48.266c-2.232.22-5.598 2.821-6.613 4.5-1.104 1.826-.167 3.234 1.6 2.87 1.765-.365 8.391-1.3 9.327-1.47.937-.169 3.444-2.248 5.145-4.252 1.539-1.813.877-2.456-.697-2.385-1.575.07-8.762.737-8.762.737z" />
    <path
      d="M16.901 55.685c-2.199.433-5.241 3.514-6.09 5.281-.923 1.924.086 3.292 1.81 2.76 1.722-.532 8.223-2.328 9.138-2.585.916-.257 3.21-2.566 4.71-4.723 1.357-1.95.638-2.527-.922-2.306-1.562.221-8.646 1.573-8.646 1.573z" />
    <path
      d="M12.78 63.693c-2.142.66-4.843 4.041-5.501 5.885-.718 2.01.43 3.263 2.086 2.555 1.655-.708 7.93-3.173 8.813-3.524.882-.35 2.921-2.885 4.188-5.186 1.145-2.08.369-2.578-1.159-2.195-1.527.383-8.428 2.465-8.428 2.465z" />
    <path
      d="M9.15 72.19c-2.074.842-4.469 4.443-4.963 6.337-.54 2.062.712 3.211 2.3 2.361 1.586-.849 7.619-3.849 8.467-4.276.849-.427 2.657-3.127 3.718-5.528.958-2.17.143-2.599-1.345-2.085-1.487.516-8.177 3.19-8.177 3.19z" />
    <path
      d="M6.437 80.754c-2.009.986-4.146 4.743-4.507 6.666-.394 2.094.935 3.152 2.458 2.195 1.523-.958 7.329-4.37 8.145-4.854.816-.485 2.432-3.304 3.322-5.77.804-2.232-.04-2.603-1.486-1.986-1.449.616-7.932 3.75-7.932 3.75z" />
    <path
      d="M4.588 89.375C2.726 90.65.99 94.696.907 96.667c-.09 2.146 1.314 2.541 2.696 1.365 1.38-1.176 6.874-4.813 7.618-5.414.745-.602 1.948-3.647 2.48-6.238.479-2.342-.416-2.59-1.77-1.766-1.355.824-7.343 4.761-7.343 4.761z" />
    <path
      d="M3.425 98.192c-1.77 1.397-3.228 5.551-3.176 7.521.056 2.146 1.628 2.593 2.925 1.327 1.296-1.266 6.385-5.416 7.086-6.066.701-.65 1.695-3.77 2.048-6.389.32-2.368-.59-2.555-1.885-1.64-1.295.913-6.998 5.247-6.998 5.247z" />
    <path
      d="M2.969 107.058c-1.655 1.528-2.785 5.778-2.58 7.737.221 2.133 1.822 2.412 3.017 1.051 1.194-1.361 5.938-5.844 6.586-6.545.648-.702 1.397-3.886 1.545-6.52.134-2.384-.786-2.5-2.004-1.489-1.22 1.01-6.564 5.766-6.564 5.766z" />
    <path
      d="M3.33 115.824c-1.543 1.639-2.373 5.955-2.033 7.894.37 2.111 1.999 2.47 3.094 1.029 1.096-1.44 5.5-6.432 6.098-7.177.597-.745 1.122-3.972 1.085-6.609-.032-2.387-.958-2.437-2.103-1.345-1.143 1.093-6.141 6.208-6.141 6.208z" />
    <path
      d="M4.222 124.941c-1.378 1.778-1.79 6.151-1.265 8.048.57 2.064 2.244 2.353 3.195.813.951-1.537 4.836-7.011 5.36-7.81.523-.798.734-4.059.446-6.68-.261-2.37-1.187-2.332-2.22-1.136-1.035 1.199-5.516 6.765-5.516 6.765z" />
    <path
      d="M6.072 133.775c-1.25 1.869-1.356 6.259-.7 8.113.713 2.02 2.4 2.189 3.243.59.842-1.601 4.334-7.329 4.8-8.161.465-.833.449-4.099-.022-6.692-.425-2.345-1.345-2.242-2.293-.978-.948 1.266-5.028 7.128-5.028 7.128z" />
    <path
      d="M8.53 142.439c-1.1 1.961-.892 6.219-.094 8.015.87 1.955 2.564 1.992 3.278.333.713-1.661 3.742-7.643 4.142-8.509.399-.866.126-4.119-.547-6.666-.608-2.304-1.516-2.129-2.362-.795-.844 1.335-4.418 7.622-4.418 7.622z" />
    <path
      d="M11.76 150.83c-.87 2.071-.181 6.275.814 7.969 1.085 1.844 2.772 1.688 3.293-.04.52-1.729 2.851-8.012 3.148-8.917.298-.904-.341-4.104-1.297-6.557-.864-2.219-1.746-1.942-2.435-.521-.688 1.421-3.523 8.066-3.523 8.066z" />
    <path
      d="M15.653 158.763c-.76 2.113.148 6.274 1.23 7.912 1.18 1.784 2.855 1.54 3.285-.213.428-1.753 2.427-8.146 2.677-9.065.25-.92-.555-4.079-1.639-6.479-.98-2.17-1.846-1.848-2.458-.393-.611 1.454-3.095 8.238-3.095 8.238z" />
    <path
      d="M20.26 166.414c-.573 2.17.694 6.233 1.916 7.77 1.33 1.674 2.978 1.286 3.251-.497.274-1.782 1.707-8.323 1.876-9.26.168-.937-.908-4.013-2.196-6.308-1.165-2.074-1.999-1.679-2.481-.177-.484 1.501-2.366 8.472-2.366 8.472z" />
    <path
      d="M25.445 173.562c-.4 2.207 1.18 6.157 2.518 7.593 1.457 1.563 3.069 1.047 3.202-.751.133-1.8 1.046-8.428 1.141-9.374.095-.947-1.22-3.927-2.683-6.112-1.323-1.976-2.124-1.517-2.486.018-.363 1.533-1.692 8.626-1.692 8.626z" />
    <path
      d="M31.183 180.178c-.264 2.227 1.554 6.07 2.976 7.422 1.549 1.47 3.126.857 3.149-.944.023-1.803.53-8.473.566-9.423.037-.951-1.458-3.844-3.05-5.936-1.44-1.891-2.212-1.384-2.48.17-.27 1.553-1.161 8.71-1.161 8.71z" />
    <path
      d="M37.359 186.649c-.05 2.24 2.308 5.872 3.853 7.079 1.681 1.314 3.235.622 3.085-1.173-.15-1.795-.51-8.528-.563-9.477-.055-.95-1.818-3.685-3.604-5.612-1.614-1.744-2.333-1.164-2.451.405-.12 1.57-.32 8.778-.32 8.778z" />
    <path
      d="M44.3 192.393c.185 2.23 2.908 5.595 4.57 6.633 1.808 1.132 3.28.28 2.943-1.487-.338-1.768-1.397-8.423-1.551-9.36-.153-.938-2.192-3.472-4.168-5.201-1.787-1.564-2.44-.914-2.394.659.046 1.572.6 8.756.6 8.756z" />
    <path
      d="M51.822 197.759c.379 2.205 3.382 5.316 5.127 6.206 1.899.969 3.29-.006 2.801-1.737-.489-1.731-2.126-8.265-2.36-9.185-.234-.92-2.485-3.266-4.603-4.815-1.916-1.402-2.51-.697-2.326.865.183 1.562 1.36 8.666 1.36 8.666z" />
    <path
      d="M59.608 202.246c.531 2.174 3.745 5.066 5.546 5.832 1.962.834 3.28-.235 2.672-1.928-.608-1.693-2.696-8.094-2.994-8.994-.299-.901-2.707-3.084-4.927-4.481-2.007-1.265-2.55-.521-2.259 1.025.292 1.544 1.962 8.546 1.962 8.546z" />
    <path
      d="M67.835 206.387c.86 2.085 4.46 4.625 6.37 5.115 2.082.533 2.76-.758 1.897-2.352-.863-1.595-3.28-7.723-3.715-8.575-.433-.853-3.164-2.663-5.588-3.72-2.192-.956-2.622-.133-2.096 1.363.524 1.496 3.132 8.169 3.132 8.169z" />
    <path
      d="M76.222 209.358c1 2.02 4.761 4.309 6.7 4.668 2.112.39 2.876-1.053 1.907-2.584-.97-1.531-3.972-7.368-4.463-8.19-.49-.82-3.337-2.44-5.827-3.33-2.25-.804-2.623.047-1.998 1.503.626 1.456 3.681 7.933 3.681 7.933z" />
    <path
      d="M84.803 211.647c1.15 1.935 5.075 3.924 7.034 4.13 2.133.228 2.74-1.28 1.656-2.73-1.083-1.45-4.483-7.021-5.035-7.8-.553-.78-3.512-2.173-6.061-2.866-2.304-.627-2.608.249-1.873 1.65.735 1.403 4.279 7.616 4.279 7.616z" />
    <path
      d="M93.457 213.116c1.283 1.849 5.335 3.559 7.302 3.628 2.144.077 2.833-1.44 1.651-2.811-1.182-1.371-5.15-6.716-5.755-7.454-.605-.74-3.654-1.922-6.243-2.436-2.342-.464-2.585.43-1.752 1.776.83 1.348 4.797 7.297 4.797 7.297z" />
    <path
      d="M102.565 214.139c1.454 1.717 5.649 3.029 7.613 2.91 2.14-.128 2.768-1.705 1.462-2.955-1.308-1.25-5.857-6.186-6.53-6.863-.672-.677-3.818-1.563-6.443-1.825-2.375-.237-2.53.675-1.574 1.935.956 1.26 5.472 6.798 5.472 6.798z" />
    <path
      d="M111.596 214.167c1.568 1.61 5.842 2.628 7.793 2.372 2.125-.277 2.642-1.893 1.25-3.05-1.39-1.154-6.27-5.76-6.987-6.388-.718-.63-3.917-1.292-6.554-1.371-2.384-.071-2.475.85-1.433 2.039 1.041 1.189 5.93 6.398 5.93 6.398z" />
    <path
      d="M120.585 213.566c1.689 1.482 5.899 2.164 7.823 1.757 2.095-.443 2.483-2.094 1.008-3.136-1.478-1.043-6.701-5.25-7.467-5.82-.764-.568-4.003-.978-6.637-.85-2.38.115-2.398 1.04-1.268 2.144 1.131 1.105 6.54 5.905 6.54 5.905z" />
    <path
      d="M129.468 212.152c1.847 1.28 6.104 1.48 7.967.86 2.03-.678 2.23-2.36.646-3.23-1.584-.866-7.247-4.451-8.07-4.932-.825-.48-4.088-.52-6.688-.095-2.351.385-2.264 1.305-1.016 2.272 1.246.97 7.161 5.125 7.161 5.125z" />
    <path
      d="M138.04 209.995c1.91 1.182 6.17 1.159 7.998.44 1.99-.781 2.102-2.472.476-3.255-1.627-.784-7.469-4.067-8.317-4.503-.847-.435-4.106-.305-6.68.256-2.326.506-2.191 1.42-.895 2.32 1.296.903 7.418 4.742 7.418 4.742z" />
    <path
      d="M146.486 207.08c2.004 1.012 6.244.618 8.003-.256 1.913-.952 1.876-2.645.188-3.283-1.688-.638-7.79-3.398-8.672-3.758-.883-.36-4.115.054-6.628.835-2.272.707-2.06 1.605-.69 2.39 1.369.784 7.799 4.073 7.799 4.073z" />
    <path
      d="M154.559 203.497c2.076.85 6.27.126 7.954-.883 1.831-1.1 1.661-2.782-.07-3.286s-8.03-2.775-8.936-3.065c-.907-.29-4.098.377-6.54 1.353-2.209.882-1.926 1.76-.499 2.436 1.426.673 8.09 3.445 8.09 3.445z" />
    <path
      d="M162.225 199.264c2.124.72 6.265-.258 7.883-1.367 1.76-1.208 1.488-2.877-.271-3.274-1.759-.397-8.18-2.28-9.103-2.513-.923-.233-4.065.625-6.442 1.748-2.15 1.015-1.814 1.875-.35 2.46s8.283 2.946 8.283 2.946z" />
    <path
      d="M169.843 194.57c2.183.514 6.226-1.036 7.729-2.295 1.636-1.37 1.281-3.033-.507-3.26-1.787-.228-8.45-1.275-9.391-1.42-.94-.144-3.984 1.012-6.241 2.356-2.042 1.216-1.625 2.038-.112 2.48 1.513.445 8.522 2.139 8.522 2.139z" />
    <path
      d="M176.907 188.979c2.222.282 6.08-1.681 7.442-3.088 1.482-1.533.956-3.15-.845-3.188-1.8-.04-8.533-.386-9.482-.43-.95-.045-3.855 1.42-5.957 2.993-1.902 1.422-1.402 2.195.147 2.478 1.55.28 8.695 1.235 8.695 1.235z" />
    <path
      d="M183.722 182.74c2.238.088 5.907-2.203 7.14-3.724 1.344-1.655.68-3.218-1.118-3.1-1.796.118-8.529.359-9.478.397-.95.038-3.713 1.75-5.67 3.499-1.77 1.58-1.204 2.309.362 2.454 1.567.145 8.764.474 8.764.474z" />
    <path
      d="M189.732 176.06c2.237-.068 5.736-2.608 6.86-4.21 1.224-1.744.45-3.257-1.331-3.014-1.783.244-8.481.954-9.425 1.059-.943.104-3.58 2.004-5.408 3.885-1.655 1.699-1.04 2.385.532 2.42 1.573.037 8.772-.14 8.772-.14z" />
    <path
      d="M195.37 169.121c2.222-.396 5.47-3.369 6.357-5.131.965-1.919-.152-2.855-1.895-2.353-1.742.504-8.246 1.559-9.171 1.801-.927.241-3.277 2.522-4.827 4.664-1.4 1.938-.688 2.53.887 2.337 1.573-.193 8.65-1.318 8.65-1.318z" />
    <path
      d="M200.061 161.564c2.188-.545 5.227-3.73 5.989-5.548.832-1.979-.415-3.032-2.118-2.412-1.704.62-8.048 2.309-8.954 2.613-.908.304-3.097 2.737-4.496 4.979-1.266 2.027-.515 2.57 1.042 2.271 1.556-.3 8.537-1.903 8.537-1.903z" />
    <path
      d="M204.126 153.673c2.137-.712 4.915-4.12 5.535-5.989.676-2.035-.669-2.947-2.315-2.197-1.648.748-7.817 2.882-8.696 3.255-.88.373-2.87 2.966-4.092 5.308-1.104 2.116-.314 2.6 1.214 2.18 1.526-.421 8.354-2.557 8.354-2.557z" />
    <path
      d="M207.405 145.536c2.08-.858 4.613-4.45 5.102-6.357.53-2.076-.805-3.073-2.397-2.211-1.592.862-7.66 3.6-8.511 4.033-.852.433-2.656 3.158-3.71 5.577-.952 2.188-.13 2.613 1.362 2.089s8.154-3.131 8.154-3.131z" />
    <path
      d="M210.344 136.861c1.988-1.055 4.164-4.87 4.466-6.813.33-2.117-1.076-3.066-2.576-2.056-1.5 1.009-7.294 4.399-8.099 4.912-.805.513-2.34 3.396-3.155 5.903-.739 2.268.12 2.613 1.555 1.948 1.435-.664 7.809-3.894 7.809-3.894z" />
    <path
      d="M212.295 128.05c1.909-1.189 3.813-5.146 3.979-7.104.18-2.134-1.288-2.982-2.714-1.871-1.425 1.111-6.965 4.896-7.732 5.464-.767.566-2.096 3.549-2.734 6.106-.578 2.313.303 2.597 1.687 1.834 1.383-.764 7.514-4.429 7.514-4.429z" />
    <path
      d="M213.623 119.145c1.808-1.335 3.371-5.3 3.383-7.265.013-2.14-1.518-2.871-2.851-1.651-1.333 1.219-6.556 5.424-7.276 6.05-.72.625-1.81 3.701-2.246 6.3-.395 2.349.507 2.563 1.825 1.695 1.32-.87 7.165-5.129 7.165-5.129z" />
    <path
      d="M214.133 110.17c1.645-1.53 2.748-5.644 2.537-7.596-.23-2.126-1.832-2.679-3.017-1.317-1.187 1.362-5.896 6.128-6.54 6.83-.644.702-1.378 3.879-1.517 6.508-.126 2.377.792 2.489 2.004 1.477 1.213-1.012 6.533-5.902 6.533-5.902z" />
    <path
      d="M213.85 101.34c1.562-1.613 2.448-5.778 2.136-7.716-.342-2.11-1.97-2.579-3.08-1.157-1.112 1.422-5.566 6.426-6.172 7.161-.606.734-1.173 3.945-1.174 6.577-.001 2.379.922 2.443 2.078 1.369 1.156-1.074 6.213-6.234 6.213-6.234z" />
    <path
      d="M212.801 92.474c1.415-1.742 1.934-5.966 1.453-7.869-.521-2.072-2.185-2.396-3.168-.884-.983 1.512-4.981 6.883-5.52 7.667-.54.784-.825 4.03-.597 6.65.208 2.37 1.131 2.352 2.19 1.183 1.059-1.17 5.642-6.747 5.642-6.747z" />
    <path
      d="M211.02 83.828c1.27-1.847 1.458-6.096.83-7.954-.685-2.023-2.365-2.216-3.228-.632-.86 1.584-4.423 7.25-4.898 8.072-.475.824-.504 4.081-.07 6.673.392 2.345 1.31 2.255 2.272 1.007.961-1.248 5.093-7.166 5.093-7.166z" />
    <path
      d="M208.514 75.44c1.157-1.92 1.083-6.172.342-7.988-.805-1.977-2.494-2.067-3.256-.434-.764 1.633-3.972 7.502-4.396 8.353-.425.851-.254 4.102.336 6.663.534 2.316 1.446 2.17 2.33.866.884-1.304 4.644-7.46 4.644-7.46z" />
    <path
      d="M205.55 67.002c.967-2.02.313-6.3-.598-8.035-.99-1.89-2.69-1.897-3.293-.2-.603 1.698-3.048 7.98-3.388 8.868-.342.887.14 4.105.973 6.596.754 2.252 1.647 2.021 2.4.638.755-1.383 3.906-7.867 3.906-7.867z" />
    <path
      d="M201.589 58.915c.75-2.11-.348-6.294-1.434-7.924-1.183-1.774-2.873-1.604-3.295.145-.42 1.75-2.193 8.25-2.44 9.167-.245.917.57 4.065 1.658 6.454.984 2.16 1.847 1.836 2.452.384.606-1.452 3.059-8.226 3.059-8.226z" />
    <path
      d="M196.943 50.931c.563-2.166-.895-6.236-2.117-7.765-1.333-1.664-3.002-1.348-3.269.432-.267 1.78-1.466 8.405-1.63 9.34-.165.935.92 3.998 2.212 6.282 1.168 2.065 2 1.667 2.477.168.476-1.499 2.327-8.457 2.327-8.457z" />
    <path
      d="M191.695 43.64c.41-2.199-1.327-6.156-2.653-7.595-1.444-1.566-3.087-1.134-3.229.658-.143 1.792-.874 8.483-.974 9.427-.1.943 1.197 3.922 2.644 6.11 1.31 1.977 2.11 1.522 2.48-.006.372-1.527 1.732-8.594 1.732-8.594z" />
    <path
      d="M185.825 36.647c.18-2.24-1.87-6.124-3.348-7.423-1.608-1.415-3.165-.74-3.119 1.067.046 1.807-.206 8.511-.206 9.464 0 .954 1.608 3.796 3.285 5.831 1.517 1.84 2.27 1.301 2.479-.265.21-1.566.91-8.674.91-8.674z" />
    <path
      d="M179.452 30.283c.002-2.247-2.257-5.862-3.83-7.04-1.714-1.284-3.212-.49-3.024 1.307.188 1.797.462 8.496.537 9.447.074.95 1.9 3.657 3.731 5.552 1.655 1.715 2.363 1.12 2.45-.458.085-1.577.136-8.808.136-8.808z" />
    <path
      d="M172.537 24.534c-.252-2.23-2.904-5.565-4.6-6.558-1.848-1.08-3.244-.122-2.855 1.641.39 1.763 1.42 8.383 1.603 9.32.183.934 2.3 3.415 4.332 5.09 1.838 1.515 2.475.844 2.38-.732-.092-1.576-.86-8.76-.86-8.76z" />
    <path
      d="M165.267 19.508c-.368-2.215-3.192-5.404-4.937-6.306-1.9-.982-3.245.048-2.764 1.787.481 1.74 1.857 8.295 2.088 9.22.23.923 2.476 3.29 4.592 4.855 1.914 1.416 2.513.713 2.338-.855-.175-1.568-1.317-8.7-1.317-8.7z" />
    <path
      d="M157.51 15.076c-.56-2.173-3.648-5.103-5.464-5.849-1.977-.813-3.227.33-2.596 2.02.632 1.69 2.573 8.097 2.883 8.997.31.9 2.751 3.06 4.994 4.435 2.029 1.244 2.565.491 2.254-1.055-.311-1.546-2.07-8.548-2.07-8.548z" />
    <path
      d="M149.496 11.365c-.728-2.12-4.036-4.799-5.903-5.399-2.034-.654-3.19.582-2.428 2.216.762 1.634 3.198 7.867 3.578 8.74.38.872 2.982 2.832 5.326 4.026 2.119 1.08 2.594.29 2.16-1.228-.43-1.516-2.733-8.355-2.733-8.355z" />
    <path
      d="M141.259 8.387c-.856-2.072-4.32-4.542-6.221-5.027-2.07-.529-3.148.775-2.286 2.36.858 1.583 3.671 7.653 4.103 8.5.433.847 3.148 2.645 5.56 3.693 2.181.95 2.605.13 2.082-1.357-.523-1.485-3.238-8.169-3.238-8.169z" />
    <path
      d="M132.709 5.75c-1.052-1.979-4.882-4-6.819-4.3-2.109-.329-3.127 1.033-2.12 2.527 1.008 1.494 4.606 7.196 5.117 7.998.51.802 3.386 2.33 5.884 3.142 2.26.735 2.606-.12 1.942-1.55-.663-1.429-4.004-7.817-4.004-7.817z" />
    <path
      d="M123.847 4.121c-1.25-1.857-5.27-3.465-7.227-3.563-2.13-.105-3 1.354-1.843 2.734s5.33 6.671 5.922 7.415c.592.744 3.608 1.962 6.177 2.508 2.323.494 2.576-.392 1.769-1.743-.81-1.35-4.798-7.35-4.798-7.35zM114.661 3.22c-1.407-1.742-5.548-2.993-7.505-2.918-2.13.08-3.098 1.61-1.826 2.883 1.271 1.272 6.118 6.177 6.773 6.866.653.688 3.764 1.64 6.368 1.96 2.355.29 2.531-.616 1.608-1.89S114.66 3.22 114.66 3.22z" />
  </g>
  <flowRoot xml:space="preserve" style="line-height:1.25;-inkscape-font-specification:'Times New Roman, '"
    transform="translate(.517 -2.701)" font-style="normal" font-variant="normal" font-weight="400" font-stretch="normal"
    font-size="96" font-family="Times New Roman" letter-spacing="0" word-spacing="0" fill="#000" fill-opacity="1"
    stroke="none">
    <flowRegion style="-inkscape-font-specification:'Times New Roman, '" font-style="normal" font-variant="normal"
      font-weight="400" font-stretch="normal" font-size="96" font-family="Times New Roman">
      <path style="-inkscape-font-specification:'Times New Roman, '" d="M-748.574 603.509h468.129v159.638h-468.129z" />
    </flowRegion>
    <flowPara />
  </flowRoot>
  <flowRoot xml:space="preserve" style="line-height:1.25" transform="translate(.517 -2.701)" font-style="normal"
    font-weight="400" font-size="37.333" font-family="sans-serif" letter-spacing="0" word-spacing="0" fill="#000"
    fill-opacity="1" stroke="none">
    <flowRegion>
      <path d="M-873.696-183.897h804.664v396.939h-804.664z" />
    </flowRegion>
    <flowPara />
  </flowRoot>
  <ellipse cx="108.627" cy="108.678" rx="77.778" ry="77.138" fill="#fff" fill-rule="evenodd" stroke="#0b1728"
    stroke-width="1.057" stroke-linecap="square" />
  <g stroke="#999" fill="#ccc">
    <path
      d="M582.531 102.468c1.337-2.315.944-5.376-1.338-6.693-2.282-1.317-5.13-.126-6.468 2.188l-3.19 5.523c-1.337 2.314-.944 5.376 1.339 6.692 2.28 1.316 5.13.127 6.467-2.188zm-1.728-.996l-3.19 5.522c-.945 1.637-2.67 2.079-3.745 1.46-1.074-.621-1.554-2.335-.607-3.972l3.19-5.523c.945-1.637 2.67-2.08 3.744-1.46 1.077.622 1.555 2.336.608 3.973zM441.44 66.099c0-2.673 1.87-5.127 4.506-5.127 2.635 0 4.506 2.455 4.506 5.127v6.377c0 2.673-1.87 5.127-4.506 5.127-2.635 0-4.506-2.454-4.506-5.127zm1.993 0v6.377c0 1.891 1.272 3.135 2.513 3.135 1.242 0 2.513-1.244 2.513-3.135v-6.377c0-1.891-1.271-3.135-2.513-3.135s-2.513 1.245-2.513 3.135zM444.066 86.907c-.826-2.542.194-5.454 2.701-6.268 2.507-.814 5.045.942 5.871 3.484l1.972 6.064c.827 2.543-.194 5.454-2.7 6.269-2.506.813-5.044-.942-5.872-3.484zm1.896-.616l1.972 6.066c.584 1.797 2.179 2.588 3.36 2.205 1.18-.384 2.005-1.96 1.42-3.76l-1.972-6.063c-.584-1.798-2.179-2.59-3.36-2.206-1.179.384-2.004 1.96-1.42 3.758z"
      stroke-width=".398" stroke-miterlimit="3.864" transform="matrix(1.01146 0 0 1.00114 -413.633 41.467)" />
    <path
      d="M39.045 127.313l-2.194-13.845a.882.882 0 01.719-1.021.884.884 0 01.999.749l2.194 13.846c.077.488-.245.946-.719 1.021a.885.885 0 01-.999-.75z"
      stroke-width=".398" stroke-miterlimit="3.864" transform="matrix(1.01193 0 0 1.00113 -.891 .072)" />
    <path
      d="M452.04 105.742c-1.457-2.241-1.225-5.318.985-6.754 2.21-1.435 5.118-.394 6.573 1.848l3.476 5.349c1.457 2.24 1.225 5.318-.985 6.753-2.21 1.436-5.118.395-6.573-1.847zm1.672-1.085l3.475 5.349c1.03 1.585 2.775 1.938 3.816 1.262 1.042-.677 1.43-2.412.4-3.998l-3.476-5.35c-1.03-1.584-2.775-1.936-3.816-1.26-1.042.676-1.43 2.412-.4 3.997z"
      stroke-width=".398" stroke-miterlimit="3.864" transform="matrix(1.01146 0 0 1.00114 -413.633 41.467)" />
    <path
      d="M46.984 145.902l-5.703-12.805a.883.883 0 01.43-1.173c.438-.195.958.014 1.159.466l5.703 12.805a.883.883 0 01-.429 1.173.885.885 0 01-1.16-.466z"
      stroke-width=".398" stroke-miterlimit="3.864" transform="matrix(1.01193 0 0 1.00113 -.891 .072)" />
    <path
      d="M466.129 122.904c-2.05-1.718-2.728-4.73-1.034-6.746 1.694-2.018 4.777-1.873 6.826-.155l4.888 4.1c2.049 1.718 2.727 4.729 1.033 6.746-1.694 2.019-4.778 1.873-6.826.155zm1.281-1.526l4.887 4.1c1.45 1.216 3.221 1.042 4.02.09.797-.95.66-2.724-.788-3.938l-4.888-4.1c-1.449-1.215-3.22-1.041-4.02-.09-.797.949-.66 2.723.79 3.938z"
      stroke-width=".398" stroke-miterlimit="3.864" transform="matrix(1.01146 0 0 1.00114 -413.633 41.467)" />
    <path
      d="M60.145 161.424l-9.382-10.415a.885.885 0 01.046-1.249.884.884 0 011.246.084l9.382 10.416c.331.368.311.927-.046 1.248a.883.883 0 01-1.246-.084z"
      stroke-width=".398" stroke-miterlimit="3.864" transform="matrix(1.01193 0 0 1.00113 -.891 .072)" />
    <path
      d="M484.134 134.892c-2.443-1.088-3.926-3.794-2.854-6.201 1.072-2.406 4.077-3.117 6.52-2.03l5.828 2.595c2.444 1.087 3.926 3.794 2.855 6.2-1.072 2.407-4.076 3.117-6.52 2.03zm.811-1.82l5.83 2.593c1.727.77 3.382.114 3.887-1.02.505-1.134-.115-2.801-1.843-3.57l-5.83-2.593c-1.727-.77-3.382-.114-3.887 1.02-.506 1.134.116 2.8 1.843 3.57z"
      stroke-width=".398" stroke-miterlimit="3.864" transform="matrix(1.01146 0 0 1.00114 -413.633 41.467)" />
    <path
      d="M77.891 173.096l-12.019-7.217c-.424-.256-.568-.795-.32-1.207a.883.883 0 011.216-.284l12.018 7.217a.885.885 0 01.321 1.208c-.247.411-.792.538-1.216.283z"
      stroke-width=".398" stroke-miterlimit="3.864" transform="matrix(1.01193 0 0 1.00113 -.891 .072)" />
    <path
      d="M504.706 141.29c-2.66-.278-4.907-2.396-4.631-5.016.275-2.62 2.913-4.223 5.572-3.943l6.345.666c2.66.279 4.906 2.396 4.631 5.016-.275 2.62-2.913 4.224-5.572 3.944zm.208-1.982l6.346.667c1.88.197 3.252-.937 3.382-2.171.13-1.234-.976-2.63-2.857-2.826l-6.346-.666c-1.88-.197-3.252.937-3.382 2.17-.13 1.234.976 2.629 2.857 2.826z"
      stroke-width=".398" stroke-miterlimit="3.864" transform="matrix(1.01146 0 0 1.00114 -413.633 41.467)" />
    <path
      d="M97.319 179.186l-13.604-3.387a.883.883 0 01-.66-1.061c.116-.466.6-.746 1.081-.627l13.604 3.386c.48.12.776.596.66 1.062-.116.466-.601.746-1.081.627z"
      stroke-width=".398" stroke-miterlimit="3.864" transform="matrix(1.01193 0 0 1.00113 -.891 .072)" />
    <path
      d="M444.93 44.221c.69-2.582 3.134-4.468 5.68-3.787s3.717 3.537 3.025 6.118l-1.651 6.16c-.692 2.582-3.135 4.469-5.68 3.787-2.546-.682-3.717-3.537-3.026-6.119zm1.925.516l-1.652 6.16c-.49 1.826.417 3.357 1.615 3.679 1.2.321 2.75-.552 3.24-2.378l1.65-6.16c.49-1.826-.415-3.357-1.615-3.679-1.2-.322-2.75.552-3.238 2.378z"
      stroke-width=".398" stroke-miterlimit="3.864" transform="matrix(1.01146 0 0 1.00114 -413.633 41.467)" />
    <path
      d="M36.707 106.938l1.706-13.913a.883.883 0 01.972-.784c.477.058.814.504.754.996l-1.706 13.913a.884.884 0 01-.972.784.883.883 0 01-.754-.996z"
      stroke-width=".398" stroke-miterlimit="3.864" transform="matrix(1.01193 0 0 1.00113 -.891 .072)" />
    <path
      d="M454.555 24.954c1.457-2.241 4.363-3.281 6.573-1.847 2.21 1.435 2.442 4.512.986 6.753l-3.475 5.348c-1.457 2.242-4.363 3.282-6.573 1.847s-2.441-4.512-.985-6.753zm1.672 1.086l-3.476 5.348c-1.03 1.585-.642 3.322.4 3.998 1.041.676 2.785.324 3.815-1.261l3.476-5.348c1.03-1.586.641-3.322-.4-3.998-1.04-.676-2.786-.325-3.815 1.261z"
      stroke-width=".398" stroke-miterlimit="3.864" transform="matrix(1.01146 0 0 1.00114 -413.633 41.467)" />
    <path
      d="M40.229 86.156l5.922-12.704a.883.883 0 011.167-.445.884.884 0 01.409 1.18l-5.922 12.704a.883.883 0 01-1.167.445.884.884 0 01-.409-1.18z"
      stroke-width=".398" stroke-miterlimit="3.864" transform="matrix(1.01193 0 0 1.00113 -.891 .072)" />
    <path
      d="M468.914 8.741c1.956-1.823 5.027-2.129 6.825-.203s1.277 4.968-.678 6.791l-4.666 4.349c-1.956 1.823-5.028 2.129-6.826.202-1.796-1.926-1.277-4.968.679-6.79zm1.36 1.457l-4.667 4.35c-1.382 1.288-1.426 3.067-.58 3.974.846.908 2.625.988 4.008-.3l4.666-4.35c1.384-1.29 1.427-3.068.58-3.976-.846-.907-2.624-.988-4.007.302z"
      stroke-width=".398" stroke-miterlimit="3.864" transform="matrix(1.01146 0 0 1.00114 -413.633 41.467)" />
    <path
      d="M49.433 68.421l8.819-10.894c.312-.385.867-.452 1.24-.149.374.302.423.859.112 1.244l-8.82 10.894c-.312.385-.867.452-1.24.149a.884.884 0 01-.111-1.244z"
      stroke-width=".398" stroke-miterlimit="3.864" transform="matrix(1.01193 0 0 1.00113 -.891 .072)" />
    <path
      d="M487.764-2.268c2.443-1.087 5.447-.377 6.519 2.03 1.071 2.405-.41 5.112-2.854 6.2l-5.828 2.593c-2.442 1.087-5.447.377-6.52-2.029-1.072-2.407.41-5.113 2.854-6.2zm.81 1.82l-5.829 2.593c-1.727.77-2.348 2.437-1.842 3.57.505 1.134 2.16 1.79 3.887 1.02l5.83-2.593c1.727-.769 2.347-2.437 1.842-3.57-.505-1.134-2.16-1.79-3.888-1.02z"
      stroke-width=".398" stroke-miterlimit="3.864" transform="matrix(1.01146 0 0 1.00114 -413.633 41.467)" />
    <path
      d="M63.467 52.506l11.753-7.634a.884.884 0 011.226.241.882.882 0 01-.278 1.217l-11.754 7.634a.882.882 0 01-1.225-.241.882.882 0 01.278-1.217z"
      stroke-width=".398" stroke-miterlimit="3.864" transform="matrix(1.01193 0 0 1.00113 -.891 .072)" />
    <path
      d="M509.02-7.648c2.641-.418 5.36 1.045 5.771 3.647.413 2.602-1.72 4.833-4.362 5.25l-6.302.998c-2.64.418-5.358-1.045-5.771-3.647-.412-2.602 1.72-4.833 4.36-5.25zm.31 1.967l-6.3.998c-1.868.295-2.9 1.746-2.705 2.971.194 1.226 1.622 2.287 3.49 1.991l6.302-.998c1.868-.295 2.899-1.746 2.706-2.97-.195-1.226-1.624-2.287-3.492-1.992z"
      stroke-width=".398" stroke-miterlimit="3.864" transform="matrix(1.01146 0 0 1.00114 -413.633 41.467)" />
    <path
      d="M81.385 42.287l13.403-4.097a.884.884 0 011.112.569.882.882 0 01-.603 1.093L81.894 43.95a.883.883 0 01-1.111-.569.883.883 0 01.602-1.094z"
      stroke-width=".398" stroke-miterlimit="3.864" transform="matrix(1.01193 0 0 1.00113 -.891 .072)" />
    <path
      d="M591.135 63.642c-.046-2.672-1.96-5.094-4.595-5.048-2.635.046-4.463 2.533-4.416 5.206l.111 6.375c.047 2.673 1.96 5.094 4.596 5.048 2.635-.046 4.462-2.532 4.416-5.204zm-1.993.035l.112 6.376c.033 1.891-1.217 3.157-2.458 3.179-1.24.022-2.534-1.2-2.567-3.091l-.111-6.376c-.033-1.89 1.218-3.157 2.458-3.178 1.24-.021 2.534 1.2 2.566 3.09zM589.614 83.35c.69-2.581-.48-5.437-3.026-6.118s-4.988 1.205-5.68 3.787l-1.651 6.159c-.693 2.583.479 5.438 3.024 6.119 2.545.68 4.988-1.205 5.68-3.787zm-1.926-.515l-1.651 6.16c-.49 1.826-2.04 2.699-3.24 2.379-1.198-.321-2.105-1.854-1.615-3.68l1.65-6.159c.49-1.826 2.04-2.699 3.24-2.378 1.2.32 2.105 1.852 1.616 3.678z"
      stroke-width=".398" stroke-miterlimit="3.864" transform="matrix(1.01146 0 0 1.00114 -413.633 41.467)" />
    <path
      d="M177.92 124.061l1.707-13.913a.883.883 0 00-.753-.996.883.883 0 00-.973.784l-1.708 13.912a.882.882 0 00.754.996.884.884 0 00.973-.783zM171.289 142.447l5.478-12.902c.193-.457-.009-.978-.45-1.165a.882.882 0 00-1.15.485l-5.478 12.902a.884.884 0 00.45 1.165c.441.188.957-.03 1.15-.485z"
      stroke-width=".398" stroke-miterlimit="3.864" transform="matrix(1.01193 0 0 1.00113 -.891 .072)" />
    <path
      d="M570.335 119.624c1.956-1.823 2.477-4.864.679-6.791-1.797-1.927-4.87-1.621-6.824.203l-4.668 4.349c-1.955 1.822-2.476 4.864-.678 6.79 1.797 1.928 4.87 1.622 6.825-.201zm-1.36-1.457l-4.665 4.35c-1.384 1.289-3.162 1.208-4.01.3-.846-.906-.802-2.685.582-3.975l4.666-4.35c1.384-1.29 3.16-1.208 4.008-.301.847.907.804 2.687-.58 3.976z"
      stroke-width=".398" stroke-miterlimit="3.864" transform="matrix(1.01146 0 0 1.00114 -413.633 41.467)" />
    <path
      d="M159.029 158.568l9.196-10.577c.325-.374.295-.932-.067-1.247a.883.883 0 00-1.244.106l-9.197 10.577a.883.883 0 00.068 1.247.883.883 0 001.244-.106z"
      stroke-width=".398" stroke-miterlimit="3.864" transform="matrix(1.01193 0 0 1.00113 -.891 .072)" />
    <path
      d="M552.985 133.139c2.425-1.13 3.86-3.862 2.745-6.25-1.114-2.387-4.13-3.045-6.554-1.916l-5.783 2.695c-2.423 1.13-3.858 3.862-2.744 6.25 1.113 2.388 4.13 3.045 6.554 1.915zm-.843-1.806l-5.782 2.695c-1.715.799-3.38.173-3.905-.951-.524-1.125.066-2.804 1.78-3.603l5.783-2.695c1.715-.798 3.38-.172 3.905.953.525 1.124-.066 2.803-1.781 3.6z"
      stroke-width=".398" stroke-miterlimit="3.864" transform="matrix(1.01146 0 0 1.00114 -413.633 41.467)" />
    <path
      d="M143.062 171.256l11.622-7.836a.884.884 0 00.257-1.222c-.268-.399-.819-.497-1.229-.22l-11.623 7.835c-.409.276-.525.824-.256 1.222.267.399.817.497 1.229.221z"
      stroke-width=".398" stroke-miterlimit="3.864" transform="matrix(1.01193 0 0 1.00113 -.891 .072)" />
    <path
      d="M532.529 140.805c2.654-.325 4.863-2.481 4.543-5.096-.321-2.614-2.988-4.172-5.642-3.847l-6.334.777c-2.653.325-4.862 2.48-4.542 5.096.32 2.616 2.987 4.172 5.642 3.847zm-.243-1.977l-6.333.777c-1.878.23-3.269-.88-3.42-2.111-.151-1.232.93-2.646 2.807-2.876l6.334-.777c1.877-.23 3.269.88 3.419 2.112.151 1.23-.93 2.645-2.807 2.875z"
      stroke-width=".398" stroke-miterlimit="3.864" transform="matrix(1.01146 0 0 1.00114 -413.633 41.467)" />
    <path
      d="M123.332 178.158l13.542-3.624a.884.884 0 00.642-1.071.884.884 0 00-1.092-.608l-13.542 3.623c-.478.128-.766.608-.641 1.072.124.464.613.735 1.091.608z"
      stroke-width=".398" stroke-miterlimit="3.864" transform="matrix(1.01193 0 0 1.00113 -.891 .072)" />
    <path
      d="M587.61 43.148c-.737-2.569-3.213-4.413-5.746-3.687-2.533.726-3.655 3.601-2.917 6.17l1.758 6.13c.737 2.569 3.213 4.414 5.745 3.688 2.534-.726 3.656-3.601 2.918-6.17zm-1.916.549l1.759 6.13c.52 1.817-.359 3.364-1.551 3.706-1.194.342-2.76-.504-3.28-2.321l-1.76-6.13c-.52-1.817.358-3.364 1.552-3.706 1.193-.342 2.758.504 3.28 2.321z"
      stroke-width=".398" stroke-miterlimit="3.864" transform="matrix(1.01146 0 0 1.00114 -413.633 41.467)" />
    <path
      d="M179.718 105.791l-1.95-13.88a.884.884 0 00-.986-.767.881.881 0 00-.735 1.008l1.95 13.881c.068.49.51.833.985.767.475-.066.805-.519.736-1.009z"
      stroke-width=".398" stroke-miterlimit="3.864" transform="matrix(1.01193 0 0 1.00113 -.891 .072)" />
    <path
      d="M578.058 24.238c-1.418-2.267-4.306-3.357-6.54-1.961-2.235 1.396-2.521 4.468-1.104 6.735l3.381 5.408c1.417 2.267 4.305 3.357 6.54 1.961 2.234-1.396 2.521-4.468 1.104-6.735zm-1.69 1.057l3.38 5.408c1.003 1.603.585 3.332-.468 3.99-1.054.657-2.792.275-3.794-1.328l-3.38-5.408c-1.003-1.603-.585-3.333.468-3.99 1.052-.658 2.792-.276 3.794 1.328z"
      stroke-width=".398" stroke-miterlimit="3.864" transform="matrix(1.01146 0 0 1.00114 -413.633 41.467)" />
    <path
      d="M175.719 85.257l-5.701-12.805a.883.883 0 00-1.159-.466c-.438.195-.631.72-.43 1.173l5.701 12.805c.202.452.721.661 1.159.465a.881.881 0 00.43-1.172z"
      stroke-width=".398" stroke-miterlimit="3.864" transform="matrix(1.01193 0 0 1.00113 -.891 .072)" />
    <path
      d="M563.927 8.895c-1.987-1.789-5.065-2.04-6.828-.083-1.763 1.958-1.19 4.99.798 6.778l4.74 4.267c1.989 1.79 5.066 2.041 6.828.083 1.764-1.958 1.19-4.99-.796-6.778zm-1.334 1.481l4.741 4.267c1.406 1.265 1.48 3.042.65 3.964-.831.922-2.607 1.034-4.013-.23l-4.742-4.268c-1.405-1.265-1.48-3.042-.649-3.964.831-.923 2.608-1.034 4.013.231z"
      stroke-width=".398" stroke-miterlimit="3.864" transform="matrix(1.01146 0 0 1.00114 -413.633 41.467)" />
    <path
      d="M166.875 67.426l-9.01-10.738c-.318-.379-.874-.437-1.242-.128a.884.884 0 00-.09 1.246l9.01 10.738c.318.379.874.437 1.242.128a.884.884 0 00.09-1.246z"
      stroke-width=".398" stroke-miterlimit="3.864" transform="matrix(1.01193 0 0 1.00113 -.891 .072)" />
    <path
      d="M545.327-2.09c-2.443-1.087-5.447-.377-6.52 2.03-1.072 2.406.41 5.112 2.854 6.2l5.829 2.593c2.442 1.087 5.447.377 6.52-2.029 1.07-2.406-.411-5.113-2.855-6.2zm-.81 1.82l5.828 2.594c1.729.77 2.348 2.437 1.843 3.57-.504 1.134-2.159 1.79-3.888 1.02l-5.828-2.594c-1.727-.769-2.348-2.437-1.843-3.57.505-1.134 2.16-1.789 3.887-1.02z"
      stroke-width=".398" stroke-miterlimit="3.864" transform="matrix(1.01146 0 0 1.00114 -413.633 41.467)" />
    <path
      d="M152.525 51.781l-11.887-7.428a.884.884 0 00-1.221.262c-.255.407-.12.95.3 1.212l11.887 7.427a.884.884 0 001.221-.262.882.882 0 00-.3-1.211z"
      stroke-width=".398" stroke-miterlimit="3.864" transform="matrix(1.01193 0 0 1.00113 -.891 .072)" />
    <path
      d="M523.829-7.595c-2.648-.372-5.34 1.14-5.707 3.747-.366 2.608 1.805 4.802 4.452 5.174l6.318.887c2.648.372 5.34-1.138 5.707-3.747.367-2.608-1.805-4.802-4.452-5.174zm-.277 1.973l6.318.887c1.871.263 2.929 1.695 2.756 2.924-.173 1.23-1.583 2.314-3.456 2.051l-6.318-.887c-1.873-.263-2.93-1.695-2.756-2.924.172-1.229 1.583-2.314 3.456-2.05z"
      stroke-width=".398" stroke-miterlimit="3.864" transform="matrix(1.01146 0 0 1.00114 -413.633 41.467)" />
    <path
      d="M134.496 41.846l-13.474-3.863a.884.884 0 00-1.102.589c-.133.461.146.946.622 1.083l13.474 3.863c.476.136.969-.127 1.102-.588a.883.883 0 00-.622-1.084zM117.143 179.903l-14.02.002a.883.883 0 01-.896-.869c0-.48.401-.869.896-.87l14.02-.002c.495 0 .896.389.896.87 0 .48-.401.869-.896.869zM114.957 38.799l-14.02.002a.883.883 0 01-.897-.869c0-.48.402-.87.897-.87l14.02-.002c.495 0 .896.389.896.87.001.48-.401.869-.896.869z"
      stroke-width=".398" stroke-miterlimit="3.864" transform="matrix(1.01193 0 0 1.00113 -.891 .072)" />
  </g>
  <path
    d="M95.133 108.302s-5.69-.718-6.002-5.001c-.312-4.284 2.689-6.175 2.689-8.45 0-2.276-.859-3.45-4.327-6.823-3.468-3.374-6.198-5.684-9.938-8.298-3.739-2.615-13.286-8.83-13.91-6.974-.624 1.856 2.142 7.844 2.142 7.844s-1.638.8.156 2.124c1.795 1.324 2.923 2.007 2.923 2.007s-2.178.111-1.128 1.629c1.05 1.517 3.504 2.807 3.504 2.807s-1.79.49-.348 1.704c1.44 1.213 1.128 1.366 1.128 1.366s-2.023.11-1.206 1.325c.816 1.214 1.362 1.669 1.362 1.669s-2.142-.193-1.908 1.097c.234 1.29 2.299 2.083 2.299 2.083s-2.3.303-2.22 1.518c.077 1.213 2.064 1.627 2.064 1.627s-2.1 1.139-1.44 1.822c.66.682 2.844 1.324 2.844 1.324s-2.263.91-1.404 1.669 2.22 1.476 2.22 1.476-.468 2.614.312 2.766c.78.153 1.638 0 1.638 0s-1.014 1.862-.702 2.58c.312.718 2.61.414 2.61.414s-1.092 1.972-.077 2.2c1.014.228 1.83-.076 1.83-.076s-.39 2.16.39 2.69c.78.53 1.56-.53 1.56-.53s-.66 2.462.47 2.462c1.127 0 2.61-.454 2.61-.454s-.348 1.861.545 2.124c.894.263 2.533-.607 2.533-.607s-.193 2.235.858 2.083c1.05-.152 2.61-.91 2.61-.91s.505 2.806 1.52 2.2c1.013-.607 2.688-2.766 2.688-2.766z"
    fill="#73391d" fill-rule="evenodd" stroke="#000" stroke-width=".379" stroke-miterlimit="3.864"
    transform="matrix(1.04772 0 0 1.09634 -3.82 -6.812)" />
  <path
    d="M95.621 111.477s-3.848.494-7.253-2.976c-2.606-3.474-4.2-8.281-4.2-10.557s.444-4.263-1.234-8.858c-3.956-2.885-3.432-2.891-6.032-3.877-4.186-2.655-6.145-3.636-9.813-6.917-3.025-1.989-1.302 2.308-1.302 2.308s-1.638.8.156 2.124c1.795 1.324 2.923 2.007 2.923 2.007s-2.178.111-1.128 1.629c1.05 1.517 3.504 2.807 3.504 2.807s-1.79.49-.348 1.704c1.44 1.213 1.128 1.366 1.128 1.366s-2.023.11-1.206 1.325c.816 1.214 1.362 1.669 1.362 1.669s-2.142-.193-1.908 1.097c.234 1.29 2.299 2.083 2.299 2.083s-2.3.303-2.22 1.518c.077 1.213 2.064 1.627 2.064 1.627s-2.1 1.139-1.44 1.822c.66.682 2.844 1.324 2.844 1.324s-2.263.91-1.404 1.669 2.22 1.476 2.22 1.476-.468 2.614.312 2.766c.78.153 1.638 0 1.638 0s-1.014 1.862-.702 2.58c.312.718 2.61.414 2.61.414s-1.092 1.972-.077 2.2c1.014.228 1.83-.076 1.83-.076s-.39 2.16.39 2.69c.78.53 1.56-.53 1.56-.53s-.66 2.462.47 2.462c1.127 0 2.61-.454 2.61-.454s-.348 1.861.545 2.124c.894.263 2.533-.607 2.533-.607s-.192 2.235.858 2.083c1.05-.152 2.61-.91 2.61-.91s.505 2.806 1.52 2.2c1.013-.607 2.688-2.766 2.688-2.766z"
    fill="#f2f2f2" fill-rule="evenodd" stroke="#000" stroke-width=".379" stroke-miterlimit="3.864"
    transform="matrix(1.04772 0 0 1.09634 -3.82 -6.812)" />
  <path
    d="M80.73 83.23c-.557-.307-2.89-1.416-2.002.48.303.648.9 1.408 1.453 2.264 1.96 3.036 4.228 5.79 4.407 9.556.148 3.088.028 6.622.729 9.66.753 3.264 2.227 6 5.945 8.372a8.475 8.475 0 007.087.971c.41-.125.643.237.643.237l.169.373s-.252.118-.696.255a8.874 8.874 0 01-7.419-1.017c-5.217-3.327-6.642-8.267-6.908-14.02-.073-1.572-.066-3.052-.126-4.34-.175-3.669-2.256-6.86-4.17-9.823-.564-.876-1.228-1.652-1.537-2.313-.683-1.457.155-1.818 1.017-1.645.546.11.992.535 1.482.805zM66.47 79.023c.008.007 5.984 5.08 10.43 6.847 0 0 .993 1.019-.148.737-3.319-1.32-7.885-4.986-10.558-7.52zM66.95 82.545s5.684 4.313 11.53 6.667c0 0 1.306 1.02.026.677-3.862-1.556-8.542-4.558-11.81-7.261zM69.743 87.237c.027.016 7.488 4.462 10.001 4.707 0 0 1.257.544-.038.467-2.79-.104-8.005-3.824-10.167-5.117z" />
  <path
    d="M72.165 91.126c.005.003 5.09 3.569 9.92 3.816.69-.012.512.648.038.646-3.29-.168-6.863-1.834-10.192-4.424zM73.165 94.667s.667.474 2.063.967c1.413.498 3.632 1.137 6.843 1.446 0 0 .528.497-.064.59-2.187-.211-6.038-.753-9.009-2.84zM71.802 97.223s.023.032.08.088c.49.502 1.358.798 1.97 1.042 1.64.653 4.483 1.444 9.264 1.485 0 0 .637.48-.003.529-3.09.37-9.269-.706-11.516-3.003-.084-.087-.12.1-.12.1zM72.908 104.032c.036-.026 3.48-2.984 11.055-1.894.677.14.06.642.06.642-3.22-.463-7.457-.263-10.525 1.193-1.097.52-.59.06-.59.06zM74.085 107.642c.01-.007 4.593-3.15 10.612-3.402l.19.706c-3.241.136-7.68.921-10.397 2.855zM75.29 111.451c.007-.008 1.052-1.143 2.879-2.297 1.826-1.154 4.154-2.334 7.303-2.419l.3.706c-3.473.093-6.695 1.279-9.463 3.484-1.01.806-1.019.526-1.019.526zM77.203 113.953c2.2-2.561 5.565-4.98 8.832-5.62l.424.58c-3.12.61-7.212 2.93-9.36 5.428zM79.061 117.1c1.67-2.894 4.946-6.066 8.258-6.745l.311.58c-3.03.621-5.76 3.106-7.645 5.489-.79.999-.924.675-.924.675zM80.478 119.9c.004-.009.707-1.563 2.11-3.305 1.403-1.741 3.345-3.69 6.178-4.453l.51.514c-3.33.9-6.066 3.618-7.92 6.45-.71 1.087-.878.794-.878.794zM82.929 121.608s.186-.444.536-1.128c1.432-2.79 3.629-6.22 6.783-6.973l.614.4c-3.191.761-5.453 4.12-7.562 7.448zM85.656 124.413s.484-1.676 1.497-3.777c1.01-2.093 2.383-4.63 4.522-6.338l.713.44c-2.808 1.633-6.732 9.675-6.732 9.675zM88.467 126.43s.339-1.884 1.167-4.224c.823-2.33 1.97-5.26 3.946-7.102l.62.362c-2.639 2.46-4.442 7.587-5.51 11.04z" />
  <path
    d="M79.013 102.425s-.299.736-.264 1.665c.206 5.54 3.112 10.318 7.701 13.397 8.771 5.885 9.566 5.614 9.566 5.614v.529s-.902-.228-10.015-5.965c-5.118-3.223-7.328-7.887-7.539-13.56a4.678 4.678 0 01.268-1.73z" />
  <path
    d="M121.724 108.302s5.689-.718 6-5.001c.313-4.284-2.688-6.175-2.688-8.45 0-2.276.858-3.45 4.327-6.823 3.468-3.374 6.2-5.684 9.938-8.298 3.738-2.614 13.285-8.83 13.91-6.974.623 1.856-2.143 7.844-2.143 7.844s1.638.8-.155 2.124c-1.795 1.324-2.923 2.007-2.923 2.007s2.178.111 1.128 1.629c-1.05 1.517-3.505 2.807-3.505 2.807s1.789.49.348 1.704c-1.44 1.213-1.128 1.366-1.128 1.366s2.022.11 1.206 1.325c-.816 1.214-1.362 1.669-1.362 1.669s2.142-.193 1.909 1.097c-.234 1.29-2.299 2.083-2.299 2.083s2.299.303 2.22 1.518c-.078 1.214-2.063 1.627-2.063 1.627s2.1 1.139 1.44 1.822c-.661.682-2.845 1.324-2.845 1.324s2.262.91 1.405 1.669c-.86.759-2.222 1.476-2.222 1.476s.468 2.614-.31 2.766c-.782.153-1.64 0-1.64 0s1.014 1.862.703 2.58c-.312.718-2.61.414-2.61.414s1.092 1.972.078 2.2c-1.015.228-1.831-.076-1.831-.076s.39 2.16-.39 2.69c-.779.53-1.56-.53-1.56-.53s.66 2.462-.468 2.462c-1.128 0-2.61-.454-2.61-.454s.348 1.861-.546 2.124c-.893.263-2.532-.607-2.532-.607s.191 2.235-.858 2.083c-1.05-.152-2.611-.91-2.611-.91s-.503 2.806-1.518 2.2c-1.014-.607-2.687-2.766-2.687-2.766z"
    fill="#73391d" fill-rule="evenodd" stroke="#000" stroke-width=".379" stroke-miterlimit="3.864"
    transform="matrix(1.04772 0 0 1.09634 -3.82 -6.812)" />
  <path
    d="M121.502 111.594s3.848.494 7.253-2.975c2.606-3.475 4.2-8.282 4.2-10.558 0-2.275-.403-4.67 1.275-9.264 3.956-2.886 3.432-3.014 6.032-4 4.186-2.655 6.104-3.106 9.773-6.388 3.024-1.989 1.302 2.308 1.302 2.308s1.638.8-.157 2.125c-1.794 1.324-2.922 2.007-2.922 2.007s2.177.11 1.128 1.628c-1.05 1.517-3.504 2.808-3.504 2.808s1.788.49.347 1.703c-1.44 1.214-1.128 1.366-1.128 1.366s2.023.11 1.207 1.325c-.816 1.215-1.363 1.67-1.363 1.67s2.142-.193 1.908 1.096c-.233 1.29-2.298 2.083-2.298 2.083s2.298.304 2.22 1.518c-.078 1.214-2.065 1.628-2.065 1.628s2.1 1.138 1.44 1.821c-.66.683-2.844 1.324-2.844 1.324s2.263.91 1.404 1.67c-.858.758-2.22 1.476-2.22 1.476s.468 2.614-.312 2.766c-.78.152-1.638 0-1.638 0s1.014 1.861.702 2.579c-.312.718-2.61.414-2.61.414s1.092 1.973.078 2.2c-1.014.228-1.83-.075-1.83-.075s.39 2.159-.39 2.69c-.781.53-1.561-.531-1.561-.531s.66 2.463-.469 2.463c-1.128 0-2.61-.455-2.61-.455s.347 1.862-.546 2.125c-.894.262-2.532-.607-2.532-.607s.192 2.234-.86 2.082c-1.049-.151-2.61-.91-2.61-.91s-.504 2.806-1.518 2.2c-1.014-.606-2.689-2.765-2.689-2.765z"
    fill="#f2f2f2" fill-rule="evenodd" stroke="#000" stroke-width=".379" stroke-miterlimit="3.864"
    transform="matrix(1.04772 0 0 1.09634 -3.82 -6.812)" />
  <path
    d="M138.836 83.23c.557-.307 2.888-1.416 2 .48-.302.648-.899 1.408-1.452 2.264-1.961 3.036-4.23 5.79-4.408 9.556-.148 3.088-.029 6.622-.729 9.66-.752 3.264-2.227 6-5.945 8.372a8.474 8.474 0 01-7.087.971c-.41-.125-.644.237-.644.237l-.169.373s.251.118.697.255a8.874 8.874 0 007.418-1.017c5.217-3.327 6.64-8.267 6.908-14.02.072-1.572.065-3.052.128-4.34.175-3.669 2.255-6.86 4.168-9.823.564-.876 1.228-1.652 1.539-2.313.682-1.457-.157-1.818-1.018-1.645-.547.11-.992.535-1.482.805zM153.095 79.023c-.009.007-5.984 5.08-10.43 6.847 0 0-.994 1.019.147.737 3.319-1.32 7.886-4.986 10.558-7.52zM152.615 82.545s-5.683 4.313-11.53 6.667c0 0-1.306 1.02-.026.677 3.863-1.556 8.542-4.558 11.81-7.261zM149.823 87.237c-.027.016-7.487 4.462-10.002 4.707 0 0-1.256.544.038.467 2.79-.104 8.004-3.824 10.168-5.117z" />
  <path
    d="M147.4 91.126c-.005.003-5.089 3.569-9.92 3.816-.69-.012-.514.648-.038.646 3.29-.168 6.862-1.834 10.192-4.424zM146.4 94.667s-.667.474-2.063.967c-1.413.498-3.632 1.137-6.843 1.446 0 0-.527.497.064.59 2.187-.211 6.038-.753 9.01-2.84zM147.763 97.223s-.023.032-.08.088c-.489.502-1.358.798-1.969 1.042-1.64.653-4.484 1.444-9.263 1.485 0 0-.637.48.003.529 3.09.37 9.27-.706 11.517-3.003.084-.087.118.1.118.1zM146.658 104.032c-.035-.026-3.48-2.984-11.056-1.894-.677.14-.06.642-.06.642 3.22-.463 7.456-.263 10.525 1.193 1.097.52.591.06.591.06zM145.481 107.642c-.01-.007-4.593-3.15-10.611-3.402l-.19.706c3.24.136 7.68.921 10.395 2.855zM144.275 111.451c-.008-.008-1.052-1.143-2.88-2.297-1.825-1.154-4.153-2.334-7.303-2.419l-.3.706c3.475.093 6.696 1.279 9.463 3.484 1.011.806 1.02.526 1.02.526zM142.363 113.953c-2.201-2.561-5.566-4.98-8.833-5.62l-.424.58c3.12.61 7.213 2.93 9.359 5.428zM140.505 117.1c-1.67-2.894-4.946-6.066-8.257-6.745l-.313.58c3.03.621 5.76 3.106 7.646 5.489.79.999.924.675.924.675zM139.086 119.9c-.004-.009-.706-1.563-2.11-3.305-1.403-1.741-3.346-3.69-6.177-4.453l-.51.514c3.329.9 6.065 3.618 7.92 6.45.71 1.087.877.794.877.794zM136.636 121.608s-.186-.444-.536-1.128c-1.432-2.79-3.629-6.22-6.782-6.973l-.614.4c3.19.761 5.453 4.12 7.562 7.448zM133.91 124.413s-.484-1.676-1.497-3.777c-1.011-2.093-2.383-4.63-4.522-6.338l-.713.44c2.807 1.633 6.731 9.675 6.731 9.675zM131.097 126.43s-.338-1.884-1.165-4.224c-.824-2.33-1.97-5.26-3.946-7.102l-.621.362c2.64 2.46 4.443 7.587 5.512 11.04z" />
  <path
    d="M140.552 102.425s.3.736.265 1.665c-.205 5.54-3.112 10.318-7.701 13.397-8.771 5.885-9.566 5.614-9.566 5.614v.529s.903-.228 10.015-5.965c5.118-3.223 7.327-7.887 7.539-13.56.035-.969-.268-1.73-.268-1.73z" />
  <path
    d="M113.84 98.934c.295-.166.657-.412.965-.685l.149.15c.673 2.246 2.252 7.646 2.252 7.646s-18.086 3.367-17.027-.187c1.058-3.555 4.274-6.75 4.851-7.312l.15.008c.101.58.488 1.132 1.348.661 1.54-.842 1.54-1.31 1.54-1.31s.768 1.31 2.02 1.122c1.25-.188 1.442-.935 1.442-.935s1.156 1.497 2.31.842z"
    fill="#73391d" fill-rule="evenodd" stroke="#000" stroke-width=".379" stroke-miterlimit="3.864"
    transform="matrix(1.04772 0 0 1.09634 -3.82 -6.812)" />
  <path
    d="M117.206 106.045s-18.086 3.367-17.027-.187c1.058-3.555 4.274-6.696 4.851-7.257.065-.063.185-.081.246-.16.067.616.336 1.276 1.252.775 1.54-.842 1.54-1.31 1.54-1.31s.768 1.31 2.02 1.122c1.25-.188 1.442-.935 1.442-.935s1.155 1.497 2.31.841c.308-.175.637-.436.952-.725l.106.243c.673 2.246 2.308 7.593 2.308 7.593z"
    fill="none" stroke="#000" stroke-width=".379" stroke-miterlimit="3.864"
    transform="matrix(1.04772 0 0 1.09634 -3.82 -6.812)" />
  <path
    d="M108.854 104.77c-.44.174-.984.532-1.44.489-.842-.077-1.064-.987-1.06-1.759h.229c0 1.228 1.048 1.42 1.97 1.174.198-.054.361-.247.531-.36 0 0 .275 1.775 1.303 1.813.676.024 1.603-1.696 1.615-1.715l.104.228s-.197.508-.53.95c-.323.43-.545.876-.906 1.056-1.085.54-1.586-1.423-1.816-1.876z" />
  <path
    d="M111.55 101.859c0 .077.197 2.46.794 2.894.321.234.906-.24 1.084-.433.476-.508 1.175-1.234 1.47-1.835l.014.242c-.907 1.845-3.02 4.558-3.502.554-.091-.744-.091-1.422-.091-1.422z" />
  <path
    d="M113.278 107.416c-.37.841-1.075 2.468-2.235 1.788-.682-.4-.94-1.144-1.394-1.745l-.16.113c-.358.436-1.75 2.044-2.188.82a4.49 4.49 0 01-.255-1.795c-.885.336-2.193.498-2.276-.932-.007-.105-.303-1.707.253-1.673.103.007-.355.527.01 1.608.448 1.324 1.782.98 2.31.295 0 0-.048.772-.048 1.117 0 .29.214 1.518.642 1.395.524-.15 1.317-1.176 1.647-1.63 0 0 .074.25.21.43.336.443 1.32 2.051 2.19 1.405.884-.654 1.055-1.168 1.214-2.096 0 0 .098.469.2.613.941 1.333 2.09 1.165 2.631-.441.157-.465.431-.805.431-.805s-.053.43-.224.938c-.625 1.86-1.8 2.198-2.958.595z" />
  <path
    d="M104.029 106.715c-.014.081-.132 1.922.277 2.337.326.332 2.202-.96 2.343-1.088l.096.126s-.48.674-1.083 1.104c-1.715 1.226-2.05.642-1.94-1.283.039-.666.142-1.266.142-1.266z" />
  <path
    d="M113.047 136.998s6.42 6.75 6.71 8.013c.288 1.263-.097 1.544-.673 1.122-.579-.42.383.515-.626.328-1.01-.187-1.106.094-1.106.094s-.53.42-.723 1.216c-.192.795-.384 1.684-.865 1.122-.482-.561-.865 1.404-1.396 1.544-.528.14-1.586-.373-1.634.047-.047.421.097 1.17-.962 1.264-1.058.094-1.154.327-1.154.327s-.77 1.123-2.02.983-1.444-1.356-2.166-1.17c-.721.187-.624.75-1.539.328-.915-.42-1.202-1.31-1.828-1.122-.626.188-1.395-.42-1.491-.935-.097-.515-.385.047-1.01-.468-.627-.515-.53-1.45-.53-1.45s-1.751.701-1.751-.281c0-.983-.126-.983-.126-.983s-2.404.889-1.347-1.356c1.058-2.245 6.013-8.42 6.013-8.42z"
    fill="#f2f2f2" fill-rule="evenodd" stroke="#000" stroke-width=".379" stroke-miterlimit="3.864"
    transform="matrix(1.04772 0 0 1.09634 -3.82 -6.812)" />
  <path d="M110.102 160.974l-.285-.025-1.6-16.148.749-.033z" />
  <path
    d="M113.616 159.058l-.016.722-4.484-12.257.614-.506zM116.088 158.13l-.892-1.168-5.237-10.156.91.049zM117.64 155.27l-.342-.135-5.063-7.78.748-.218zM118.797 152.825l.128.582-4.694-6.304.684-.226zM120.705 152.407l-.324-.051-3.935-4.577.732-.244zM106.162 160.049l-.282-.065 1.841-13.129.688.065zM103.397 158.853l-.207-.194 3.416-11.224.671.136zM102.164 156.148l-.08-.16 3.178-8.514.72.16zM100.176 154.683l-.118-.205 3.575-7.027.756.206zM98.247 153.511l-.049-.221 3.881-6.154.746.221z" />
  <path
    d="M122.507 132.467l2.74 6.47-.887.483c-2.832-4.32-4.746-5.687-4.746-5.687zM95.204 132.467l-2.85 6.578 1.109.374c2.83-4.32 4.634-5.687 4.634-5.687z"
    fill="#ffb81c" fill-rule="evenodd" stroke="#715c37" stroke-width=".379" stroke-miterlimit="3.864"
    transform="matrix(1.04772 0 0 1.09634 -3.82 -6.812)" />
  <path
    d="M97.084 134.138c.03-.275.017-.494.017-.494s-.045.231-.017.494zM104.777 138.176c.243-.508.405-.976.405-.976s-.282.479-.405.976zM112.851 137.39c-.297-.46-.601-.693-.358-.379.108.14.229.266.358.379z"
    fill="#6c3a00" stroke="#000" stroke-width=".379" stroke-miterlimit="3.864"
    transform="matrix(1.04772 0 0 1.09634 -3.82 -6.812)" />
  <path
    d="M96.331 135.234c-.865.094-.48-.094-.674-1.028-.193-.936-1.443-.656-1.924-1.124-.48-.467-.192-.654 0-1.216.192-.56-.289-1.216-.289-1.216s-.384-.469.097-1.122c.48-.655 1.73-1.03 1.73-1.03l26.553 1.03s1.442 1.498 1.442 2.9-1.058 1.028-1.058 1.028l-.48-.56s.576.936.192 1.31c-.384.374-1.25-.282-1.25-.282s.223.872-.193 1.123c-.77.468-1.54-1.03-1.54-1.03s.48 1.217.097 1.498c-.384.28-1.113-.161-1.113-.161s.151.723-.233.816c-.384.093-.865.094-.865.094l-.482-.842s.673 1.31-.193 1.779c-.791.428-1.346-1.123-1.346-1.123s.22 1.87-.358 1.965c-.47.076-1.307-.644-1.872-1.137.407.63 1.074 2.172.018 2.82-.928.569-1.733-.935-1.733-.935l-.578-1.216s.385 1.684-1.058 1.497c-.162-.02-.34-.127-.511-.267-.1.26-.293.454-.642.454-1.058 0-1.059-1.497-1.059-1.497s-.289 1.59-1.635 1.497c-.68-.048-.668-.518-.708-1.297a18.95 18.95 0 00-1.12 1.344c-.481.654-1.154-1.637-1.154-1.637l.096-1.684s-.48 1.121-1.155 1.217c-.49.068-.266-.508-.109-.828-.119.15-.362.346-.853.451-.865.187-.384-1.964-.384-1.964s-.769.842-1.251.936c-.482.094-.384-1.685-.384-1.685s-.097.936-.77.75c-.354-.098-.468-.43-.497-.723-.052.444-.22 1.038-.754 1.095z"
    fill="#73391d" stroke="#000" stroke-width=".379" stroke-miterlimit="3.864"
    transform="matrix(1.04772 0 0 1.09634 -3.82 -6.812)" />
  <path
    d="M137.725 151.793c-.09.02-.195.044-.315.064-2.16.38-3.45-.675-4.244-2.752-1.07-2.803-2.376-6.565-2.828-7.878a.823.823 0 01-.221-.56c0-.464.387-.84.865-.84s.866.375.866.84a.84.84 0 01-.02.176c.475 1.378 1.74 5.015 2.78 7.74.523 1.369 1.789 1.938 2.481 1.8.164-.068.544-.17.744-.17.453 0 .68.343.71.781.026.358-.469.695-.818.799z"
    fill="#f4b21b" stroke="#000" stroke-width=".379" stroke-miterlimit="3.864"
    transform="matrix(1.04772 0 0 1.09634 -3.82 -6.812)" />
  <path
    d="M142.6 139.164h.77c.667 0 1.04.417 1.04 1.065 0 .628-.341 1.142-.98 1.172h-.95c.412 1.117 1.509 1.916 2.8 1.916 1.643 0 2.975-1.296 2.975-2.894 0-1.597-1.332-2.892-2.975-2.892a2.981 2.981 0 00-2.68 1.633zm-71.382 1.172l-.118-.014s.906-.09 1.893-1.05c.688-.67 1.836-3.635 3.575-5.535 2.295-2.508 3.752-3.274 3.752-3.274l-.799-2.519s1.08-.36 3.448-.36 6.572.907 6.572.907l-7.164 6.06-1-1.842s-1.347 1.778-2.212 3.462c-1.145 2.225-.87 2.2-.879 3.005l48.367-.009c.462-1.663 2.028-2.888 3.885-2.888 1.857 0 3.422 1.224 3.884 2.887h1.896c.107-1.215 1.154-2.168 2.431-2.168h2.684c.298 0 .582.052.845.146a4.57 4.57 0 013.001-1.111c2.493 0 4.514 1.966 4.514 4.39 0 2.425-2.021 4.39-4.514 4.39-1.33 0-2.526-.559-3.352-1.448-.16.031-.326.048-.495.048h-2.684c-1.22 0-2.233-.871-2.41-2.01h-1.972c-.524 1.57-2.04 2.704-3.829 2.704-1.789 0-3.304-1.133-3.83-2.7l-48.425.014c.028.884-.297.79.881 3.082.865 1.684 2.213 3.46 2.213 3.46l1-1.84 7.163 6.059s-4.204.906-6.572.906c-2.368 0-3.448-.36-3.448-.36l.8-2.518s-1.458-.768-3.753-3.276c-1.74-1.899-2.886-4.865-3.574-5.533-.988-.96-1.894-1.051-1.894-1.051z"
    fill="#ffb81c" stroke="#000" stroke-width=".379" stroke-miterlimit="3.864"
    transform="matrix(1.04772 0 0 1.09634 -3.82 -6.812)" />
  <path stroke-miterlimit="3.864" clip-rule="evenodd" fill="none" stroke="#000" stroke-width=".379"
    d="M136.181 139.128h6.453M136.201 141.436h6.433" transform="matrix(1.04772 0 0 1.09634 -3.82 -6.812)" />
  <path
    d="M123.471 128.545c.09-.022.196-.044.315-.066 2.162-.38 3.45.676 4.245 2.753 1.07 2.803 2.377 6.565 2.829 7.877.137.149.22.344.22.56a.854.854 0 01-.866.842.854.854 0 01-.865-.842c0-.059.007-.118.02-.174-.476-1.38-1.741-5.017-2.781-7.741-.523-1.37-1.789-1.938-2.48-1.8-.166.068-.544.17-.744.17-.452 0-.68-.343-.71-.781-.025-.357.47-.694.817-.798z"
    fill="#f4b21b" stroke="#000" stroke-width=".379" stroke-miterlimit="3.864"
    transform="matrix(1.04772 0 0 1.09634 -3.82 -6.812)" />
  <path
    d="M96.708 107.099h25.75a.9.9 0 01.187.02h2.086l-1.376 1.376v26.744a.896.896 0 01-.896.896l-12.721 5.628-13.029-5.628a.896.896 0 01-.896-.896v-26.893l-1.228-1.228h1.937a.954.954 0 01.186-.019z"
    fill="#fff" stroke="#000" stroke-width=".398" stroke-miterlimit="3.864"
    transform="matrix(1.0119 0 0 1.02971 -1.003 -.986)" />
  <g transform="matrix(1.0119 0 0 1.02971 -1.003 -.986)">
    <defs>
      <path id="prefix__a"
        d="M96.708 107.099h25.75a.9.9 0 01.187.02h2.086l-1.376 1.376v26.744a.896.896 0 01-.896.896l-12.721 5.628-13.029-5.628a.896.896 0 01-.896-.896v-26.893l-1.228-1.228h1.937a.954.954 0 01.186-.019z" />
    </defs>
    <clipPath id="prefix__b">
      <use xlink:href="#prefix__a" height="217.356" width="217.254" overflow="visible" />
    </clipPath>
    <g clip-path="url(#prefix__b)">
      <path fill="#af272f" d="M119.104 116.313h1.868v21.715h-1.868z" />
      <path fill="#af272f" fill-rule="evenodd"
        d="M114.985 116.313h1.868v25.301h-1.868zM110.866 116.313h1.867v25.301h-1.867zM106.746 116.313h1.868v25.301h-1.868zM102.627 116.313h1.868v23.558h-1.868z" />
      <path fill="#af272f" d="M98.507 116.313h1.868v21.715h-1.868z" />
    </g>
  </g>
  <path
    d="M96.708 107.099h25.75a.9.9 0 01.187.02h2.086l-1.376 1.376v26.744a.896.896 0 01-.896.896l-12.721 5.628-13.029-5.628a.896.896 0 01-.896-.896v-26.893l-1.228-1.228h1.937a.954.954 0 01.186-.019z"
    fill="none" stroke="#000" stroke-width=".398" stroke-miterlimit="3.864"
    transform="matrix(1.0119 0 0 1.02971 -1.003 -.986)" />
  <path d="M123.153 105.923s-1.329 1.098-1.329 2.222v7.008h-26.6v-7.147c0-.984-1.186-2.082-1.186-2.082h29.115z"
    fill="#002f6c" stroke="#000" stroke-width=".379" stroke-miterlimit="3.864"
    transform="matrix(1.04772 0 0 1.09634 -3.82 -6.812)" />
  <g fill-rule="evenodd">
    <path
      d="M109.607 44.273l-.617 40.201-.313.006c-.125-6.431-.778-40.206-.778-40.335 0-.477.38-.865.851-.865a.858.858 0 01.842.993zM91.19 48.234l11.238 37.213-.312.092C99.88 78.984 89.566 48.77 89.527 48.65a.87.87 0 01.547-1.091.847.847 0 011.102.68zM74.784 56.901l21.849 31.075-.3.184C91.401 81.66 73.41 57.931 73.336 57.831a.876.876 0 01.178-1.21.842.842 0 011.257.289zM104.311 74.51l1.315 10.222-.374.077-1.794-10.225a.432.432 0 01.353-.496.427.427 0 01.487.36zM94.805 76.53l4.491 10.008-.314.193-4.973-9.877a.436.436 0 01.196-.579.422.422 0 01.57.2zM86.505 82.848l7.456 6.91-.278.323-7.785-6.62a.439.439 0 01-.042-.61.42.42 0 01.6-.043zM126.364 48.234l-11.239 37.213.312.092c2.237-6.555 12.55-36.768 12.59-36.889a.87.87 0 00-.546-1.091.848.848 0 00-1.073.556c-.014.041-.022.082-.03.123zM142.77 56.901l-21.85 31.076.301.184c4.93-6.501 22.922-30.229 22.995-30.329a.877.877 0 00-.178-1.21.842.842 0 00-1.256.289zM113.242 74.51l-1.314 10.222.373.077 1.793-10.225a.433.433 0 00-.354-.496.426.426 0 00-.486.36zM122.749 76.53l-4.49 10.008.314.193 4.971-9.877a.436.436 0 00-.195-.579.424.424 0 00-.57.2zM131.049 82.848l-7.456 6.91.276.323 7.786-6.62a.439.439 0 00.042-.61.422.422 0 00-.6-.043z" />
  </g>
  <g fill="#ccc" stroke="#000" stroke-width=".398" stroke-miterlimit="3.864">
    <path
      d="M134.189 139.88c1.773-4.352 4.173-8.476 7.411-11.317 5.845-5.129 13.22-3.854 12.911 3.016-.225 5.008-1.087 6.514-5.637 10.803-.281.324-.502.574-.873.574-.445 0-.712-.346-.712-.791 0-.218-.02-.426.122-.571l.039-.062c4.662-4.364 5.264-5.456 5.469-10.025.196-4.368-4.574-6.742-10.268-1.745-2.969 2.604-5.332 6.636-7.147 11.157a4.15 4.15 0 00-1.315-1.039zm-4.952 21.654s.423-5.883 2.162-12.921l.227-.896a4.282 4.282 0 001.635-.049c-1.355 4.971-2.146 9.984-2.435 13.981z"
      transform="matrix(1.0119 0 0 1.02971 -1.003 -.986)" />
    <path clip-rule="evenodd" fill-rule="evenodd"
      d="M151.033 137.816l.252 2.12M152.193 135.789l.706 2.077M152.749 133.561l1.37 1.32M152.899 131.643l1.472.858M152.698 129.817l1.825.657M151.537 127.95l1.968-.202M150.268 127.185l1.421-1.161M148.148 126.934l1.312-1.515M147.13 125.57l-.808 1.868M144.506 126.529l-.051 1.926M142.782 127.64l.201 1.774M141.42 128.707l.353 1.918M140.1 129.969l.302 2.178M138.586 131.895l.807 1.615M137.417 133.51l1.017 1.32M136.205 135.486l1.01 1.363M135.045 137.715l1.16 1.363M131.192 148.792l1.321 1.421M130.738 151.172l1.27 1.716M130.335 153.35l1.269 1.413M129.932 155.368l1.26 1.875M129.578 157.748l1.313 1.464M129.325 159.977l1.464 1.009"
      transform="matrix(1.0119 0 0 1.02971 -1.003 -.986)" />
  </g>
  <path
    d="M120.524 139.118c-.29-1.085 1.053-1.507 1.301-.663.249.843.468 3.69.061 3.776-1.115.242-1.362-3.113-1.362-3.113zM95.39 138.955c.29-1.083-1.054-1.56-1.302-.716-.248.843-.468 3.905-.062 3.992 1.116.242 1.363-3.276 1.363-3.276zM93.353 138.684c.11-1.116-1.283-1.166-1.392-.295-.11.872.009 4.025.732 3.904.889-.149.66-3.609.66-3.609zM89.964 138.957c-.25-1.094.996-1.47 1.214-.619.217.851.605 4.135.037 3.939-.824-.284-1.251-3.32-1.251-3.32zM122.56 138.954c-.11-1.116 1.283-1.328 1.392-.457.11.872-.132 3.715-.546 3.74-1.14.068-.846-3.283-.846-3.283zM124.476 139.016c-.012-1.12 1.397-1.215 1.428-.338.03.879-.191 3.78-.879 3.68-.866-.127-.55-3.342-.55-3.342z"
    fill="#ffb81c" fill-rule="evenodd" stroke="#715c37" stroke-width=".379" stroke-miterlimit="3.864"
    transform="matrix(1.04772 0 0 1.09634 -3.82 -6.812)" />
  <path stroke-miterlimit="3.864" clip-rule="evenodd" fill="none" stroke="#715c37" stroke-width=".379"
    d="M146.773 136.582l.243 1.99" transform="matrix(1.04772 0 0 1.09634 -3.82 -6.812)" />
  <path d="M92.183 127.553s1.349-8.034 2.577-12.156l.676.119c-1.223 4.104-3.03 12.105-3.03 12.105z" />
  <path
    d="M114.849 98.21c-.316.288-.7.55-1.009.724-1.154.655-2.31-.841-2.31-.841s-.192.748-1.443.935c-1.25.187-2.02-1.122-2.02-1.122s0 .467-1.539 1.31c-.917.501-1.296-.159-1.363-.775.485-.62.946-1.68.69-2.593-.289-1.03-.77-1.871-1.443-2.994-.673-1.124-.673-3.088 1.154-3.836 1.827-.749 4.266-.904 6.734.374 1.403.726 1.728 1.132 3.367 1.403-.325.315-.961.841-1.54 2.058-.547 1.153.086 3.23.721 5.356z"
    fill="#fff" stroke="#000" stroke-width=".379" stroke-miterlimit="3.864"
    transform="matrix(1.04772 0 0 1.09634 -3.82 -6.812)" />
  <path
    d="M106.72 92.666s-.678-.793-1.443-1.59c-1.347-1.404.209-2.083-.192-1.763-.523.416-1.347.267-2.309.36-.962.092-2.501 1.216-2.597 2.057-.096.842 0 1.965.48 2.714.482.748.097-.842.77-.749.674.093 3.464.936 4.137.842.673-.094 1.154-1.871 1.154-1.871z"
    fill="#ffb81c" fill-rule="evenodd" stroke="#000" stroke-width=".379" stroke-miterlimit="3.864"
    transform="matrix(1.04772 0 0 1.09634 -3.82 -6.812)" />
  <path
    d="M101.882 96.074s.028-.084.087-.205c.886-1.81 2.303-.217 3.783-.594l-.317.187c-.876.223-1.236.137-2.075-.07-.536-.133-.94.365-1.098.817z" />
  <g>
    <path
      d="M107.046 92.112c0-.246.15-.462.38-.592h-.135c-.583 0-1.094.475-.852.167.473-.603 2.17-.773 2.828-.48.657.295 2.36.936 2.36.936s-1.354.163-1.751-.086c-.22-.138-.81-.219-1.392-.264.187.132.13-.05.13.167 0 .059.395.26-.09.458.679-.083 1.183-.038 1.183-.038s-.674.225-1.29.321a1.002 1.002 0 01-.497.13c-.093 0-.184-.013-.268-.035-.37.01-.08-.129-.456-.281a.634.634 0 01-.15-.403z" />
  </g>
  <path d="M127.685 127.648s-1.349-8.034-2.577-12.156l-.676.118c1.223 4.105 3.03 12.106 3.03 12.106z" />
  <g fill="#ffb81c" fill-rule="evenodd">
    <path
      d="M17.018 126.039c-.023-.135-.195-1.468-.38-2.962-.187-1.495-.356-2.81-.375-2.925-.031-.177-.011-.207.14-.207.155 0 .181.045.222.384.056.478.25.88.521 1.078.294.215.73.191 4.7-.252 5.375-.602 5.474-.621 6.07-1.217.75-.75.876-2.122.3-3.25-.513-1.008-1.651-1.574-3.158-1.573-.79 0-7.272.728-7.765.871-.23.067-.519.225-.678.37-.27.247-.278.273-.305.865-.025.537-.045.61-.17.61-.085 0-.155-.067-.178-.17-.04-.185-.494-3.835-.494-3.972 0-.046.065-.084.144-.084.108 0 .157.072.193.285.074.438.35.863.683 1.052.426.241.9.226 4.084-.13 5.435-.61 6.082-.573 7.334.41 1.117.878 1.649 2.11 1.728 4.006.05 1.158-.03 1.633-.398 2.368-.491.981-1.283 1.58-2.498 1.892-.327.084-2.107.32-3.987.528-3.985.442-4.728.548-4.98.714-.342.223-.447.472-.438 1.035.007.459-.009.52-.133.52-.1 0-.153-.072-.182-.246zM28.33 101.549c-.007-.761-.247-1.127-.901-1.372-.255-.095-2.058-.377-5.167-.807l-4.775-.662-.401.21c-.565.296-.924.669-1.032 1.07-.074.276-.12.334-.268.334-.156 0-.173-.027-.136-.207.024-.114.181-1.09.35-2.168.176-1.132.343-1.984.396-2.017.05-.032 2.06-1.134 4.468-2.449 4.719-2.577 4.455-2.429 4.409-2.47-.085-.074-5.841-.829-6.333-.83-.873-.003-1.318.32-1.552 1.127-.066.226-.143.41-.17.41-.232-.006-.227-.152.064-2.001.163-1.037.297-1.93.298-1.985 0-.06.069-.09.17-.075.153.021.175.076.208.528.046.608.203.857.698 1.106.364.182 1.26.32 9.038 1.39 2.698.37 2.906.41 2.906.547 0 .117-1.25.848-6.056 3.54-3.33 1.866-6.044 3.404-6.029 3.42.015.014 1.976.299 4.358.632 4.458.623 4.807.65 5.287.401.303-.156.635-.645.742-1.089.072-.298.122-.376.244-.376.13 0 .147.037.115.246l-.33 2.15c-.27 1.758-.305 1.906-.444 1.906-.136 0-.152-.052-.156-.51zM33.55 79.503c-.022-.036.03-.265.115-.509.253-.72.096-1.139-.554-1.472-.36-.185-8.771-3.325-9.494-3.545l-.546-.166-.331.161c-.328.16-.735.67-.828 1.04-.03.114-.083.15-.186.123-.08-.02-.145-.063-.145-.094 0-.086 2.42-5.842 2.484-5.91.031-.032.112-.038.179-.012.11.043.108.082-.025.42-.197.499-.192.97.011 1.229.208.264.622.466 1.992.973.623.23 2.687 1 4.587 1.71s3.598 1.308 3.773 1.33c.493.06.863-.191 1.149-.778.176-.362.261-.463.378-.45.083.01.141.065.129.122-.013.056-.57 1.405-1.237 2.998-1.117 2.66-1.316 3.049-1.451 2.83zM42.395 62.48c-.111-.081-.102-.121.098-.419.458-.682.467-1.143.031-1.554-.217-.206-8.91-5.886-9.129-5.965-.088-.032-.758.881-1.03 1.403-.135.26-.176.463-.177.868-.002.65.208 1.145.776 1.826.253.304.373.51.343.588-.026.067-.072.111-.102.099-.248-.099-2.863-1.85-2.845-1.905.013-.04 1.498-2.1 3.301-4.58 2.333-3.21 3.311-4.5 3.392-4.472.175.06 2.792 1.775 2.79 1.83-.004.21-.141.217-.753.038-.836-.243-1.54-.251-2.144-.024-.508.19-.884.533-1.434 1.304-.31.434-.351.53-.262.613.178.165 8.638 5.617 9.042 5.827.357.185.403.191.725.1.266-.073.439-.2.757-.552.357-.394.428-.442.518-.348.09.094-.094.38-1.303 2.034l-1.94 2.652c-.457.627-.547.715-.654.638zM54.946 47.615c-.069-.084-.01-.168.288-.418.242-.203.418-.43.5-.642.119-.313.118-.345-.022-.658a3.437 3.437 0 00-.482-.706c-.185-.208-1.703-1.93-3.374-3.828-2.663-3.026-3.074-3.462-3.335-3.54-.381-.115-.799 0-1.293.353-.313.223-.364.238-.45.135-.08-.097-.077-.133.018-.204.064-.047 1.953-1.524 4.199-3.282 2.245-1.758 4.111-3.188 4.146-3.176.034.01.6.632 1.26 1.38 1.065 1.21 1.182 1.37 1.068 1.453-.108.08-.215.037-.697-.278-.59-.385-1.36-.673-1.8-.673-.405 0-1.021.153-1.451.362-.387.187-2.447 1.69-2.49 1.815-.011.034.747.934 1.685 1.999l1.705 1.936.3-.241c.615-.495.902-1.174.786-1.861-.056-.329-.473-1.25-.73-1.611-.146-.206-.15-.233-.037-.345.112-.112.142-.098.378.176.141.164 1.125 1.282 2.185 2.485 1.458 1.653 1.909 2.21 1.848 2.283-.117.141-.16.125-.562-.21a5.683 5.683 0 00-.933-.585c-.501-.246-.63-.278-1.132-.277-.593.002-.87.102-1.416.51l-.245.184 1.493 1.688c.82.928 1.61 1.768 1.755 1.866.198.135.33.17.544.141.65-.085 2.41-1.661 2.838-2.542.514-1.057.484-2.1-.098-3.485-.035-.083-.006-.15.085-.198.12-.063.275.139 1.22 1.59 1.043 1.603 1.076 1.667.943 1.796-.162.157-8.545 6.712-8.584 6.712-.014 0-.065-.047-.113-.104zM73.702 34.77a.957.957 0 01-.046-.14c0-.01.13-.058.29-.106.77-.23 1.173-.798.993-1.4-.125-.418-3.566-8.33-3.897-8.96-.372-.709-.78-.862-1.607-.604-.493.154-.61.15-.61-.02 0-.09 4.682-1.942 6.207-2.456 1.078-.363 1.812-.49 2.813-.488 1.8.005 3.096.575 4.377 1.925 1.796 1.893 2.363 4.746 1.354 6.815-.553 1.134-1.777 2.275-3.165 2.95-.59.288-6.472 2.603-6.612 2.603-.028 0-.072-.054-.097-.12zm5.334-2.604c1.67-.558 2.389-1.892 2.07-3.838-.164-.997-.48-1.939-1.03-3.065-1.22-2.496-2.909-3.767-4.647-3.493-.413.066-1.443.374-1.67.501-.067.038.487 1.384 1.97 4.792 1.136 2.606 2.12 4.824 2.19 4.928a.753.753 0 00.55.327c.054.003.308-.066.567-.152zM141.808 34.507c-1.109-.29-1.824-.71-2.838-1.665-.862-.812-1.086-.886-1.717-.567-.28.142-.377.16-.473.09-.106-.078.005-.338.919-2.168.888-1.779 1.06-2.074 1.183-2.042.116.03.136.084.101.273-.304 1.655-.155 2.748.519 3.816.849 1.345 2.596 2.014 3.747 1.435.694-.348 1.005-.829 1-1.545-.004-.753-.33-1.324-1.706-2.997-1.267-1.54-1.779-2.433-1.947-3.403-.357-2.046 1.413-3.901 3.72-3.901.774 0 1.15.094 2.018.509.633.302.81.435 1.51 1.131 1.043 1.039 1.139 1.072 1.66.578.179-.169.298-.23.367-.187.08.05-.082.457-.739 1.863-.462.99-.867 1.828-.9 1.861-.034.034-.12.038-.194.01-.098-.038-.12-.102-.086-.248.11-.467.134-1.513.044-1.904-.22-.944-.908-1.953-1.618-2.368-1.262-.74-2.666-.486-3.112.563-.285.67.052 1.479 1.215 2.91 1.169 1.438 1.606 2.022 1.938 2.587.778 1.326.79 2.641.036 3.82-.871 1.362-2.846 2.02-4.647 1.549zM159.086 45.072a351.268 351.268 0 01-2.594-2.11c-.04-.04-.03-.113.028-.182.085-.103.128-.091.37.1.628.492 1.145.6 1.603.334.223-.13 7.388-7.91 7.388-8.024 0-.117-1.124-.942-1.57-1.152-.435-.205-.53-.221-1.095-.191-.664.035-1.18.22-1.806.652-.274.188-.346.208-.455.13-.115-.085-.006-.23 1.013-1.35.646-.71 1.176-1.233 1.222-1.204.098.06 7.917 6.391 8.484 6.87l.396.333-1.14 1.24c-.627.681-1.172 1.239-1.21 1.239-.17 0-.142-.272.079-.75.47-1.022.482-1.719.04-2.472-.248-.423-1.448-1.433-1.59-1.337-.155.103-6.885 7.496-7.133 7.834-.378.516-.274.971.352 1.549.302.278.338.34.248.43-.09.09-.47-.19-2.63-1.939zM176.995 65.21l-1.74-2.408c-.59-.815-1.072-1.517-1.072-1.558 0-.223.24-.117.551.243.19.219.445.44.568.49.434.18.67-.042 1.739-1.637l.47-.7-1.293-1.79c-.71-.986-1.333-1.8-1.382-1.812-.178-.042-1.943.349-2.215.49-.628.326-.721.775-.319 1.53.206.386.23.477.14.534a.463.463 0 01-.146.068c-.02 0-.577-.75-1.236-1.665-.91-1.264-1.177-1.686-1.11-1.752.066-.067.137-.057.292.042 1.025.65.933.656 8.42-.59 3.398-.566 6.205-1 6.237-.964.032.035-1.431 2.305-3.252 5.045-1.82 2.74-3.446 5.254-3.613 5.587-.328.656-.368.943-.189 1.372.111.266.07.393-.13.398-.028 0-.353-.415-.72-.924zm2.267-8.194c.705-1.047 1.27-1.915 1.253-1.93-.04-.034-4.76.771-4.809.82-.02.022.044.152.144.291l1.087 1.51c.498.692.935 1.248.973 1.235.038-.013.646-.88 1.352-1.926zM184.873 82.53c-.057-.093-2.237-5.924-2.237-5.984 0-.03.064-.072.142-.092.111-.03.163.027.241.265.246.743.741 1.105 1.38 1.006.171-.027 2.612-.814 5.423-1.75l5.11-1.7-.189-.505c-.664-1.771-1.276-2.219-3.05-2.233-.64-.006-.795-.028-.813-.12-.017-.086.379-.247 1.617-.66.901-.299 1.653-.53 1.67-.514.023.023 2.406 6.35 3.774 10.018l.16.428-1.6.534c-.88.293-1.644.533-1.696.533-.234 0-.069-.297.302-.544 1.098-.732 1.609-1.648 1.411-2.531-.087-.388-.416-1.354-.519-1.52-.05-.081-1.11.246-5.11 1.578-2.775.924-5.21 1.762-5.41 1.862-.572.287-.702.733-.436 1.492.124.352.129.414.032.45-.144.056-.16.055-.202-.014zM190.522 105.51c-.788-.038-1.444-.08-1.456-.092-.031-.03-.995-10.13-.996-10.435 0-.19.032-.246.14-.246.115 0 .15.079.19.422.083.701.381 1.096.903 1.194.216.04 9.608-.702 10.513-.831.712-.102 1.008-.498 1.008-1.348 0-.443.016-.493.151-.493.083 0 .151.03.151.066 0 .104.895 9.514.941 9.9l.041.343-1.68.133c-.923.074-1.79.152-1.924.175-.222.037-.246.023-.246-.147 0-.149.048-.197.233-.234.436-.087 1.464-.628 1.756-.924.7-.708.867-1.438.73-3.18-.053-.665-.121-1.251-.153-1.302-.044-.071-.635-.044-2.635.121-1.418.118-2.616.237-2.663.266-.061.038-.06.167.003.486.232 1.155 1.03 1.714 2.596 1.821.562.038.665.066.705.19.025.08.034.155.02.166-.024.019-6.672.581-6.8.575-.03-.001-.056-.065-.056-.142 0-.11.113-.17.51-.275 1.558-.413 2.283-1.124 2.283-2.242v-.513h-.26c-.326 0-2.757.197-3.83.31-1.315.14-1.465.307-1.388 1.554.092 1.485.469 2.483 1.224 3.242.533.535 1.267.926 2.123 1.131.428.103.546.161.546.268 0 .158-.242.162-2.68.042zM198.449 126.606c-1.161-.14-2.124-.267-2.139-.283-.015-.015-.007-.093.019-.173.037-.119.14-.154.554-.19 1.54-.133 3.012-1.139 3.501-2.393.213-.545.232-1.43.04-1.82-.322-.65-.86-1.004-1.524-1.003-.87 0-1.437.463-2.854 2.329-1.929 2.54-2.976 3.285-4.618 3.285-1.096 0-1.976-.354-2.716-1.093-.803-.802-1.171-1.714-1.17-2.9.002-.941.15-1.541.578-2.337.192-.357.45-.844.575-1.083l.226-.433-.13-.34c-.071-.186-.23-.418-.353-.514-.22-.172-.243-.43-.038-.43.118 0 4.257.593 4.519.648.13.027.207.092.207.174 0 .109-.119.147-.68.222-1.864.248-3.257 1.104-3.89 2.39-.562 1.142-.504 2.09.176 2.843.362.403.772.587 1.31.589 1.077.004 1.542-.369 3.286-2.638 1.301-1.692 2.24-2.456 3.387-2.754 1.664-.434 3.462.406 4.24 1.981.263.532.285.627.31 1.37.041 1.218-.13 1.76-.935 2.98-.222.335-.424.696-.45.802-.06.25.18.56.531.687.241.087.343.24.206.31-.031.017-1.007-.085-2.168-.226zM81.47 197.35c-.069-.043-1.027-3.018-2.129-6.611-1.102-3.594-2.028-6.533-2.059-6.531-.03.001-.772 1.814-1.647 4.029-1.136 2.874-1.592 4.152-1.592 4.465-.001.553.33 1.037.91 1.333.303.155.397.253.318.333-.162.162-4.187-1.486-4.112-1.684.04-.105.124-.116.32-.041.145.055.485.1.754.1.899 0 1.016-.202 3.012-5.216l1.754-4.406-.132-.499c-.169-.633-.379-.953-.77-1.176-.313-.178-.425-.45-.178-.434.073.004 1.02.377 2.103.827l1.97.818 1.312 4.43a929.528 929.528 0 011.427 4.843c.065.234.154.373.206.32.05-.052.586-1.342 1.19-2.869 1.238-3.132 1.338-3.628.837-4.164a2.69 2.69 0 00-.61-.462c-.206-.107-.312-.225-.266-.298.052-.083.67.118 1.968.64 2.011.81 2.385 1.095 1.271.969-.758-.086-1.087.085-1.427.743-.124.24-1.143 2.728-2.265 5.528-1.416 3.535-2.077 5.067-2.165 5.013zM102.522 201.597c-1.527-.224-2.811-.41-2.855-.415-.044-.004-.08-.073-.08-.154 0-.11.115-.134.453-.097.587.064 1.017-.106 1.1-.433.037-.149-.08-.806-.278-1.553-.288-1.088-.38-1.303-.569-1.344-.299-.066-4.003-.588-4.166-.588-.228 0-1.151 1.662-1.21 2.177-.046.415-.016.51.23.739.155.144.497.316.76.382.293.074.478.18.478.276 0 .112-.082.14-.294.1a95.002 95.002 0 00-2.054-.297c-1.329-.182-1.762-.279-1.762-.392 0-.092.182-.186.47-.243.356-.07.59-.216.96-.6.294-.303 1.796-2.604 3.738-5.727 3.697-5.946 3.3-5.328 3.383-5.245.035.036.802 2.698 1.703 5.915.902 3.217 1.767 6.152 1.924 6.522.225.53.372.721.697.907.394.225.56.516.28.49a326.72 326.72 0 01-2.908-.42zm-2.295-4.812c0-.094-.852-3.311-1.135-4.283-.03-.104-.094-.164-.142-.135-.167.104-2.478 3.915-2.413 3.98.063.063 2.957.522 3.45.547.132.006.24-.043.24-.11zM120.47 201.261c-.146-.253-1.546-2.74-3.11-5.53-1.565-2.788-2.977-5.237-3.14-5.443a1.632 1.632 0 00-.792-.533c-.274-.088-.499-.212-.5-.276 0-.073 1.038-.224 2.802-.408 1.54-.161 2.886-.317 2.988-.345.12-.034.187.006.187.11 0 .103-.145.188-.4.235-.22.04-.538.142-.707.227-.272.138-.3.199-.253.546.06.442 4.03 7.643 4.142 7.515.11-.125 2.116-6.522 2.255-7.19.212-1.02-.112-1.463-1.121-1.533-.301-.02-.564-.086-.584-.146-.039-.117.168-.152 2.272-.39 1.744-.198 1.867-.198 1.867 0 0 .088-.07.16-.156.16-.265 0-.911.649-1.186 1.19-.25.494-.875 2.353-3.057 9.103-.55 1.698-1.053 3.106-1.12 3.128-.067.022-.24-.167-.387-.42zM139.454 197.23c-.035-.056.18-.206.476-.334.612-.263 1.069-.74 1.069-1.114 0-.14-.27-.999-.6-1.91l-.6-1.657-2.789-2.417c-3.478-3.014-3.58-3.087-4.31-3.08-.325.004-.56-.041-.56-.106 0-.093 5.343-2.194 5.58-2.194.042 0 .077.072.077.16 0 .088-.069.16-.152.16-.228 0-.809.527-.809.733 0 .099.348.52.774.935 1.048 1.022 4.139 3.702 4.2 3.64.107-.107 1.003-5.373 1.003-5.9 0-.772-.172-.932-.951-.885-.328.02-.62-.006-.65-.059-.03-.052.74-.397 1.708-.766s1.777-.624 1.798-.568c.02.057-.152.307-.382.557-.511.554-.517.578-1.308 4.87l-.619 3.357.722 1.903c.397 1.046.805 1.994.907 2.106.283.313.737.364 1.395.157.556-.175.846-.152.628.048-.09.083-6.363 2.467-6.49 2.467-.03 0-.082-.046-.117-.102z" />
  </g>
</svg>